<?xml version="1.0" standalone="no"?>
<!DOCTYPE svg PUBLIC "-//W3C//DTD SVG 1.1//EN" "http://www.w3.org/Graphics/SVG/1.1/DTD/svg11.dtd" >
<svg xmlns="http://www.w3.org/2000/svg" xmlns:xlink="http://www.w3.org/1999/xlink" version="1.1">
<metadata>
Created by FontForge 20161003 at Thu Aug  8 10:03:00 2019
 By www-data
Font software Copyright 1990 Adobe Systems Incorporated. Typeface designs Copyright 1990 The Monotype Corporation. All rights reserved.
</metadata>
<defs>
<font id="ArialMTProRegular" horiz-adv-x="556" >
  <font-face 
    font-family="ArialMTProRegular"
    font-weight="400"
    font-stretch="normal"
    units-per-em="1000"
    panose-1="2 11 5 2 2 2 2 2 2 4"
    ascent="726"
    descent="-274"
    x-height="518"
    cap-height="716"
    bbox="-222 -321 1006 924"
    underline-thickness="50"
    underline-position="-150"
    unicode-range="U+0020-FB04"
  />
<missing-glyph horiz-adv-x="500" 
d="M12 0v665h475v-665h-475zM88 618l162 -243l161 243h-323zM60 575v-484l40 61l80 120l41 61zM440 575l-162 -242l162 -243v485zM411 48l-161 242l-162 -242h323z" />
    <glyph glyph-name="f_f" unicode="ff" horiz-adv-x="531" 
d="M174 519h163v50q0 159 139 159q46 0 88 -11l-14 -74q-21 4 -47 4q-46 0 -62 -19t-16 -76v-33h100v-68h-100v-451h-88v451h-163v-451h-88v451h-78v68h78v50q0 159 140 159q46 0 88 -11l-14 -74q-23 4 -47 4q-46 0 -62.5 -19t-16.5 -76v-33z" />
    <glyph glyph-name="fi" unicode="fi" horiz-adv-x="496" 
d="M174 0h-88v452h-78v66h78v51q0 159 139 159q47 0 89 -11l-14 -75q-29 5 -58 5q-43 0 -55.5 -23.5t-12.5 -71.5v-34h101v-66h-101v-452zM429 0h-88v518h88v-518zM429 616h-88v100h88v-100z" />
    <glyph glyph-name="fl" unicode="fl" horiz-adv-x="495" 
d="M174 0h-88v452h-78v66h78v51q0 159 139 159q47 0 89 -11l-14 -75q-29 5 -58 5q-43 0 -55.5 -23.5t-12.5 -71.5v-34h101v-66h-101v-452zM428 0h-88v716h88v-716z" />
    <glyph glyph-name="f_f_i" unicode="ffi" horiz-adv-x="744" 
d="M174 519h163v50q0 159 138 159q48 0 90 -11l-15 -74q-21 4 -46 4q-47 0 -63.5 -18t-16.5 -77v-33h102v-68h-102v-451h-87v451h-163v-451h-87v451h-79v68h79v50q0 159 138 159q47 0 89 -11l-14 -74q-21 4 -47 4q-46 0 -62.5 -19t-16.5 -76v-33zM677 0h-88v519h88v-519z
M677 616h-88v100h88v-100z" />
    <glyph glyph-name="f_f_l" unicode="ffl" horiz-adv-x="744" 
d="M677 0h-88v716h88v-716zM174 519h163v50q0 159 138 159q47 0 89 -11l-14 -74q-21 4 -47 4q-46 0 -62.5 -19t-16.5 -76v-33h101v-68h-101v-451h-87v451h-163v-451h-88v451h-78v68h78v50q0 159 138 159q47 0 89 -11l-13 -74q-23 4 -48 4q-46 0 -62 -19t-16 -76v-33z" />
    <glyph glyph-name=".notdef" horiz-adv-x="500" 
d="M12 0v665h475v-665h-475zM88 618l162 -243l161 243h-323zM60 575v-484l40 61l80 120l41 61zM440 575l-162 -242l162 -243v485zM411 48l-161 242l-162 -242h323z" />
    <glyph glyph-name=".null" horiz-adv-x="0" 
 />
    <glyph glyph-name="nonmarkingreturn" horiz-adv-x="333" 
 />
    <glyph glyph-name="space" unicode=" " horiz-adv-x="278" 
 />
    <glyph glyph-name="exclam" unicode="!" horiz-adv-x="278" 
d="M190 0h-100v100h100v-100zM169 178h-57l-27 379v159h109v-159z" />
    <glyph glyph-name="quotedbl" unicode="&#x22;" horiz-adv-x="355" 
d="M119 462h-54l-24 137v117h100v-117zM280 462h-53l-24 137v117h100v-117z" />
    <glyph glyph-name="numbersign" unicode="#" 
d="M124 -12h-73l42 208h-82v73h97l36 176h-133v73h148l43 210h73l-43 -210h154l43 210h73l-42 -210h84v-73h-99l-36 -176h135v-73h-150l-42 -208h-74l42 208h-153zM218 445l-37 -176h154l36 176h-153z" />
    <glyph glyph-name="dollar" unicode="$" 
d="M303 -103h-52v88q-54 7 -91 22t-67 49q-49 56 -55 143l88 16q10 -73 43 -112t82 -44v280q-96 18 -147.5 69.5t-51.5 131.5q0 92 66 150q48 42 133 50v42h52v-42q83 -7 131.5 -52.5t59.5 -124.5l-91 -13q-15 99 -100 116v-254q75 -19 92 -27q117 -52 117 -182
q0 -90 -57.5 -151.5t-151.5 -65.5v-89zM251 423v244q-52 -8 -80.5 -41t-28.5 -81q0 -89 109 -122zM303 327v-268q51 6 85 43.5t34 94.5q0 56 -29 83.5t-90 46.5z" />
    <glyph glyph-name="percent" unicode="%" horiz-adv-x="889" 
d="M688 728l-390 -754h-73l392 754h71zM73 544q0 82 40.5 133t108.5 51q69 0 112.5 -49t43.5 -132q0 -96 -43 -147t-111 -51t-109.5 51t-41.5 144zM225 667q-76 0 -76 -130q0 -127 76 -127q77 0 77 130q0 127 -77 127zM536 169q0 83 41 133.5t108 50.5q70 0 113 -49t43 -132
q0 -96 -43 -147t-111 -51t-109.5 51t-41.5 144zM688 292q-76 0 -76 -130q0 -127 76 -127q77 0 77 130q0 127 -77 127z" />
    <glyph glyph-name="ampersand" unicode="&#x26;" horiz-adv-x="667" 
d="M132 569q0 65 51 112t127 47q72 0 119 -44.5t47 -108.5q0 -102 -135 -174l129 -164q22 43 34 100l91 -19q-24 -93 -64 -155q47 -63 112 -110l-59 -70q-52 33 -110 101q-85 -95 -202 -95q-102 0 -165.5 61t-63.5 153q0 127 169 208q-41 49 -60.5 84.5t-19.5 73.5zM419 154
l-161 200q-62 -37 -91.5 -72.5t-29.5 -78.5q0 -50 37.5 -94t95.5 -44q40 0 81.5 25t67.5 64zM257 503l39 -46q32 19 48.5 32t29 36t12.5 52q0 33 -23.5 56t-55.5 23q-37 0 -61 -22.5t-24 -52.5q0 -36 35 -78z" />
    <glyph glyph-name="quotesingle" unicode="'" horiz-adv-x="191" 
d="M122 462h-55l-22 134v120h100v-120z" />
    <glyph glyph-name="parenleft" unicode="(" horiz-adv-x="333" 
d="M296 -210h-63q-79 100 -126 222.5t-47 246.5q0 238 173 469h63q-35 -61 -51.5 -92.5t-43.5 -95.5t-39 -132.5t-12 -147.5q0 -237 146 -470z" />
    <glyph glyph-name="parenright" unicode=")" horiz-adv-x="333" 
d="M36 728h63q173 -230 173 -469q0 -124 -47 -247t-126 -222h-63q146 233 146 470q0 79 -12 147t-38.5 132t-43.5 96t-52 93z" />
    <glyph glyph-name="asterisk" unicode="*" horiz-adv-x="389" 
d="M129 423l-57 42q58 71 81 92q-61 12 -120 27l22 70q76 -27 113 -48q-9 95 -9 122h70q-1 -39 -11 -121q55 27 115 47l23 -70q-61 -20 -122 -27q32 -28 84 -92l-58 -42q-23 31 -67 105q-41 -74 -64 -105z" />
    <glyph glyph-name="plus" unicode="+" horiz-adv-x="584" 
d="M333 116h-83v195h-195v84h195v194h83v-194h195v-84h-195v-195z" />
    <glyph glyph-name="comma" unicode="," horiz-adv-x="278" 
d="M140 0h-50v100h100v-100q0 -106 -82 -141l-24 37q30 14 42.5 38.5t13.5 65.5z" />
    <glyph glyph-name="hyphen" unicode="-" horiz-adv-x="333" 
d="M302 215h-270v88h270v-88z" />
    <glyph glyph-name="period" unicode="." horiz-adv-x="278" 
d="M189 0h-100v100h100v-100z" />
    <glyph glyph-name="slash" unicode="/" horiz-adv-x="278" 
d="M71 -12h-71l207 740h71z" />
    <glyph glyph-name="zero" unicode="0" 
d="M45 353q0 366 233 366q234 0 234 -366q0 -365 -233 -365q-234 0 -234 365zM135 353q0 -147 34 -220t109 -73q76 0 110 73t34 220q0 148 -34 221t-110 73q-75 0 -109 -72.5t-34 -221.5z" />
    <glyph glyph-name="one" unicode="1" 
d="M375 719v-719h-88v560q-32 -30 -82 -60t-94 -46v85q73 34 128 82.5t79 97.5h57z" />
    <glyph glyph-name="two" unicode="2" 
d="M150 84h351v-84h-473v19q0 38 41.5 101t124.5 131q77 63 117.5 101t69.5 83t29 87q0 54 -38 89.5t-96 35.5q-63 0 -102 -38t-39 -107l-90 10q9 100 70 153.5t162 53.5q102 0 162.5 -56t60.5 -139q0 -56 -28.5 -108.5t-73 -95.5t-91 -81t-92 -79.5t-65.5 -75.5z" />
    <glyph glyph-name="three" unicode="3" 
d="M513 219q0 -105 -70.5 -168t-163.5 -63q-101 0 -163.5 55.5t-71.5 145.5l88 12q27 -141 140 -141q62 0 104.5 43t42.5 115q0 51 -39 90.5t-97 39.5q-34 0 -65 -9l9 77q6 -1 17 -1q57 0 100 31.5t43 90.5q0 48 -33.5 79t-83.5 31q-53 0 -86.5 -33.5t-42.5 -95.5l-88 15
q16 89 73 137.5t142 48.5q89 0 149 -53.5t60 -127.5q0 -105 -98 -150q66 -16 100 -62.5t34 -106.5z" />
    <glyph glyph-name="four" unicode="4" 
d="M414 0h-88v171h-311v81l327 464h72v-464h96v-81h-96v-171zM101 252h225v323z" />
    <glyph glyph-name="five" unicode="5" 
d="M197 622l-38 -192q62 44 135 44q93 0 158 -64t65 -167q0 -110 -69 -182.5t-172 -72.5q-98 0 -161.5 53.5t-72.5 146.5l92 7q10 -66 47 -100.5t91 -34.5q66 0 108.5 49.5t42.5 131.5q0 68 -42.5 112.5t-110.5 44.5q-85 0 -130 -70l-82 11l69 367h356v-84h-286z" />
    <glyph glyph-name="six" unicode="6" 
d="M502 541l-87 -7q-26 113 -121 113q-75 0 -119 -70t-45 -208q63 95 176 95q85 0 147 -65t62 -166q0 -106 -62.5 -175.5t-159.5 -69.5q-83 0 -144 45.5t-86 125.5q-21 69 -21 176q0 190 66 287t189 97q85 0 139.5 -46.5t65.5 -131.5zM143 232q0 -72 42 -122t104 -50
q59 0 97.5 47.5t38.5 119.5q0 71 -38.5 116t-100.5 45q-60 0 -101.5 -43.5t-41.5 -112.5z" />
    <glyph glyph-name="seven" unicode="7" 
d="M398 622h-350v84h464v-68q-102 -108 -181.5 -282.5t-91.5 -355.5h-91q2 143 71.5 320t178.5 302z" />
    <glyph glyph-name="eight" unicode="8" 
d="M514 207q0 -95 -66 -157t-170 -62t-170 62t-66 157q0 68 34 116t102 65q-107 39 -107 146q0 80 57.5 132.5t148.5 52.5q92 0 149.5 -53.5t57.5 -133.5q0 -104 -105 -144q135 -45 135 -181zM161 537q0 -51 33 -83t84 -32q49 0 82.5 32t33.5 79q0 49 -33.5 81.5t-83.5 32.5
t-83 -32.5t-33 -77.5zM132 206q0 -63 42 -104.5t109 -41.5q58 0 99.5 40.5t41.5 103.5q0 64 -42.5 105t-103.5 41q-65 0 -105.5 -42t-40.5 -102z" />
    <glyph glyph-name="nine" unicode="9" 
d="M426 321v16q-26 -42 -72.5 -67.5t-96.5 -25.5q-92 0 -153 64.5t-61 168.5q0 106 63.5 174t161.5 68q67 0 122 -34t86 -96q38 -75 38 -218q0 -178 -54 -268q-69 -115 -199 -115q-86 0 -140.5 46.5t-64.5 131.5l85 8q11 -58 40.5 -86t84.5 -28q71 0 115.5 70.5t44.5 190.5z
M416 481q0 72 -39 119t-98 47q-61 0 -103.5 -50t-42.5 -122q0 -68 41 -111.5t102 -43.5q63 0 101.5 44.5t38.5 116.5z" />
    <glyph glyph-name="colon" unicode=":" horiz-adv-x="278" 
d="M190 0h-100v100h100v-100zM190 418h-100v100h100v-100z" />
    <glyph glyph-name="semicolon" unicode=";" horiz-adv-x="278" 
d="M140 0h-50v100h100v-100q0 -106 -82 -141l-24 37q30 14 42.5 38.5t13.5 65.5zM190 418h-100v100h100v-100z" />
    <glyph glyph-name="less" unicode="&#x3c;" horiz-adv-x="584" 
d="M56 313v82l472 200v-87l-374 -155l374 -155v-88z" />
    <glyph glyph-name="equal" unicode="=" horiz-adv-x="584" 
d="M528 285v-81h-473v81h473zM528 504v-84h-473v84h473z" />
    <glyph glyph-name="greater" unicode="&#x3e;" horiz-adv-x="584" 
d="M528 313l-472 -203v88l374 155l-374 155v87l472 -200v-82z" />
    <glyph glyph-name="question" unicode="?" 
d="M327 0h-100v100h100v-100zM317 176h-84q0 3 -0.5 12.5t-0.5 12.5q0 108 75 175l11 10q42 37 58.5 53.5t29 39.5t12.5 50q0 50 -40 88.5t-101 38.5q-56 0 -93 -37t-48 -108l-90 10q13 100 73 153.5t159 53.5q101 0 165.5 -55.5t64.5 -139.5q0 -41 -17.5 -76.5t-37.5 -56.5
t-66 -62l-22 -20q-21 -19 -32 -43.5t-13 -44t-3 -54.5z" />
    <glyph glyph-name="at" unicode="@" horiz-adv-x="1015" 
d="M496 529q92 0 147 -90l16 76h88l-70 -328q-15 -73 -15 -76q0 -12 10.5 -21.5t25.5 -9.5q51 0 119 79.5t68 190.5q0 133 -99.5 220.5t-250.5 87.5q-178 0 -292.5 -120.5t-114.5 -300.5q0 -177 111.5 -276t311.5 -99q117 0 206 39.5t136 107.5h88q-31 -63 -104 -119
t-163 -81q-69 -19 -164 -19q-233 0 -363.5 118.5t-130.5 320.5q0 204 127 350q132 151 356 151q186 0 302 -110.5t116 -263.5q0 -147 -92 -252t-199 -105q-55 0 -74 20.5t-23 60.5q-70 -81 -148 -81q-76 0 -127.5 62t-51.5 159q0 114 77.5 211.5t176.5 97.5zM332 212
q0 -64 30.5 -102.5t77.5 -38.5q62 0 118.5 73t56.5 171q0 66 -31.5 104t-82.5 38q-70 0 -119.5 -79t-49.5 -166z" />
    <glyph glyph-name="A" unicode="A" horiz-adv-x="667" 
d="M100 0h-101l275 716h102l293 -716h-108l-84 218h-299zM284 504l-78 -210h242l-77 207q-33 87 -48 140q-13 -67 -39 -137z" />
    <glyph glyph-name="B" unicode="B" horiz-adv-x="667" 
d="M347 0h-273v716h268q82 0 129 -20q49 -21 79.5 -65t30.5 -92q0 -107 -101 -158q65 -19 99.5 -65t34.5 -112q0 -59 -30 -106.5t-82 -72.5q-54 -25 -155 -25zM169 331v-247h178q53 0 76 6q44 11 68.5 41.5t24.5 75.5q0 47 -27.5 78.5t-75.5 40.5q-27 5 -79 5h-165zM169 632
v-217h155q35 0 60.5 3.5t50.5 14t38.5 33t13.5 56.5q0 37 -13.5 60.5t-41 33.5t-53.5 13t-67 3h-143z" />
    <glyph glyph-name="C" unicode="C" horiz-adv-x="722" 
d="M672 519l-94 -22q-48 150 -191 150q-113 0 -175.5 -75t-62.5 -209q0 -142 61.5 -218t171.5 -76q78 0 133 46t74 136l95 -24q-30 -115 -107.5 -177t-190.5 -62q-160 0 -244 98q-91 106 -91 277q0 167 93 266t245 99q107 0 181 -54.5t102 -154.5z" />
    <glyph glyph-name="D" unicode="D" horiz-adv-x="722" 
d="M338 0h-258v716h247q77 0 126.5 -9.5t95.5 -44.5q123 -93 123 -299q0 -141 -57 -233t-159 -118q-47 -12 -118 -12zM175 632v-548h152q69 0 111 12.5t73 48.5q63 72 63 219q0 153 -76 222q-33 30 -71.5 38t-101.5 8h-150z" />
    <glyph glyph-name="E" unicode="E" horiz-adv-x="667" 
d="M613 0h-534v716h518v-84h-423v-220h396v-84h-396v-244h439v-84z" />
    <glyph glyph-name="F" unicode="F" horiz-adv-x="611" 
d="M175 0h-95v716h483v-84h-388v-222h336v-84h-336v-326z" />
    <glyph glyph-name="G" unicode="G" horiz-adv-x="778" 
d="M623 281h-212v84h303v-265q-141 -112 -297 -112q-164 0 -264.5 100.5t-100.5 266.5q0 167 96 270t263 103q238 0 292 -212l-85 -24q-21 73 -59 106q-57 49 -146 49q-126 0 -194.5 -77t-68.5 -210q0 -138 71.5 -212.5t203.5 -74.5q48 0 107.5 23t90.5 51v134z" />
    <glyph glyph-name="H" unicode="H" horiz-adv-x="722" 
d="M175 0h-95v716h95v-294h372v294h95v-716h-95v338h-372v-338z" />
    <glyph glyph-name="I" unicode="I" horiz-adv-x="278" 
d="M187 0h-95v716h95v-716z" />
    <glyph glyph-name="J" unicode="J" horiz-adv-x="500" 
d="M26 191v12l85 12q3 -72 27 -107t83 -35q47 0 75 29q20 20 24.5 46t4.5 75v493h95v-488q0 -69 -12.5 -112.5t-45.5 -75.5q-55 -52 -144 -52q-94 0 -143 54.5t-49 148.5z" />
    <glyph glyph-name="K" unicode="K" horiz-adv-x="667" 
d="M168 0h-95v716h95v-355l355 355h129l-301 -290l314 -426h-125l-255 362l-117 -114v-248z" />
    <glyph glyph-name="L" unicode="L" 
d="M523 0h-448v716h95v-632h353v-84z" />
    <glyph glyph-name="M" unicode="M" horiz-adv-x="833" 
d="M167 0h-91v716h143l169 -507q8 -24 34 -106q17 56 38 115l172 498h127v-716h-91v599l-208 -599h-86l-207 609v-609z" />
    <glyph glyph-name="N" unicode="N" horiz-adv-x="722" 
d="M170 0h-91v716h97l376 -562v562h91v-716h-97l-376 562v-562z" />
    <glyph glyph-name="O" unicode="O" horiz-adv-x="778" 
d="M47 349q0 173 94 276t236 103q163 0 259 -101.5t96 -269.5q0 -166 -96.5 -267.5t-241.5 -101.5q-156 0 -251.5 104t-95.5 257zM145 347q0 -125 68 -201.5t176 -76.5q111 0 178 77t67 211q0 135 -68 212.5t-172 77.5q-117 0 -183 -77.5t-66 -222.5z" />
    <glyph glyph-name="P" unicode="P" horiz-adv-x="667" 
d="M172 0h-95v716h270q77 0 122 -8.5t84 -40.5q70 -58 70 -152q0 -97 -56 -156q-37 -39 -86 -53t-126 -14h-183v-292zM172 632v-256h185q86 0 127 32t41 105q0 51 -38 87q-24 22 -51.5 27t-80.5 5h-183z" />
    <glyph glyph-name="Q" unicode="Q" horiz-adv-x="778" 
d="M745 10l-28 -66q-78 28 -153 88q-80 -44 -170 -44q-156 0 -251.5 103t-95.5 267t94 267t236 103q163 0 259 -101t96 -256q0 -189 -108 -294q67 -47 121 -67zM392 129l23 69q82 -23 135 -68q84 75 84 242q0 121 -68 198t-175 77q-112 0 -179 -77t-67 -212
q0 -136 67.5 -212.5t176.5 -76.5q49 0 97 19q-48 31 -94 41z" />
    <glyph glyph-name="R" unicode="R" horiz-adv-x="722" 
d="M175 0h-95v716h317q68 0 109.5 -8t76.5 -36q70 -56 70 -152q0 -80 -51.5 -130t-150.5 -64q73 -34 135 -131l125 -195h-119l-95 149q-69 108 -106.5 138t-106.5 30h-109v-317zM175 637v-236h204q79 0 114 18q62 32 62 101q0 54 -38.5 85.5t-115.5 31.5h-226z" />
    <glyph glyph-name="S" unicode="S" horiz-adv-x="667" 
d="M593 514l-91 -6q-8 69 -49.5 102t-124.5 33q-77 0 -120.5 -28.5t-43.5 -77.5q0 -66 69 -86q104 -31 202 -53q81 -19 130 -71t49 -125q0 -90 -71.5 -152t-193.5 -62q-144 0 -223 66t-81 176l90 8q5 -41 17.5 -68t40.5 -50q59 -47 153 -47q83 0 130.5 34t47.5 92
q0 80 -128 110q-111 27 -175 46q-67 19 -107 66t-40 110q0 87 67.5 142t182.5 55q123 0 193.5 -57t75.5 -157z" />
    <glyph glyph-name="T" unicode="T" horiz-adv-x="611" 
d="M353 0h-95v632h-236v84h568v-84h-237v-632z" />
    <glyph glyph-name="U" unicode="U" horiz-adv-x="722" 
d="M547 303v413h95v-413q0 -96 -17 -154t-69 -101q-71 -60 -195 -60q-125 0 -197 60q-52 43 -68.5 100.5t-16.5 154.5v413h95v-413q0 -72 9.5 -112.5t38.5 -69.5q48 -48 134 -48q96 0 144 48q30 30 38.5 69.5t8.5 112.5z" />
    <glyph glyph-name="V" unicode="V" horiz-adv-x="667" 
d="M381 0h-98l-277 716h103l186 -520q22 -59 37 -117q16 57 39 117l193 520h97z" />
    <glyph glyph-name="W" unicode="W" horiz-adv-x="944" 
d="M299 0h-97l-190 716h97l109 -470q0 -1 0.5 -2.5t0.5 -2.5q17 -72 30 -141q2 9 13.5 58.5t18.5 74.5l136 483h114l103 -362q38 -134 56 -254q16 78 35 156l112 460h95l-196 -716h-91l-153 550q-14 46 -21 80q-6 -28 -21 -85z" />
    <glyph glyph-name="X" unicode="X" horiz-adv-x="667" 
d="M119 0h-114l277 373l-244 343h112l131 -184q38 -53 57 -88q21 35 57 82l144 190h103l-252 -337l271 -379h-117l-180 255q-12 17 -31 48q-12 -21 -35 -53z" />
    <glyph glyph-name="Y" unicode="Y" horiz-adv-x="667" 
d="M376 0h-95v303l-276 413h116q14 -22 43.5 -69t53 -83t46.5 -68q35 -53 70 -117q28 49 79 127l138 210h110l-285 -413v-303z" />
    <glyph glyph-name="Z" unicode="Z" horiz-adv-x="611" 
d="M584 0h-566v88l367 458q45 55 74 86h-400v84h513v-84l-402 -497q-7 -8 -21.5 -25.5t-21.5 -25.5h457v-84z" />
    <glyph glyph-name="bracketleft" unicode="[" horiz-adv-x="278" 
d="M262 -199h-194v915h194v-73h-106v-769h106v-73z" />
    <glyph glyph-name="backslash" unicode="\" horiz-adv-x="278" 
d="M278 -12h-71l-207 740h71z" />
    <glyph glyph-name="bracketright" unicode="]" horiz-adv-x="278" 
d="M210 716v-915h-194v73h106v769h-106v73h194z" />
    <glyph glyph-name="asciicircum" unicode="^" horiz-adv-x="469" 
d="M233 629l-117 -292h-90l173 391h70l174 -391h-89z" />
    <glyph glyph-name="underscore" unicode="_" 
d="M562 -75v-50h-568v50h568z" />
    <glyph glyph-name="grave" unicode="`" horiz-adv-x="333" 
d="M160 720l66 -137h-71l-113 137h118z" />
    <glyph glyph-name="a" unicode="a" 
d="M203 294q13 2 51.5 7t56 7.5t44 8t45.5 12.5v16q0 55 -25.5 84t-100.5 29q-69 0 -95.5 -24.5t-39.5 -74.5l-86 11q17 81 73 120.5t158 39.5q127 0 174 -58q14 -17 21 -40t8 -40t1 -52v-183q0 -107 28 -157h-92q-14 29 -18 64q-89 -76 -188 -76q-84 0 -132 41t-48 108
q0 62 43.5 104t121.5 53zM400 228v32q-42 -17 -117.5 -27.5t-113 -28.5t-37.5 -65q0 -38 28 -60t81 -22q73 0 120 49q39 41 39 122z" />
    <glyph glyph-name="b" unicode="b" 
d="M67 0v716h88v-256q55 70 142 70q98 0 159 -71.5t61 -187.5q0 -133 -64.5 -207.5t-160.5 -74.5q-91 0 -143 76v-65h-82zM148 263q0 -92 27 -137q39 -65 110 -65q65 0 103.5 53.5t38.5 155.5q0 84 -37.5 136t-100.5 52q-62 0 -101.5 -54t-39.5 -141z" />
    <glyph glyph-name="c" unicode="c" horiz-adv-x="500" 
d="M482 366l-85 -13q-24 105 -118 105q-71 0 -110.5 -50.5t-39.5 -145.5q0 -98 37.5 -149.5t107.5 -51.5q111 0 130 129l87 -11q-14 -91 -73 -140.5t-144 -49.5q-110 0 -172.5 72.5t-62.5 204.5q0 123 65 193.5t180 70.5q73 0 127.5 -41t70.5 -123z" />
    <glyph glyph-name="d" unicode="d" 
d="M404 0v66q-49 -77 -144 -77q-97 0 -160.5 75t-63.5 198t60.5 195.5t162.5 72.5q88 0 139 -71v257h88v-716h-82zM126 259q0 -95 40.5 -146.5t101.5 -51.5t99.5 49.5t38.5 140.5q0 97 -38 152t-103 55q-66 0 -102.5 -52t-36.5 -147z" />
    <glyph glyph-name="e" unicode="e" 
d="M517 237h-387q4 -83 47 -129.5t110 -46.5q99 0 136 106l91 -11q-21 -79 -79.5 -123t-143.5 -44q-120 0 -186 70.5t-66 195.5q0 126 65.5 200.5t176.5 74.5q106 0 171 -72t65 -198v-23zM135 310h289q-5 46 -13 65q-16 38 -51 60.5t-78 22.5q-62 0 -102 -41.5t-45 -106.5z
" />
    <glyph glyph-name="f" unicode="f" horiz-adv-x="278" 
d="M174 452v-452h-88v452h-78v66h78v56q0 78 32.5 116t112.5 38q35 0 80 -9l-13 -77q-26 5 -53 5q-43 0 -57 -19.5t-14 -60.5v-49h100v-66h-100z" />
    <glyph glyph-name="g" unicode="g" 
d="M410 456v62h81v-448q0 -99 -17 -150q-22 -62 -78 -96t-139 -34q-97 0 -151.5 44t-54.5 109q0 3 0.5 7t0.5 7l85 -13q12 -82 124 -82q83 0 119 55q22 35 22 125v26q-57 -68 -142 -68q-101 0 -163.5 73.5t-62.5 189.5q0 120 62 193.5t164 73.5q90 0 150 -74zM124 269
q0 -96 39 -146.5t106 -50.5q65 0 105 56q35 48 35 136q0 92 -40 143t-104 51q-62 0 -101.5 -51t-39.5 -138z" />
    <glyph glyph-name="h" unicode="h" 
d="M155 0h-88v716h88v-257q61 71 156 71q73 0 123 -39q32 -26 44 -63.5t12 -99.5v-328h-88v328q0 126 -111 126q-36 0 -67 -17t-48 -45q-21 -34 -21 -108v-284z" />
    <glyph glyph-name="i" unicode="i" horiz-adv-x="222" 
d="M155 0h-88v518h88v-518zM155 616h-88v100h88v-100z" />
    <glyph glyph-name="j" unicode="j" horiz-adv-x="222" 
d="M154 518v-546q0 -90 -27 -136t-100 -46q-40 0 -72 9l17 74q31 -7 42 -7q31 0 41.5 24t10.5 84v544h88zM154 716v-100h-88v100h88z" />
    <glyph glyph-name="k" unicode="k" horiz-adv-x="500" 
d="M154 0h-88v716h88v-408l208 210h114l-199 -192l219 -326h-109l-171 265l-62 -59v-206z" />
    <glyph glyph-name="l" unicode="l" horiz-adv-x="222" 
d="M155 716v-716h-88v716h88z" />
    <glyph glyph-name="m" unicode="m" horiz-adv-x="833" 
d="M461 301v-301h-88v337q0 58 -21.5 87.5t-70.5 29.5q-34 0 -62.5 -16t-44.5 -44q-21 -36 -21 -125v-269h-88v518h79v-72q54 84 158 84q113 0 145 -91q62 91 160 91q78 0 120 -44t42 -131v-355h-88v327q0 38 -5.5 63t-27 44.5t-61.5 19.5q-56 0 -91 -38t-35 -115z" />
    <glyph glyph-name="n" unicode="n" 
d="M147 518v-73q58 85 165 85q52 0 93 -20.5t62 -55.5q23 -40 23 -135v-319h-88v315q0 139 -109 139q-38 0 -70.5 -17.5t-48.5 -47.5q-18 -34 -18 -106v-283h-88v518h79z" />
    <glyph glyph-name="o" unicode="o" 
d="M35 259q0 129 67 200t176 71q120 0 189 -87q54 -69 54 -184q0 -130 -67 -200t-176 -70q-121 0 -189 86q-54 69 -54 184zM125 259q0 -94 41.5 -146t111.5 -52q69 0 111 52t42 146t-41.5 146.5t-111.5 52.5q-69 0 -111 -52t-42 -147z" />
    <glyph glyph-name="p" unicode="p" 
d="M148 518v-67q56 79 149 79q100 0 160.5 -72.5t60.5 -190.5q0 -128 -64.5 -203t-161.5 -75q-84 0 -136 65v-253h-88v717h80zM147 256q0 -94 38.5 -144.5t100.5 -50.5t102 52t40 150q0 93 -38 145.5t-100 52.5t-102.5 -56t-40.5 -149z" />
    <glyph glyph-name="q" unicode="q" 
d="M408 449v69h79v-717h-87v254q-22 -30 -58.5 -48t-77.5 -18q-96 0 -161 75.5t-65 199.5q0 121 60.5 193.5t159.5 72.5q94 0 150 -81zM128 261q0 -95 40 -147.5t103 -52.5q60 0 98.5 50t38.5 142q0 95 -39.5 151.5t-103.5 56.5q-62 0 -99.5 -52.5t-37.5 -147.5z" />
    <glyph glyph-name="r" unicode="r" horiz-adv-x="333" 
d="M143 518v-78q25 45 49.5 67.5t64.5 22.5q45 0 89 -28l-30 -81q-32 19 -67 19q-46 0 -71.5 -42.5t-25.5 -125.5v-272h-88v518h79z" />
    <glyph glyph-name="s" unicode="s" horiz-adv-x="500" 
d="M442 385l-86 -12q-12 85 -113 85q-53 0 -82.5 -18t-29.5 -50q0 -30 34 -47.5t82.5 -28t97.5 -24.5t83 -48.5t34 -88.5q0 -69 -56 -116.5t-146 -47.5q-103 0 -158.5 40t-70.5 126l87 13q15 -107 134 -107q57 0 88.5 23.5t31.5 58.5q0 27 -24 44t-60.5 25t-78.5 20
t-78.5 26t-60.5 45.5t-24 77.5q0 65 51.5 107t140.5 42q101 0 156 -48q38 -33 48 -97z" />
    <glyph glyph-name="t" unicode="t" horiz-adv-x="278" 
d="M169 452v-310q0 -22 1 -31.5t5 -21.5t14.5 -16t28.5 -4q2 0 39 5l13 -78q-36 -8 -65 -8q-36 0 -61 10t-37 22t-18.5 38t-7 41t-0.5 48v305h-64v66h64v129l88 53v-182h88v-66h-88z" />
    <glyph glyph-name="u" unicode="u" 
d="M399 241v277h88v-518h-79v76q-61 -88 -165 -88q-51 0 -91.5 20.5t-61.5 55.5q-24 39 -24 133v321h88v-328q0 -126 113 -126q53 0 93 40q24 24 31.5 55t7.5 82z" />
    <glyph glyph-name="v" unicode="v" horiz-adv-x="500" 
d="M293 0h-83l-197 518h93l111 -310q12 -35 34 -105q14 50 32 99l115 316h91z" />
    <glyph glyph-name="w" unicode="w" horiz-adv-x="722" 
d="M256 0h-92l-159 518h91l82 -299q4 -13 8.5 -30.5t11.5 -41.5t11 -39q8 37 27 107l82 303h91l77 -300q1 -3 11 -39.5t15 -59.5q7 26 30 100l89 299h86l-163 -518h-91l-83 311q-6 21 -12.5 53.5t-7.5 34.5z" />
    <glyph glyph-name="x" unicode="x" horiz-adv-x="500" 
d="M113 0h-106l189 270l-175 248h110l80 -121q17 -26 36 -58q15 24 39 57l88 122h105l-179 -243l193 -275h-108l-107 161q-3 4 -12.5 20t-15.5 24z" />
    <glyph glyph-name="y" unicode="y" horiz-adv-x="500" 
d="M491 518l-197 -527q-15 -40 -22 -57.5t-20.5 -46.5t-24.5 -42t-27.5 -28.5t-36.5 -21t-44 -5.5q-29 0 -57 10l-10 83q35 -8 52 -8q18 0 32 5t22.5 9.5t17.5 20t12 22.5t12 32.5t13 34.5l-197 519h95l108 -300q19 -53 37 -120q17 64 37 119l110 301h88z" />
    <glyph glyph-name="z" unicode="z" horiz-adv-x="500" 
d="M479 0h-459v71l330 379q-78 -5 -99 -5h-211v73h424v-57l-281 -329q-11 -13 -30.5 -34t-24.5 -27q62 5 111 5h240v-76z" />
    <glyph glyph-name="braceleft" unicode="{" horiz-adv-x="334" 
d="M28 219v80q28 1 47.5 11.5t30.5 26t16 44.5t6.5 55t1.5 70q0 95 14 142t59 68q25 12 81 12h27v-76h-15q-51 0 -67.5 -18.5t-16.5 -82.5v-72q0 -100 -22 -146t-81 -74q60 -25 81.5 -76t21.5 -145v-71q0 -64 16.5 -82.5t67.5 -18.5h15v-76h-27q-82 0 -118 41t-36 136
q0 135 -8 173q-16 68 -75 77q-9 2 -19 2z" />
    <glyph glyph-name="bar" unicode="|" horiz-adv-x="260" 
d="M169 -210h-77v938h77v-938z" />
    <glyph glyph-name="braceright" unicode="}" horiz-adv-x="334" 
d="M24 728h27q82 0 118 -41t36 -137v-23q0 -128 14 -167q20 -59 88 -61v-80q-28 -1 -47.5 -11.5t-30.5 -26t-16 -45t-6.5 -55t-1.5 -70.5q0 -95 -14 -142t-59 -67q-26 -12 -81 -12h-27v76h15q51 0 67.5 19t16.5 82v71q0 95 21 145.5t81 75.5q-59 28 -80.5 74t-21.5 146v72
q0 63 -16.5 82t-67.5 19h-15v76z" />
    <glyph glyph-name="asciitilde" unicode="~" horiz-adv-x="584" 
d="M170 338q-37 0 -65 -16.5t-62 -49.5v100q53 59 136 59q52 0 130 -33t108 -33q64 0 126 67v-103q-59 -56 -133 -56q-54 0 -128 32.5t-112 32.5z" />
    <glyph glyph-name="uni00A0" unicode="&#xa0;" horiz-adv-x="278" 
 />
    <glyph glyph-name="exclamdown" unicode="&#xa1;" horiz-adv-x="278" 
d="M90 518h100v-100h-100v100zM110 341h57l27 -380v-158h-109v158z" />
    <glyph glyph-name="cent" unicode="&#xa2;" 
d="M498 366l-85 -13q-13 54 -47 83l-108 -374q15 -4 32 -4q50 0 85 37.5t45 94.5l88 -10q-16 -92 -76.5 -142.5t-131.5 -50.5q-35 0 -61 6l-58 -193l-55 16l57 194q-61 30 -94.5 94t-33.5 153q0 131 64.5 202t180.5 71q4 0 34 -3l55 189l54 -16l-55 -189q90 -39 110 -145z
M206 86l108 373q-16 2 -24 2q-65 0 -105 -53.5t-40 -148.5q0 -127 61 -173z" />
    <glyph glyph-name="sterling" unicode="&#xa3;" 
d="M119 323h-96v73h75q-24 81 -24 136q0 82 62 139t162 57q85 0 142.5 -48t71.5 -137l-88 -13q-7 58 -43.5 92t-87.5 34q-54 0 -89.5 -35t-35.5 -88t27 -137h154v-73h-139q8 -18 8 -57q0 -83 -85 -173q41 11 79 11q36 0 96 -16t94 -16q44 0 100 27l28 -81q-73 -30 -124 -30
q-28 0 -99 22t-125 22q-23 0 -61 -12t-72 -34l-34 85q51 28 82 77t31 114q0 29 -9 61z" />
    <glyph glyph-name="currency" unicode="&#xa4;" 
d="M54 469l-68 67l56 58l68 -68q52 35 116 35t116 -35l68 68l56 -58l-68 -67q35 -54 35 -115q0 -60 -35 -115l68 -66l-56 -58l-68 68q-52 -35 -116 -35t-116 35l-68 -68l-56 58l68 66q-35 55 -35 115q0 61 35 115zM226 481q-53 0 -90 -37t-37 -89q0 -53 37.5 -90t89.5 -37
t89.5 37t37.5 90t-38.5 89.5t-88.5 36.5z" />
    <glyph glyph-name="yen" unicode="&#xa5;" 
d="M323 0h-88v160h-202v66h202v70h-202v73h166l-198 347h98l141 -252q25 -45 37 -75q2 4 41 79l133 248h105l-198 -347h166v-73h-201v-70h201v-66h-201v-160z" />
    <glyph glyph-name="brokenbar" unicode="&#xa6;" horiz-adv-x="260" 
d="M92 728h77v-386h-77v386zM92 176h77v-386h-77v386z" />
    <glyph glyph-name="section" unicode="&#xa7;" 
d="M480 -50q0 -68 -54 -113.5t-140 -45.5q-91 0 -147 45.5t-67 129.5l89 12q13 -59 41.5 -87t84.5 -28q47 0 75 25.5t28 60.5q0 48 -90 106q-117 74 -182 120q-33 23 -54.5 62t-21.5 79q0 45 29 83.5t81 53.5q-63 60 -63 119q0 65 49 110.5t129 45.5q181 0 204 -169l-91 -10
q-9 53 -32.5 80t-72.5 27q-43 0 -71.5 -23.5t-28.5 -55.5q0 -48 89 -104q20 -12 56.5 -35t51.5 -32.5t41.5 -27.5t36.5 -27.5t26 -26t21.5 -30t10.5 -31t5 -37.5q0 -56 -29.5 -86.5t-81.5 -52.5q78 -60 78 -137zM358 119q72 37 72 91q0 24 -17.5 49t-42.5 42
q-171 114 -175 118q-73 -41 -73 -93q0 -23 12 -45.5t30 -34.5q58 -40 122.5 -81t71.5 -46z" />
    <glyph glyph-name="dieresis" unicode="&#xa8;" horiz-adv-x="333" 
d="M122 620h-91v100h91v-100zM304 620h-91v100h91v-100z" />
    <glyph glyph-name="copyright" unicode="&#xa9;" horiz-adv-x="737" 
d="M539 451l-58 -14q-30 75 -114 75q-55 0 -90 -42.5t-35 -113.5q0 -70 34 -110t93 -40q39 0 73 24t45 70l60 -18q-15 -63 -63 -98t-114 -35q-89 0 -141.5 56.5t-52.5 159.5q0 89 52.5 145t144.5 56q63 0 106 -30t60 -85zM369 728q153 0 260.5 -108t107.5 -260
q0 -153 -107.5 -261t-260.5 -108q-152 0 -260.5 108t-108.5 261t108 260.5t261 107.5zM369 667q-127 0 -217.5 -90t-90.5 -217t90.5 -217.5t217.5 -90.5t217 90.5t90 217.5t-90 217t-217 90z" />
    <glyph glyph-name="ordfeminine" unicode="&#xaa;" horiz-adv-x="370" 
d="M348 373h-72q-11 22 -11 43q-61 -53 -124 -53q-53 0 -86.5 29t-33.5 79q0 33 13 54.5t39.5 32t52 15t66 10.5t66.5 13q0 17 -1.5 27t-8.5 23t-24 19t-44 6q-71 0 -80 -61l-67 17q6 44 44.5 72.5t104.5 28.5q75 0 110.5 -28.5t35.5 -89.5v-146q0 -67 20 -91zM257 539
q-22 -6 -49.5 -10.5t-45.5 -7.5t-35.5 -8t-25.5 -15t-8 -27q0 -21 17.5 -34t46.5 -13q32 0 59 17t37 45q4 11 4 53z" />
    <glyph glyph-name="guillemotleft" unicode="&#xab;" 
d="M297 481l-128 -223l127 -223h-71l-156 223l156 223h72zM487 481l-129 -223l129 -223h-74l-153 223l153 223h74z" />
    <glyph glyph-name="logicalnot" unicode="&#xac;" horiz-adv-x="584" 
d="M528 504v-297h-83v213h-390v84h473z" />
    <glyph glyph-name="uni00AD" unicode="&#xad;" horiz-adv-x="333" 
d="M302 215h-270v88h270v-88z" />
    <glyph glyph-name="registered" unicode="&#xae;" horiz-adv-x="737" 
d="M271 156h-64v396h136q79 0 108 -13q28 -13 45 -38t17 -53q0 -47 -30.5 -79t-82.5 -36q25 -10 44 -32t48 -68l48 -77h-78l-35 62q-37 64 -58.5 85t-59.5 21h-38v-168zM271 498v-119h78q96 0 96 60q0 36 -27 47.5t-74 11.5h-73zM369 728q153 0 260.5 -108t107.5 -260
q0 -153 -107.5 -261t-260.5 -108q-152 0 -260.5 108t-108.5 261t108 260.5t261 107.5zM369 667q-127 0 -217.5 -90t-90.5 -217t90.5 -217.5t217.5 -90.5t217 90.5t90 217.5t-90 217t-217 90z" />
    <glyph glyph-name="macron" unicode="&#xaf;" horiz-adv-x="333" 
d="M319 599h-305v73h305v-73z" />
    <glyph glyph-name="degree" unicode="&#xb0;" horiz-adv-x="400" 
d="M65 593q0 56 39.5 95.5t96.5 39.5q56 0 95.5 -39.5t39.5 -95.5t-39.5 -96t-95.5 -40t-96 40t-40 96zM118 593q0 -34 24.5 -58.5t58.5 -24.5t58 24.5t24 58.5q0 35 -23.5 58.5t-58.5 23.5q-34 0 -58.5 -24t-24.5 -58z" />
    <glyph glyph-name="plusminus" unicode="&#xb1;" horiz-adv-x="584" 
d="M333 127h-83v197h-195v81h195v195h83v-195h195v-81h-195v-197zM528 84v-84h-473v84h473z" />
    <glyph glyph-name="two.superior" unicode="&#xb2;" horiz-adv-x="333" 
d="M316 361h-304q5 42 46 82.5t143 114.5q37 26 37 58q0 25 -18.5 40t-51.5 15q-34 0 -48.5 -14t-23.5 -42l-74 7q14 54 49 80t103 26q66 0 103 -27.5t37 -74.5q0 -43 -30.5 -77.5t-83.5 -71.5t-72 -57h188v-59z" />
    <glyph glyph-name="three.superior" unicode="&#xb3;" horiz-adv-x="333" 
d="M316 465q0 -49 -41 -81.5t-110 -32.5q-128 0 -149 105l72 7q18 -55 75 -55q33 0 55 18.5t22 46.5q0 55 -79 55q-4 0 -13.5 -0.5t-12.5 -0.5l11 53h5q31 0 51 13.5t20 39.5q0 17 -15.5 29t-44.5 12q-49 0 -68 -50l-70 11q20 50 50 71.5t89 21.5q66 0 100.5 -24.5
t34.5 -67.5q0 -27 -17.5 -48t-49.5 -30q85 -21 85 -93z" />
    <glyph glyph-name="acute" unicode="&#xb4;" horiz-adv-x="333" 
d="M184 583h-73l65 137h115z" />
    <glyph glyph-name="mu" unicode="&#xb5;" horiz-adv-x="553" 
d="M154 50v-249h-88v717h88v-309q0 -72 23.5 -108.5t83.5 -36.5q22 0 44 7t44 23.5t36 49.5t14 79v295h88v-518h-79v76h-2q-65 -88 -138 -88q-35 0 -66.5 18t-47.5 44z" />
    <glyph glyph-name="paragraph" unicode="&#xb6;" horiz-adv-x="537" 
d="M277 -199h-80v511q-92 4 -145 58.5t-53 142.5q0 91 59.5 147t171.5 56h309v-84h-70v-831h-83v831h-109v-831z" />
    <glyph glyph-name="periodcentered" unicode="&#xb7;" horiz-adv-x="278" 
d="M189 302h-100v100h100v-100z" />
    <glyph glyph-name="cedilla" unicode="&#xb8;" horiz-adv-x="333" 
d="M52 -200l5 57q13 -1 46 -1q79 0 79 36q0 33 -77 33l25 86h66l-16 -52q41 -5 62 -25t21 -48q0 -39 -38 -65t-98 -26q-51 0 -75 5z" />
    <glyph glyph-name="one.superior" unicode="&#xb9;" horiz-adv-x="333" 
d="M232 361h-70v271q-50 -40 -110 -56v61q31 10 67.5 35.5t60.5 55.5h52v-367z" />
    <glyph glyph-name="ordmasculine" unicode="&#xba;" horiz-adv-x="365" 
d="M181 728q74 0 117.5 -51t43.5 -132t-43 -132.5t-117 -51.5q-73 0 -116.5 50t-43.5 133q0 82 42.5 133t116.5 51zM181 663q-87 0 -87 -119q0 -57 22.5 -87.5t64.5 -30.5t65.5 31t23.5 89q0 57 -24 87t-65 30z" />
    <glyph glyph-name="guillemotright" unicode="&#xbb;" 
d="M260 35l127 223l-128 223h73l155 -223l-155 -223h-72zM69 35l129 223l-129 223h74l153 -223l-153 -223h-74z" />
    <glyph glyph-name="onequarter" unicode="&#xbc;" horiz-adv-x="834" 
d="M242 352h-70v271q-50 -40 -110 -56v61q31 10 67.5 35.5t60.5 55.5h52v-367zM596 126h112v128zM779 -2h-71v75h-187v60l197 232h61v-239h50v-53h-50v-75zM209 -12h-77l521 731h77z" />
    <glyph glyph-name="onehalf" unicode="&#xbd;" horiz-adv-x="834" 
d="M242 352h-70v271q-50 -40 -110 -56v61q31 10 67.5 35.5t60.5 55.5h52v-367zM826 -2h-304q5 42 46 82.5t143 114.5q37 26 37 58q0 25 -18.5 40t-51.5 15q-34 0 -48.5 -14t-23.5 -42l-74 7q14 54 49 80t103 26q66 0 103 -27.5t37 -74.5q0 -43 -30.5 -77.5t-83.5 -71.5
t-72 -57h188v-59zM209 -12h-77l521 731h77z" />
    <glyph glyph-name="threequarters" unicode="&#xbe;" horiz-adv-x="834" 
d="M326 457q0 -49 -41 -81.5t-110 -32.5q-128 0 -149 105l72 7q18 -55 75 -55q33 0 55 18.5t22 46.5q0 54 -79 54q-1 0 -11 -0.5t-15 -0.5l11 53h5q31 0 51 13.5t20 39.5q0 17 -15.5 29t-44.5 12q-49 0 -68 -50l-70 11q20 50 50 71.5t89 21.5q66 0 100.5 -24.5t34.5 -67.5
q0 -27 -17.5 -48t-49.5 -30q85 -21 85 -92zM778 -2h-70v75h-187v60l198 231h59v-238h51v-53h-51v-75zM596 126h112v128zM219 -12h-77l521 731h77z" />
    <glyph glyph-name="questiondown" unicode="&#xbf;" horiz-adv-x="611" 
d="M256 518h100v-100h-100v100zM266 342h84v-18q0 -59 -16 -101.5t-58 -80.5q-73 -65 -89 -86q-22 -29 -22 -66q0 -50 40 -88.5t101 -38.5q56 0 92.5 36.5t47.5 107.5l91 -10q-12 -98 -72.5 -152t-159.5 -54q-101 0 -165.5 55.5t-64.5 139.5q0 18 3.5 34t6.5 28t14 28
t15.5 23.5t22 25.5t23 23t28.5 26t29 26q31 28 39.5 59.5t9.5 82.5z" />
    <glyph glyph-name="Agrave" unicode="&#xc0;" horiz-adv-x="667" 
d="M100 0h-101l275 716h102l293 -716h-108l-84 218h-299zM284 504l-78 -210h242l-74 198q-33 89 -51 149q-13 -67 -39 -137zM307 901l66 -137h-71l-96 137h101z" />
    <glyph glyph-name="Aacute" unicode="&#xc1;" horiz-adv-x="667" 
d="M100 0h-101l275 716h102l293 -716h-108l-84 218h-299zM284 504l-78 -210h242l-74 198q-33 89 -51 149q-13 -67 -39 -137zM350 764h-73l65 137h115z" />
    <glyph glyph-name="Acircumflex" unicode="&#xc2;" horiz-adv-x="667" 
d="M100 0h-101l275 716h102l293 -716h-108l-84 218h-299zM284 504l-78 -210h242l-74 198q-33 89 -51 149q-13 -67 -39 -137zM379 764l-53 83l-56 -83h-100l106 137h93l110 -137h-100z" />
    <glyph glyph-name="Atilde" unicode="&#xc3;" horiz-adv-x="667" 
d="M100 0h-101l275 716h102l293 -716h-108l-84 218h-299zM284 504l-78 -210h242l-74 198q-33 89 -51 149q-13 -67 -39 -137zM263 823q-15 0 -25.5 -11.5t-10.5 -29.5v-6h-65v10q0 41 27.5 71.5t72.5 30.5q27 0 69.5 -20.5t58.5 -20.5q17 0 24.5 9.5t10.5 32.5h64
q-2 -55 -28 -83t-66 -28q-32 0 -74 22.5t-58 22.5z" />
    <glyph glyph-name="Adieresis" unicode="&#xc4;" horiz-adv-x="667" 
d="M100 0h-101l275 716h102l293 -716h-108l-84 218h-299zM284 504l-78 -210h242l-74 198q-33 89 -51 149q-13 -67 -39 -137zM280 801h-91v100h91v-100zM462 801h-91v100h91v-100z" />
    <glyph glyph-name="Aring" unicode="&#xc5;" horiz-adv-x="667" 
d="M100 0h-101l275 716h102l293 -716h-108l-84 218h-299zM284 504l-78 -210h242l-74 198q-33 89 -51 149q-13 -67 -39 -137zM237 834q0 35 25.5 61.5t63.5 26.5q35 0 61 -26.5t26 -63.5t-25.5 -63t-62.5 -26t-62.5 26t-25.5 65zM274 834q0 -23 15.5 -38.5t36.5 -15.5
q22 0 36.5 15.5t14.5 37.5t-14.5 37.5t-36.5 15.5t-37 -15.5t-15 -36.5z" />
    <glyph glyph-name="AE" unicode="&#xc6;" horiz-adv-x="1000" 
d="M102 0h-102l344 716h588v-84h-360v-221h334v-84h-334v-243h373v-84h-468v207h-277zM406 632l-166 -341h237v341h-71z" />
    <glyph glyph-name="Ccedilla" unicode="&#xc7;" horiz-adv-x="722" 
d="M672 519l-94 -22q-48 150 -191 150q-113 0 -175.5 -75t-62.5 -209q0 -142 61.5 -218t171.5 -76q78 0 133 46t74 136l95 -24q-29 -112 -103.5 -173.5t-181.5 -65.5l-6 -25q39 -5 60.5 -26t21.5 -51q0 -46 -42.5 -71t-124.5 -25q-37 0 -55 1l4 62q17 -2 45 -2q88 0 88 35
t-82 37l25 68q-133 13 -207.5 115.5t-74.5 256.5q0 167 93 266t245 99q107 0 181 -54.5t102 -154.5z" />
    <glyph glyph-name="Egrave" unicode="&#xc8;" horiz-adv-x="667" 
d="M613 0h-534v716h518v-84h-423v-220h396v-84h-396v-244h439v-84zM328 901l66 -137h-71l-113 137h118z" />
    <glyph glyph-name="Eacute" unicode="&#xc9;" horiz-adv-x="667" 
d="M613 0h-534v716h518v-84h-423v-220h396v-84h-396v-244h439v-84zM349 764h-73l65 137h115z" />
    <glyph glyph-name="Ecircumflex" unicode="&#xca;" horiz-adv-x="667" 
d="M613 0h-534v716h518v-84h-423v-220h396v-84h-396v-244h439v-84zM388 764l-53 83l-56 -83h-100l106 137h93l110 -137h-100z" />
    <glyph glyph-name="Edieresis" unicode="&#xcb;" horiz-adv-x="667" 
d="M613 0h-534v716h518v-84h-423v-220h396v-84h-396v-244h439v-84zM289 801h-91v100h91v-100zM471 801h-91v100h91v-100z" />
    <glyph glyph-name="Igrave" unicode="&#xcc;" horiz-adv-x="278" 
d="M186 0h-95v716h95v-716zM133 901l66 -137h-71l-113 137h118z" />
    <glyph glyph-name="Iacute" unicode="&#xcd;" horiz-adv-x="278" 
d="M189 0h-95v716h95v-716zM157 764h-73l65 137h115z" />
    <glyph glyph-name="Icircumflex" unicode="&#xce;" horiz-adv-x="278" 
d="M187 0h-95v716h95v-716zM194 764l-53 83l-56 -83h-100l106 137h93l110 -137h-100z" />
    <glyph glyph-name="Idieresis" unicode="&#xcf;" horiz-adv-x="278" 
d="M187 0h-95v716h95v-716zM95 801h-91v100h91v-100zM277 801h-91v100h91v-100z" />
    <glyph glyph-name="Eth" unicode="&#xd0;" horiz-adv-x="722" 
d="M338 0h-258v325h-79v66h79v325h247q77 0 127 -9.5t95 -44.5q123 -93 123 -298q0 -118 -40 -201.5t-114 -125.5q-31 -18 -66 -26.5t-54.5 -9.5t-59.5 -1zM175 325v-241h152q68 0 110 12.5t73 48.5q64 74 64 225q0 147 -77 216q-33 30 -71 38t-101 8h-150v-241h197v-66
h-197z" />
    <glyph glyph-name="Ntilde" unicode="&#xd1;" horiz-adv-x="722" 
d="M170 0h-91v716h97l376 -562v562h91v-716h-97l-376 562v-562zM298 823q-15 0 -25.5 -11.5t-10.5 -29.5v-6h-65v10q0 41 27.5 71.5t72.5 30.5q27 0 69.5 -20.5t58.5 -20.5q17 0 24.5 9.5t10.5 32.5h64q-2 -55 -28 -83t-66 -28q-32 0 -74 22.5t-58 22.5z" />
    <glyph glyph-name="Ograve" unicode="&#xd2;" horiz-adv-x="778" 
d="M47 349q0 173 94 276t236 103q163 0 259 -101.5t96 -269.5q0 -166 -96.5 -267.5t-241.5 -101.5q-156 0 -251.5 104t-95.5 257zM145 347q0 -125 68 -201.5t176 -76.5q111 0 178 77t67 211q0 135 -68 212.5t-172 77.5q-117 0 -183 -77.5t-66 -222.5zM383 901l66 -137h-71
l-113 137h118z" />
    <glyph glyph-name="Oacute" unicode="&#xd3;" horiz-adv-x="778" 
d="M47 349q0 173 94 276t236 103q163 0 259 -101.5t96 -269.5q0 -166 -96.5 -267.5t-241.5 -101.5q-156 0 -251.5 104t-95.5 257zM145 347q0 -125 68 -201.5t176 -76.5q111 0 178 77t67 211q0 135 -68 212.5t-172 77.5q-117 0 -183 -77.5t-66 -222.5zM404 764h-73l65 137
h115z" />
    <glyph glyph-name="Ocircumflex" unicode="&#xd4;" horiz-adv-x="778" 
d="M47 349q0 173 94 276t236 103q163 0 259 -101.5t96 -269.5q0 -166 -96.5 -267.5t-241.5 -101.5q-156 0 -251.5 104t-95.5 257zM145 347q0 -125 68 -201.5t176 -76.5q111 0 178 77t67 211q0 135 -68 212.5t-172 77.5q-117 0 -183 -77.5t-66 -222.5zM443 764l-53 83
l-56 -83h-100l106 137h93l110 -137h-100z" />
    <glyph glyph-name="Otilde" unicode="&#xd5;" horiz-adv-x="778" 
d="M47 349q0 173 94 276t236 103q163 0 259 -101.5t96 -269.5q0 -166 -96.5 -267.5t-241.5 -101.5q-156 0 -251.5 104t-95.5 257zM145 347q0 -125 68 -201.5t176 -76.5q111 0 178 77t67 211q0 135 -68 212.5t-172 77.5q-117 0 -183 -77.5t-66 -222.5zM326 823
q-15 0 -25.5 -11.5t-10.5 -29.5v-6h-65v10q0 41 27.5 71.5t72.5 30.5q27 0 69.5 -20.5t58.5 -20.5q17 0 24.5 9.5t10.5 32.5h64q-2 -55 -28 -83t-66 -28q-32 0 -74 22.5t-58 22.5z" />
    <glyph glyph-name="Odieresis" unicode="&#xd6;" horiz-adv-x="778" 
d="M47 349q0 173 94 276t236 103q163 0 259 -101.5t96 -269.5q0 -166 -96.5 -267.5t-241.5 -101.5q-156 0 -251.5 104t-95.5 257zM145 347q0 -125 68 -201.5t176 -76.5q111 0 178 77t67 211q0 135 -68 212.5t-172 77.5q-117 0 -183 -77.5t-66 -222.5zM344 801h-91v100h91
v-100zM526 801h-91v100h91v-100z" />
    <glyph glyph-name="multiply" unicode="&#xd7;" horiz-adv-x="584" 
d="M138 141l-59 59l154 154l-153 153l59 60l154 -154l152 153l59 -59l-153 -153l154 -153l-60 -60l-153 154z" />
    <glyph glyph-name="Oslash" unicode="&#xd8;" horiz-adv-x="778" 
d="M49 349q0 173 94 276t236 103q139 0 233 -77l81 91l48 -41l-85 -95q78 -100 78 -249q0 -166 -96.5 -267.5t-241.5 -101.5q-132 0 -223 77l-84 -94l-48 41l87 98q-79 98 -79 239zM147 347q0 -99 43 -168l363 406q-64 62 -157 62q-117 0 -183 -77.5t-66 -222.5zM636 357
q0 106 -44 178l-362 -406q66 -60 161 -60q111 0 178 77t67 211z" />
    <glyph glyph-name="Ugrave" unicode="&#xd9;" horiz-adv-x="722" 
d="M547 303v413h95v-413q0 -96 -17 -154t-69 -101q-71 -60 -195 -60q-125 0 -197 60q-52 43 -68.5 100.5t-16.5 154.5v413h95v-413q0 -72 9.5 -112.5t38.5 -69.5q48 -48 134 -48q96 0 144 48q30 30 38.5 69.5t8.5 112.5zM355 901l66 -137h-71l-113 137h118z" />
    <glyph glyph-name="Uacute" unicode="&#xda;" horiz-adv-x="722" 
d="M547 303v413h95v-413q0 -96 -17 -154t-69 -101q-71 -60 -195 -60q-125 0 -197 60q-52 43 -68.5 100.5t-16.5 154.5v413h95v-413q0 -72 9.5 -112.5t38.5 -69.5q48 -48 134 -48q96 0 144 48q30 30 38.5 69.5t8.5 112.5zM376 764h-73l65 137h115z" />
    <glyph glyph-name="Ucircumflex" unicode="&#xdb;" horiz-adv-x="722" 
d="M547 303v413h95v-413q0 -96 -17 -154t-69 -101q-71 -60 -195 -60q-125 0 -197 60q-52 43 -68.5 100.5t-16.5 154.5v413h95v-413q0 -72 9.5 -112.5t38.5 -69.5q48 -48 134 -48q96 0 144 48q30 30 38.5 69.5t8.5 112.5zM415 764l-53 83l-56 -83h-100l106 137h93l110 -137
h-100z" />
    <glyph glyph-name="Udieresis" unicode="&#xdc;" horiz-adv-x="722" 
d="M547 303v413h95v-413q0 -96 -17 -154t-69 -101q-71 -60 -195 -60q-125 0 -197 60q-52 43 -68.5 100.5t-16.5 154.5v413h95v-413q0 -72 9.5 -112.5t38.5 -69.5q48 -48 134 -48q96 0 144 48q30 30 38.5 69.5t8.5 112.5zM316 801h-91v100h91v-100zM498 801h-91v100h91v-100z
" />
    <glyph glyph-name="Yacute" unicode="&#xdd;" horiz-adv-x="667" 
d="M376 0h-95v303l-276 413h116l140 -216q41 -63 73 -121q28 49 79 127l138 210h110l-285 -413v-303zM351 764h-73l65 137h115z" />
    <glyph glyph-name="Thorn" unicode="&#xde;" horiz-adv-x="667" 
d="M172 0h-95v716h95v-146h175q77 0 122 -8.5t84 -39.5q71 -57 71 -160q0 -89 -57 -149q-37 -39 -86 -53t-126 -14h-183v-146zM172 486v-256h185q169 0 169 129q0 60 -39 96q-17 15 -39.5 22t-38.5 8t-54 1h-183z" />
    <glyph glyph-name="germandbls" unicode="&#xdf;" horiz-adv-x="611" 
d="M376 579q0 32 -27 54.5t-72 22.5q-67 0 -92 -43.5t-25 -128.5v-484h-88v488q0 93 22 137q23 47 71 75t110 28q86 0 136.5 -40.5t50.5 -99.5q0 -37 -19 -76t-37.5 -71t-18.5 -52q0 -18 14 -35t35 -30t46 -30t46 -34.5t35 -44.5t14 -60q0 -72 -50.5 -119.5t-127.5 -47.5
q-60 0 -107 32t-71 85l76 36q44 -81 100 -81q37 0 63.5 25t26.5 64q0 24 -19.5 45.5t-47.5 40t-56 37.5t-47.5 46t-19.5 58q0 36 39.5 103.5t39.5 99.5z" />
    <glyph glyph-name="agrave" unicode="&#xe0;" 
d="M203 294q13 2 51.5 7t56 7.5t44 8t45.5 12.5v16q0 55 -25.5 84t-100.5 29q-69 0 -95.5 -24.5t-39.5 -74.5l-86 11q17 81 73 120.5t158 39.5q127 0 174 -58q15 -18 21.5 -42t7.5 -40.5t1 -54.5v-117v-61q0 -107 28 -157h-92q-14 29 -18 64q-89 -76 -188 -76q-84 0 -132 41
t-48 108q0 62 43.5 104t121.5 53zM400 228v32q-42 -17 -117.5 -27.5t-113 -28.5t-37.5 -65q0 -38 28 -60t81 -22q73 0 120 49q39 41 39 122zM272 720l66 -137h-71l-113 137h118z" />
    <glyph glyph-name="aacute" unicode="&#xe1;" 
d="M203 294q13 2 51.5 7t56 7.5t44 8t45.5 12.5v16q0 55 -25.5 84t-100.5 29q-69 0 -95.5 -24.5t-39.5 -74.5l-86 11q17 81 73 120.5t158 39.5q127 0 174 -58q15 -18 21.5 -42t7.5 -40.5t1 -54.5v-117v-61q0 -107 28 -157h-92q-14 29 -18 64q-89 -76 -188 -76q-84 0 -132 41
t-48 108q0 62 43.5 104t121.5 53zM400 228v32q-42 -17 -117.5 -27.5t-113 -28.5t-37.5 -65q0 -38 28 -60t81 -22q73 0 120 49q39 41 39 122zM293 583h-73l65 137h115z" />
    <glyph glyph-name="acircumflex" unicode="&#xe2;" 
d="M203 294q13 2 51.5 7t56 7.5t44 8t45.5 12.5v16q0 55 -25.5 84t-100.5 29q-69 0 -95.5 -24.5t-39.5 -74.5l-86 11q17 81 73 120.5t158 39.5q127 0 174 -58q15 -18 21.5 -42t7.5 -40.5t1 -54.5v-117v-61q0 -107 28 -157h-92q-14 29 -18 64q-89 -76 -188 -76q-84 0 -132 41
t-48 108q0 62 43.5 104t121.5 53zM400 228v32q-42 -17 -117.5 -27.5t-113 -28.5t-37.5 -65q0 -38 28 -60t81 -22q73 0 120 49q39 41 39 122zM332 583l-53 83l-56 -83h-100l106 137h93l110 -137h-100z" />
    <glyph glyph-name="atilde" unicode="&#xe3;" 
d="M203 294q13 2 51.5 7t56 7.5t44 8t45.5 12.5v16q0 55 -25.5 84t-100.5 29q-69 0 -95.5 -24.5t-39.5 -74.5l-86 11q17 81 73 120.5t158 39.5q127 0 174 -58q15 -18 21.5 -42t7.5 -40.5t1 -54.5v-117v-61q0 -107 28 -157h-92q-14 29 -18 64q-89 -76 -188 -76q-84 0 -132 41
t-48 108q0 62 43.5 104t121.5 53zM400 228v32q-42 -17 -117.5 -27.5t-113 -28.5t-37.5 -65q0 -38 28 -60t81 -22q73 0 120 49q39 41 39 122zM215 642q-15 0 -25.5 -11.5t-10.5 -29.5v-6h-65v10q0 41 27.5 71.5t72.5 30.5q27 0 69.5 -20.5t58.5 -20.5q17 0 24.5 9.5
t10.5 32.5h64q-2 -55 -28 -83t-66 -28q-32 0 -74 22.5t-58 22.5z" />
    <glyph glyph-name="adieresis" unicode="&#xe4;" 
d="M203 294q13 2 51.5 7t56 7.5t44 8t45.5 12.5v16q0 55 -25.5 84t-100.5 29q-69 0 -95.5 -24.5t-39.5 -74.5l-86 11q17 81 73 120.5t158 39.5q127 0 174 -58q15 -18 21.5 -42t7.5 -40.5t1 -54.5v-117v-61q0 -107 28 -157h-92q-14 29 -18 64q-89 -76 -188 -76q-84 0 -132 41
t-48 108q0 62 43.5 104t121.5 53zM400 228v32q-42 -17 -117.5 -27.5t-113 -28.5t-37.5 -65q0 -38 28 -60t81 -22q73 0 120 49q39 41 39 122zM233 620h-91v100h91v-100zM415 620h-91v100h91v-100z" />
    <glyph glyph-name="aring" unicode="&#xe5;" 
d="M203 294q13 2 51.5 7t56 7.5t44 8t45.5 12.5v16q0 55 -25.5 84t-100.5 29q-69 0 -95.5 -24.5t-39.5 -74.5l-86 11q17 81 73 120.5t158 39.5q127 0 174 -58q15 -18 21.5 -42t7.5 -40.5t1 -54.5v-117v-61q0 -107 28 -157h-92q-14 29 -18 64q-89 -76 -188 -76q-84 0 -132 41
t-48 108q0 62 43.5 104t121.5 53zM400 228v32q-42 -17 -117.5 -27.5t-113 -28.5t-37.5 -65q0 -38 28 -60t81 -22q73 0 120 49q39 41 39 122zM190 653q0 35 25.5 61.5t63.5 26.5q35 0 61 -26.5t26 -63.5t-25.5 -63t-62.5 -26t-62.5 26t-25.5 65zM227 653q0 -23 15.5 -38.5
t36.5 -15.5q22 0 36.5 15.5t14.5 37.5t-14.5 37.5t-36.5 15.5t-37 -15.5t-15 -36.5z" />
    <glyph glyph-name="ae" unicode="&#xe6;" horiz-adv-x="889" 
d="M616 530q111 0 172 -75t61 -190q0 -3 -0.5 -13.5t-0.5 -14.5h-374q1 -85 43 -130.5t105 -45.5q52 0 87 29.5t47 80.5l91 -12q-24 -81 -82.5 -125.5t-141.5 -44.5q-125 0 -197 96q-98 -98 -210 -98q-79 0 -124 35q-58 44 -58 115q0 42 24 78t67 56q39 18 127 30.5
t134 25.5q0 2 0.5 5.5t0.5 5.5q0 65 -22.5 92.5t-96.5 27.5q-71 0 -97 -25t-37 -75l-86 10q19 82 72 122t147 40q76 0 119 -16t66 -54q65 70 164 70zM388 231v29q-33 -14 -85 -23.5t-87 -14t-61.5 -25t-26.5 -57.5q0 -36 26 -58.5t74 -22.5t88 21t59 59q13 25 13 92z
M474 310h285q-13 148 -141 148q-63 0 -101 -39.5t-43 -108.5z" />
    <glyph glyph-name="ccedilla" unicode="&#xe7;" horiz-adv-x="500" 
d="M482 366l-85 -13q-24 105 -118 105q-71 0 -110.5 -50.5t-39.5 -145.5q0 -98 37.5 -149.5t107.5 -51.5q111 0 130 129l87 -11q-14 -88 -69.5 -136.5t-135.5 -52.5l-6 -26q39 -4 59.5 -23.5t20.5 -49.5q0 -40 -36 -63.5t-103 -23.5q-29 0 -54 4l2 58q36 -4 46 -4
q64 0 64 34q0 32 -72 32l16 65q-88 16 -136 86.5t-48 186.5q0 123 65 193.5t180 70.5q73 0 127.5 -41t70.5 -123z" />
    <glyph glyph-name="egrave" unicode="&#xe8;" 
d="M517 237h-387q4 -83 47 -129.5t110 -46.5q99 0 136 106l91 -11q-21 -79 -79.5 -123t-143.5 -44q-120 0 -186 70.5t-66 195.5q0 126 65.5 200.5t176.5 74.5q106 0 171 -72t65 -198v-23zM135 310h289q-5 46 -13 65q-16 38 -51 60.5t-78 22.5q-62 0 -102 -41.5t-45 -106.5z
M273 720l66 -137h-71l-113 137h118z" />
    <glyph glyph-name="eacute" unicode="&#xe9;" 
d="M517 237h-387q4 -83 47 -129.5t110 -46.5q99 0 136 106l91 -11q-21 -79 -79.5 -123t-143.5 -44q-120 0 -186 70.5t-66 195.5q0 126 65.5 200.5t176.5 74.5q106 0 171 -72t65 -198v-23zM135 310h289q-5 46 -13 65q-16 38 -51 60.5t-78 22.5q-62 0 -102 -41.5t-45 -106.5z
M294 583h-73l65 137h115z" />
    <glyph glyph-name="ecircumflex" unicode="&#xea;" 
d="M517 237h-387q4 -83 47 -129.5t110 -46.5q99 0 136 106l91 -11q-21 -79 -79.5 -123t-143.5 -44q-120 0 -186 70.5t-66 195.5q0 126 65.5 200.5t176.5 74.5q106 0 171 -72t65 -198v-23zM135 310h289q-5 46 -13 65q-16 38 -51 60.5t-78 22.5q-62 0 -102 -41.5t-45 -106.5z
M333 583l-53 83l-56 -83h-100l106 137h93l110 -137h-100z" />
    <glyph glyph-name="edieresis" unicode="&#xeb;" 
d="M517 237h-387q4 -83 47 -129.5t110 -46.5q99 0 136 106l91 -11q-21 -79 -79.5 -123t-143.5 -44q-120 0 -186 70.5t-66 195.5q0 126 65.5 200.5t176.5 74.5q106 0 171 -72t65 -198v-23zM135 310h289q-5 46 -13 65q-16 38 -51 60.5t-78 22.5q-62 0 -102 -41.5t-45 -106.5z
M234 620h-91v100h91v-100zM416 620h-91v100h91v-100z" />
    <glyph glyph-name="igrave" unicode="&#xec;" horiz-adv-x="222" 
d="M99 720l66 -137h-71l-113 137h118zM156 0h-88v518h88v-518z" />
    <glyph glyph-name="iacute" unicode="&#xed;" horiz-adv-x="222" 
d="M156 0h-88v518h88v-518zM128 583h-73l65 137h115z" />
    <glyph glyph-name="icircumflex" unicode="&#xee;" horiz-adv-x="222" 
d="M164 583l-53 83l-56 -83h-100l106 137h93l110 -137h-100zM156 0h-88v518h88v-518z" />
    <glyph glyph-name="idieresis" unicode="&#xef;" horiz-adv-x="222" 
d="M65 620h-91v100h91v-100zM247 620h-91v100h91v-100zM156 0h-88v518h88v-518z" />
    <glyph glyph-name="eth" unicode="&#xf0;" 
d="M137 582l117 53q-49 45 -101 81h106q32 -24 61 -50l104 50l22 -50l-84 -40q156 -179 156 -370q0 -122 -66 -195t-174 -73q-106 0 -173 68.5t-67 187.5q0 103 34 164q29 53 78 81.5t110 28.5q50 0 102 -28q-30 60 -69 104l-135 -62zM428 258q0 91 -43.5 142t-110.5 51
t-106.5 -52.5t-39.5 -148.5q0 -93 42.5 -141.5t105.5 -48.5q68 0 110 52.5t42 145.5z" />
    <glyph glyph-name="ntilde" unicode="&#xf1;" 
d="M147 518v-73q58 85 165 85q52 0 93 -20.5t62 -55.5q23 -40 23 -135v-319h-88v315q0 139 -109 139q-38 0 -70.5 -17.5t-48.5 -47.5q-18 -34 -18 -106v-283h-88v518h79zM215 642q-15 0 -25.5 -11.5t-10.5 -29.5v-6h-65v10q0 41 27.5 71.5t72.5 30.5q27 0 69.5 -20.5
t58.5 -20.5q17 0 24.5 9.5t10.5 32.5h64q-2 -55 -28 -83t-66 -28q-32 0 -74 22.5t-58 22.5z" />
    <glyph glyph-name="ograve" unicode="&#xf2;" 
d="M35 259q0 129 67 200t176 71q120 0 189 -87q54 -69 54 -184q0 -130 -67 -200t-176 -70q-121 0 -189 86q-54 69 -54 184zM125 259q0 -94 41.5 -146t111.5 -52q69 0 111 52t42 146t-41.5 146.5t-111.5 52.5q-69 0 -111 -52t-42 -147zM272 720l66 -137h-71l-113 137h118z
" />
    <glyph glyph-name="oacute" unicode="&#xf3;" 
d="M35 259q0 129 67 200t176 71q120 0 189 -87q54 -69 54 -184q0 -130 -67 -200t-176 -70q-121 0 -189 86q-54 69 -54 184zM125 259q0 -94 41.5 -146t111.5 -52q69 0 111 52t42 146t-41.5 146.5t-111.5 52.5q-69 0 -111 -52t-42 -147zM293 583h-73l65 137h115z" />
    <glyph glyph-name="ocircumflex" unicode="&#xf4;" 
d="M35 259q0 129 67 200t176 71q120 0 189 -87q54 -69 54 -184q0 -130 -67 -200t-176 -70q-121 0 -189 86q-54 69 -54 184zM125 259q0 -94 41.5 -146t111.5 -52q69 0 111 52t42 146t-41.5 146.5t-111.5 52.5q-69 0 -111 -52t-42 -147zM332 583l-53 83l-56 -83h-100l106 137
h93l110 -137h-100z" />
    <glyph glyph-name="otilde" unicode="&#xf5;" 
d="M35 259q0 129 67 200t176 71q120 0 189 -87q54 -69 54 -184q0 -130 -67 -200t-176 -70q-121 0 -189 86q-54 69 -54 184zM125 259q0 -94 41.5 -146t111.5 -52q69 0 111 52t42 146t-41.5 146.5t-111.5 52.5q-69 0 -111 -52t-42 -147zM215 642q-15 0 -25.5 -11.5
t-10.5 -29.5v-6h-65v10q0 41 27.5 71.5t72.5 30.5q27 0 69.5 -20.5t58.5 -20.5q17 0 24.5 9.5t10.5 32.5h64q-2 -55 -28 -83t-66 -28q-32 0 -74 22.5t-58 22.5z" />
    <glyph glyph-name="odieresis" unicode="&#xf6;" 
d="M35 259q0 129 67 200t176 71q120 0 189 -87q54 -69 54 -184q0 -130 -67 -200t-176 -70q-121 0 -189 86q-54 69 -54 184zM125 259q0 -94 41.5 -146t111.5 -52q69 0 111 52t42 146t-41.5 146.5t-111.5 52.5q-69 0 -111 -52t-42 -147zM233 620h-91v100h91v-100zM415 620h-91
v100h91v-100z" />
    <glyph glyph-name="divide" unicode="&#xf7;" horiz-adv-x="584" 
d="M528 395v-84h-473v84h473zM341 451h-100v100h100v-100zM341 156h-100v100h100v-100z" />
    <glyph glyph-name="oslash" unicode="&#xf8;" 
d="M43 -4l53 69q-61 70 -61 187q0 123 54 191q69 87 188 87q75 0 144 -42l48 63l47 -35l-52 -67q32 -43 44.5 -85t12.5 -103q0 -118 -54 -186q-68 -86 -190 -86q-79 0 -137 39l-51 -67zM151 137l220 286q-45 35 -93 35q-69 0 -111 -52t-42 -146q0 -71 26 -123zM408 376
l-219 -285q37 -30 89 -30q68 0 110.5 51.5t42.5 146.5q0 65 -23 117z" />
    <glyph glyph-name="ugrave" unicode="&#xf9;" 
d="M399 241v277h88v-518h-79v76q-61 -88 -165 -88q-51 0 -91.5 20.5t-61.5 55.5q-24 39 -24 133v321h88v-328q0 -126 113 -126q53 0 93 40q24 24 31.5 55t7.5 82zM272 720l66 -137h-71l-113 137h118z" />
    <glyph glyph-name="uacute" unicode="&#xfa;" 
d="M399 241v277h88v-518h-79v76q-61 -88 -165 -88q-51 0 -91.5 20.5t-61.5 55.5q-24 39 -24 133v321h88v-328q0 -126 113 -126q53 0 93 40q24 24 31.5 55t7.5 82zM293 583h-73l65 137h114z" />
    <glyph glyph-name="ucircumflex" unicode="&#xfb;" 
d="M399 241v277h88v-518h-79v76q-61 -88 -165 -88q-51 0 -91.5 20.5t-61.5 55.5q-24 39 -24 133v321h88v-328q0 -126 113 -126q53 0 93 40q24 24 31.5 55t7.5 82zM332 583l-53 83l-56 -83h-100l106 137h93l110 -137h-100z" />
    <glyph glyph-name="udieresis" unicode="&#xfc;" 
d="M399 241v277h88v-518h-79v76q-61 -88 -165 -88q-51 0 -91.5 20.5t-61.5 55.5q-24 39 -24 133v321h88v-328q0 -126 113 -126q53 0 93 40q24 24 31.5 55t7.5 82zM233 620h-91v100h91v-100zM415 620h-91v100h91v-100z" />
    <glyph glyph-name="yacute" unicode="&#xfd;" horiz-adv-x="500" 
d="M491 518l-197 -527q-17 -45 -26 -67.5t-25.5 -53.5t-32 -45t-39 -24.5t-52.5 -10.5t-57 10l-10 83q35 -8 52 -8q18 0 32 5t22.5 9.5t17.5 20t12 22.5t12 32.5t13 34.5l-197 519h95l108 -300q19 -53 37 -120q17 64 37 119l110 301h88zM265 583h-73l65 137h115z" />
    <glyph glyph-name="thorn" unicode="&#xfe;" 
d="M156 -199h-88v915h88v-252q30 32 60.5 49t81.5 17q100 0 160 -72.5t60 -192.5q0 -126 -64.5 -201t-161.5 -75q-46 0 -75.5 17t-60.5 48v-253zM147 256q0 -94 38.5 -144.5t100.5 -50.5t102 52t40 150q0 93 -38 145.5t-98 52.5q-64 0 -104.5 -56.5t-40.5 -148.5z" />
    <glyph glyph-name="ydieresis" unicode="&#xff;" horiz-adv-x="500" 
d="M491 518l-197 -527q-17 -45 -26 -67.5t-25.5 -53.5t-32 -45t-39 -24.5t-52.5 -10.5t-57 10l-10 83q35 -8 52 -8q18 0 32 5t22.5 9.5t17.5 20t12 22.5t12 32.5t13 34.5l-197 519h95l108 -300q19 -53 37 -120q17 64 37 119l110 301h88zM205 620h-91v100h91v-100zM387 620
h-91v100h91v-100z" />
    <glyph glyph-name="Amacron" unicode="&#x100;" horiz-adv-x="667" 
d="M177 217l-78 -217h-101l275 716h102l293 -716h-108l-84 217h-299zM447 294l-74 198q-33 89 -51 149q-13 -67 -39 -137l-78 -210h242zM476 854v-71h-305v71h305z" />
    <glyph glyph-name="amacron" unicode="&#x101;" 
d="M203 294q13 2 51.5 7t56 7.5t44 8t45.5 12.5v16q0 55 -25.5 84t-100.5 29q-69 0 -95.5 -24.5t-39.5 -74.5l-86 11q17 81 73 120.5t158 39.5q127 0 174 -58q15 -18 21.5 -42t7.5 -40.5t1 -54.5v-117v-61q0 -107 28 -157h-92q-14 29 -18 64q-89 -76 -188 -76q-84 0 -132 41
t-48 108q0 62 43.5 104t121.5 53zM400 228v32q-42 -17 -117.5 -27.5t-113 -28.5t-37.5 -65q0 -38 28 -60t81 -22q73 0 120 49q39 41 39 122zM429 600h-305v71h305v-71z" />
    <glyph glyph-name="Abreve" unicode="&#x102;" horiz-adv-x="667" 
d="M177 217l-78 -217h-101l275 716h102l293 -716h-108l-84 217h-299zM447 294l-74 198q-33 89 -51 149q-13 -67 -39 -137l-78 -210h242zM180 897h60q13 -65 84 -65t84 65h60q-7 -62 -45 -94t-98 -32q-62 0 -100 32t-45 94z" />
    <glyph glyph-name="abreve" unicode="&#x103;" 
d="M203 294q13 2 51.5 7t56 7.5t44 8t45.5 12.5v16q0 55 -25.5 84t-100.5 29q-69 0 -95.5 -24.5t-39.5 -74.5l-86 11q17 81 73 120.5t158 39.5q127 0 174 -58q15 -18 21.5 -42t7.5 -40.5t1 -54.5v-117v-61q0 -107 28 -157h-92q-14 29 -18 64q-89 -76 -188 -76q-84 0 -132 41
t-48 108q0 62 43.5 104t121.5 53zM400 228v32q-42 -17 -117.5 -27.5t-113 -28.5t-37.5 -65q0 -38 28 -60t81 -22q73 0 120 49q39 41 39 122zM133 715h60q13 -66 84 -66t84 66h60q-7 -62 -45 -94.5t-98 -32.5q-62 0 -100 32.5t-45 94.5z" />
    <glyph glyph-name="Aogonek" unicode="&#x104;" horiz-adv-x="667" 
d="M375 716l293 -716h-49q-14 -37 -14 -66q0 -35 19.5 -55.5t53.5 -20.5q35 0 79 22v-58q-55 -29 -107 -29q-48 0 -77.5 29t-29.5 78q0 36 17 100l-84 217h-299l-78 -217h-101l275 716h102zM447 294l-74 198q-33 89 -51 149q-13 -67 -39 -137l-78 -210h242z" />
    <glyph glyph-name="aogonek" unicode="&#x105;" 
d="M516 0h-33q-14 -38 -14 -66q0 -35 19.5 -55.5t53.5 -20.5q35 0 79 22v-58q-55 -29 -108 -29q-48 0 -77 29t-29 78q0 36 17 100q-14 29 -18 64q-89 -76 -188 -76q-84 0 -132 41t-48 108q0 62 43.5 104t121.5 53q13 2 51.5 7t56 7.5t44 8t45.5 12.5v16q0 55 -25.5 84
t-100.5 29q-69 0 -95.5 -24.5t-39.5 -74.5l-86 11q17 81 73 120.5t158 39.5q127 0 174 -58q15 -18 21.5 -42t7.5 -40.5t1 -54.5v-117v-61q0 -107 28 -157zM400 228v32q-42 -17 -117.5 -27.5t-113 -28.5t-37.5 -65q0 -38 28 -60t81 -22q73 0 120 49q39 41 39 122z" />
    <glyph glyph-name="Cacute" unicode="&#x106;" horiz-adv-x="722" 
d="M672 519l-94 -22q-48 150 -191 150q-113 0 -175.5 -75t-62.5 -209q0 -142 61.5 -218t171.5 -76q78 0 133 46t74 136l95 -24q-30 -115 -107.5 -177t-190.5 -62q-160 0 -244 98q-91 106 -91 277q0 167 93 266t245 99q107 0 181 -54.5t102 -154.5zM382 766h-73l66 137h114z
" />
    <glyph glyph-name="cacute" unicode="&#x107;" horiz-adv-x="500" 
d="M482 366l-85 -13q-24 105 -118 105q-71 0 -110.5 -50.5t-39.5 -145.5q0 -98 37.5 -149.5t107.5 -51.5q111 0 130 129l87 -11q-14 -91 -73 -140.5t-144 -49.5q-110 0 -172.5 72.5t-62.5 204.5q0 123 65 193.5t180 70.5q73 0 127.5 -41t70.5 -123zM280 583h-73l65 137h115z
" />
    <glyph glyph-name="Ccircumflex" unicode="&#x108;" horiz-adv-x="722" 
d="M672 519l-94 -22q-48 150 -191 150q-113 0 -175.5 -75t-62.5 -209q0 -142 61.5 -218t171.5 -76q78 0 133 46t74 136l95 -24q-30 -115 -107.5 -177t-190.5 -62q-160 0 -244 98q-91 106 -91 277q0 167 93 266t245 99q107 0 181 -54.5t102 -154.5zM433 764l-53 83l-56 -83
h-100l106 137h93l110 -137h-100z" />
    <glyph glyph-name="ccircumflex" unicode="&#x109;" horiz-adv-x="500" 
d="M482 366l-85 -13q-24 105 -118 105q-71 0 -110.5 -50.5t-39.5 -145.5q0 -98 37.5 -149.5t107.5 -51.5q111 0 130 129l87 -11q-14 -91 -73 -140.5t-144 -49.5q-110 0 -172.5 72.5t-62.5 204.5q0 123 65 193.5t180 70.5q73 0 127.5 -41t70.5 -123zM332 583l-53 83l-56 -83
h-100l106 137h93l110 -137h-100z" />
    <glyph glyph-name="Cdotaccent" unicode="&#x10a;" horiz-adv-x="722" 
d="M672 519l-94 -22q-48 150 -191 150q-113 0 -175.5 -75t-62.5 -209q0 -142 61.5 -218t171.5 -76q78 0 133 46t74 136l95 -24q-30 -115 -107.5 -177t-190.5 -62q-160 0 -244 98q-91 106 -91 277q0 167 93 266t245 99q107 0 181 -54.5t102 -154.5zM444 875v-109h-109v109
h109z" />
    <glyph glyph-name="cdotaccent" unicode="&#x10b;" horiz-adv-x="500" 
d="M482 366l-85 -13q-24 105 -118 105q-71 0 -110.5 -50.5t-39.5 -145.5q0 -98 37.5 -149.5t107.5 -51.5q111 0 130 129l87 -11q-14 -91 -73 -140.5t-144 -49.5q-110 0 -172.5 72.5t-62.5 204.5q0 123 65 193.5t180 70.5q73 0 127.5 -41t70.5 -123zM330 583h-109v109h109
v-109z" />
    <glyph glyph-name="Ccaron" unicode="&#x10c;" horiz-adv-x="722" 
d="M672 519l-94 -22q-48 150 -191 150q-113 0 -175.5 -75t-62.5 -209q0 -142 61.5 -218t171.5 -76q78 0 133 46t74 136l95 -24q-30 -115 -107.5 -177t-190.5 -62q-160 0 -244 98q-91 106 -91 277q0 167 93 266t245 99q107 0 181 -54.5t102 -154.5zM321 903l55 -83l54 83h99
l-109 -137h-94l-105 137h100z" />
    <glyph glyph-name="ccaron" unicode="&#x10d;" horiz-adv-x="500" 
d="M482 366l-85 -13q-24 105 -118 105q-71 0 -110.5 -50.5t-39.5 -145.5q0 -98 37.5 -149.5t107.5 -51.5q111 0 130 129l87 -11q-14 -91 -73 -140.5t-144 -49.5q-110 0 -172.5 72.5t-62.5 204.5q0 123 65 193.5t180 70.5q73 0 127.5 -41t70.5 -123zM218 720l56 -83l53 83
h100l-110 -137h-93l-106 137h100z" />
    <glyph glyph-name="Dcaron" unicode="&#x10e;" horiz-adv-x="722" 
d="M337 0h-258v716h247q77 0 126.5 -9.5t95.5 -44.5q123 -93 123 -299q0 -141 -57 -233t-159 -118q-47 -12 -118 -12zM174 632v-548h152q69 0 111 12.5t73 48.5q63 72 63 219q0 153 -76 222q-33 30 -71.5 38t-101.5 8h-150zM306 903l56 -83l53 83h100l-110 -137h-93
l-138 137h132z" />
    <glyph glyph-name="dcaron" unicode="&#x10f;" horiz-adv-x="586" 
d="M571 626h-43v90h88v-90q0 -97 -73 -128l-22 34q27 12 38 34.5t12 59.5zM404 0v66q-49 -77 -144 -77q-97 0 -160.5 75t-63.5 198t60.5 195.5t162.5 72.5q88 0 139 -71v257h88v-716h-82zM126 259q0 -95 40.5 -146.5t101.5 -51.5t99.5 49.5t38.5 140.5q0 97 -38 152t-103 55
q-66 0 -102.5 -52t-36.5 -147z" />
    <glyph glyph-name="Dcroat" unicode="&#x110;" horiz-adv-x="722" 
d="M337 0h-258v325h-79v66h79v325h247q77 0 127 -9.5t95 -44.5q123 -93 123 -298q0 -118 -40 -201.5t-114 -125.5q-31 -18 -66 -26.5t-54.5 -9.5t-59.5 -1zM174 325v-241h152q68 0 110 12.5t73 48.5q64 74 64 225q0 147 -77 216q-33 30 -71 38t-101 8h-150v-241h197v-66
h-197z" />
    <glyph glyph-name="dcroat" unicode="&#x111;" 
d="M404 0v66q-49 -77 -144 -77q-97 0 -160.5 75t-63.5 198t60.5 195.5t162.5 72.5q88 0 139 -71v136h-168v66h168v55h88v-55h71v-66h-71v-595h-82zM126 259q0 -95 40.5 -146.5t101.5 -51.5t99.5 49.5t38.5 140.5q0 97 -38 152t-103 55q-66 0 -102.5 -52t-36.5 -147z" />
    <glyph glyph-name="Emacron" unicode="&#x112;" horiz-adv-x="667" 
d="M613 84v-84h-534v716h518v-84h-423v-220h396v-84h-396v-244h439zM499 854v-71h-305v71h305z" />
    <glyph glyph-name="emacron" unicode="&#x113;" 
d="M430 600h-305v71h305v-71zM516 237h-387q4 -83 47 -129.5t110 -46.5q99 0 136 106l91 -11q-21 -79 -79.5 -123t-143.5 -44q-120 0 -186 70.5t-66 195.5q0 126 65.5 200.5t176.5 74.5q106 0 171 -72t65 -198v-23zM134 310h289q-5 46 -13 65q-16 38 -51 60.5t-78 22.5
q-62 0 -102 -41.5t-45 -106.5z" />
    <glyph glyph-name="Ebreve" unicode="&#x114;" horiz-adv-x="667" 
d="M613 0h-534v716h518v-84h-423v-220h396v-84h-396v-244h439v-84zM204 897h60q13 -65 84 -65t84 65h60q-7 -62 -45 -94t-98 -32q-62 0 -100 32t-45 94z" />
    <glyph glyph-name="ebreve" unicode="&#x115;" 
d="M516 237h-387q4 -83 47 -129.5t110 -46.5q99 0 136 106l91 -11q-21 -79 -79.5 -123t-143.5 -44q-120 0 -186 70.5t-66 195.5q0 126 65.5 200.5t176.5 74.5q106 0 171 -72t65 -198v-23zM134 310h289q-5 46 -13 65q-16 38 -51 60.5t-78 22.5q-62 0 -102 -41.5t-45 -106.5z
M137 715h60q14 -66 84 -66q71 0 84 66h60q-7 -62 -45 -94.5t-98 -32.5q-62 0 -100 32.5t-45 94.5z" />
    <glyph glyph-name="Edotaccent" unicode="&#x116;" horiz-adv-x="667" 
d="M613 84v-84h-534v716h518v-84h-423v-220h396v-84h-396v-244h439zM401 875v-109h-109v109h109z" />
    <glyph glyph-name="edotaccent" unicode="&#x117;" 
d="M332 583h-109v109h109v-109zM516 237h-387q4 -83 47 -129.5t110 -46.5q99 0 136 106l91 -11q-21 -79 -79.5 -123t-143.5 -44q-120 0 -186 70.5t-66 195.5q0 126 65.5 200.5t176.5 74.5q106 0 171 -72t65 -198v-23zM134 310h289q-5 46 -13 65q-16 38 -51 60.5t-78 22.5
q-62 0 -102 -41.5t-45 -106.5z" />
    <glyph glyph-name="Eogonek" unicode="&#x118;" horiz-adv-x="667" 
d="M613 84v-84h-138q-13 -36 -13 -66q0 -35 19.5 -55.5t52.5 -20.5q35 0 79 22v-58q-55 -29 -107 -29q-48 0 -77 29t-29 78q0 40 16 100h-337v716h518v-84h-423v-220h396v-84h-396v-244h439z" />
    <glyph glyph-name="eogonek" unicode="&#x119;" 
d="M438 -120v-58q-56 -29 -96 -29q-58 0 -88 28.5t-30 78.5q0 29 15 91q-92 13 -146.5 82.5t-54.5 181.5q0 126 65.5 200.5t176.5 74.5q106 0 171 -72.5t65 -198.5v-22h-387q4 -83 47 -129.5t110 -46.5q99 0 136 106l91 -11q-21 -78 -77 -122t-140 -45q-10 -32 -10 -55
q0 -35 20 -56t53 -21t79 23zM134 310h289q-5 46 -13 65q-16 38 -51 60.5t-78 22.5q-62 0 -102 -41.5t-45 -106.5z" />
    <glyph glyph-name="Ecaron" unicode="&#x11a;" horiz-adv-x="667" 
d="M613 84v-84h-534v716h518v-84h-423v-220h396v-84h-396v-244h439zM199 903h101l55 -83l54 83h99l-109 -137h-94z" />
    <glyph glyph-name="ecaron" unicode="&#x11b;" 
d="M231 720l55 -83l54 83h99l-110 -137h-93l-106 137h101zM516 237h-387q4 -83 47 -129.5t110 -46.5q99 0 136 106l91 -11q-21 -79 -79.5 -123t-143.5 -44q-120 0 -186 70.5t-66 195.5q0 126 65.5 200.5t176.5 74.5q106 0 171 -72t65 -198v-23zM134 310h289q-5 46 -13 65
q-16 38 -51 60.5t-78 22.5q-62 0 -102 -41.5t-45 -106.5z" />
    <glyph glyph-name="Gcircumflex" unicode="&#x11c;" horiz-adv-x="778" 
d="M623 281h-212v84h303v-265q-141 -112 -297 -112q-164 0 -264.5 100.5t-100.5 266.5q0 167 96 270t263 103q238 0 292 -212l-85 -24q-21 73 -59 106q-57 49 -146 49q-126 0 -194.5 -77t-68.5 -210q0 -138 71.5 -212.5t203.5 -74.5q48 0 107.5 23t90.5 51v134zM462 764
l-53 83l-56 -83h-100l106 137h93l110 -137h-100z" />
    <glyph glyph-name="gcircumflex" unicode="&#x11d;" 
d="M410 456v62h81v-448q0 -99 -17 -150q-22 -62 -78 -96t-139 -34q-97 0 -151.5 44t-54.5 109q0 3 0.5 7t0.5 7l85 -13q12 -82 124 -82q83 0 119 55q22 35 22 125v26q-57 -68 -142 -68q-101 0 -163.5 73.5t-62.5 189.5q0 120 62 193.5t164 73.5q90 0 150 -74zM124 269
q0 -96 39 -146.5t106 -50.5q65 0 105 56q35 48 35 136q0 92 -40 143t-104 51q-62 0 -101.5 -51t-39.5 -138zM332 583l-53 83l-56 -83h-100l106 137h93l110 -137h-100z" />
    <glyph glyph-name="Gbreve" unicode="&#x11e;" horiz-adv-x="778" 
d="M623 281h-212v84h303v-265q-141 -112 -297 -112q-164 0 -264.5 100.5t-100.5 266.5q0 167 96 270t263 103q238 0 292 -212l-85 -24q-21 73 -59 106q-57 49 -146 49q-126 0 -194.5 -77t-68.5 -210q0 -138 71.5 -212.5t203.5 -74.5q48 0 107.5 23t90.5 51v134zM239 897h60
q13 -65 84 -65t84 65h60q-7 -62 -45 -94t-98 -32q-62 0 -100 32t-45 94z" />
    <glyph glyph-name="gbreve" unicode="&#x11f;" 
d="M410 456v62h81v-448q0 -99 -17 -150q-22 -62 -78 -96t-139 -34q-97 0 -151.5 44t-54.5 109q0 3 0.5 7t0.5 7l85 -13q12 -82 124 -82q83 0 119 55q22 35 22 125v26q-57 -68 -142 -68q-101 0 -163.5 73.5t-62.5 189.5q0 120 62 193.5t164 73.5q90 0 150 -74zM124 269
q0 -96 39 -146.5t106 -50.5q65 0 105 56q35 48 35 136q0 92 -40 143t-104 51q-62 0 -101.5 -51t-39.5 -138zM118 715h60q13 -66 84 -66q72 0 85 66h60q-7 -62 -45 -94.5t-98 -32.5q-62 0 -100.5 32.5t-45.5 94.5z" />
    <glyph glyph-name="Gdotaccent" unicode="&#x120;" horiz-adv-x="778" 
d="M623 281h-212v84h303v-265q-141 -112 -297 -112q-164 0 -264.5 100.5t-100.5 266.5q0 167 96 270t263 103q238 0 292 -212l-85 -24q-21 73 -59 106q-57 49 -146 49q-126 0 -194.5 -77t-68.5 -210q0 -138 71.5 -212.5t203.5 -74.5q48 0 107.5 23t90.5 51v134zM459 875
v-109h-109v109h109z" />
    <glyph glyph-name="gdotaccent" unicode="&#x121;" 
d="M410 456v62h81v-448q0 -99 -17 -150q-22 -62 -78 -96t-139 -34q-97 0 -151.5 44t-54.5 109q0 3 0.5 7t0.5 7l85 -13q12 -82 124 -82q83 0 119 55q22 35 22 125v26q-57 -68 -142 -68q-101 0 -163.5 73.5t-62.5 189.5q0 120 62 193.5t164 73.5q90 0 150 -74zM124 269
q0 -96 39 -146.5t106 -50.5q65 0 105 56q35 48 35 136q0 92 -40 143t-104 51q-62 0 -101.5 -51t-39.5 -138zM332 583h-109v109h109v-109z" />
    <glyph glyph-name="Gcommaaccent" unicode="&#x122;" horiz-adv-x="778" 
d="M623 281h-212v84h303v-265q-141 -112 -297 -112q-164 0 -264.5 100.5t-100.5 266.5q0 167 96 270t263 103q238 0 292 -212l-85 -24q-21 73 -59 106q-57 49 -146 49q-126 0 -194.5 -77t-68.5 -210q0 -138 71.5 -212.5t203.5 -74.5q48 0 107.5 23t90.5 51v134zM405 -121
h-39v71h84v-47q0 -85 -71 -113l-18 36q24 11 32 21.5t12 31.5z" />
    <glyph glyph-name="gcommaaccent" unicode="&#x123;" 
d="M410 456v62h81v-448q0 -99 -17 -150q-22 -62 -78 -96t-139 -34q-97 0 -151.5 44t-54.5 109q0 3 0.5 7t0.5 7l85 -13q12 -82 124 -82q83 0 119 55q22 35 22 125v26q-57 -68 -142 -68q-101 0 -163.5 73.5t-62.5 189.5q0 120 62 193.5t164 73.5q90 0 150 -74zM124 269
q0 -96 39 -146.5t106 -50.5q65 0 105 56q35 48 35 136q0 92 -40 143t-104 51q-62 0 -101.5 -51t-39.5 -138zM262 642h39v-71h-84v47q0 85 71 113l18 -36q-24 -11 -32 -21.5t-12 -31.5z" />
    <glyph glyph-name="Hcircumflex" unicode="&#x124;" horiz-adv-x="722" 
d="M175 0h-95v716h95v-294h372v294h95v-716h-95v338h-372v-338zM415 764l-53 83l-56 -83h-100l106 137h93l110 -137h-100z" />
    <glyph glyph-name="hcircumflex" unicode="&#x125;" 
d="M156 0h-88v716h88v-257q61 71 156 71q73 0 123 -39q32 -26 44 -63.5t12 -99.5v-328h-88v328q0 126 -111 126q-36 0 -67 -17t-48 -45q-21 -34 -21 -108v-284zM332 770l-53 83l-56 -83h-100l106 137h93l110 -137h-100z" />
    <glyph glyph-name="Hbar" unicode="&#x126;" horiz-adv-x="722" 
d="M547 536h-372v-114h372v114zM80 0v536h-65v66h65v114h95v-114h372v114h95v-114h65v-66h-65v-536h-95v338h-372v-338h-95z" />
    <glyph glyph-name="hbar" unicode="&#x127;" 
d="M68 585h-54v64h54v67h88v-67h188v-64h-188v-126q61 71 156 71q73 0 123 -39q32 -26 44 -63.5t12 -99.5v-328h-88v328q0 126 -111 126q-36 0 -67 -17t-48 -45q-21 -34 -21 -108v-284h-88v585z" />
    <glyph glyph-name="Itilde" unicode="&#x128;" horiz-adv-x="278" 
d="M76 823q-15 0 -25.5 -11.5t-10.5 -29.5v-6h-65v10q0 41 27.5 71.5t72.5 30.5q27 0 69.5 -20.5t58.5 -20.5q17 0 24.5 9.5t10.5 32.5h64q-2 -55 -28 -83t-66 -28q-32 0 -74 22.5t-58 22.5zM187 0h-95v716h95v-716z" />
    <glyph glyph-name="itilde" unicode="&#x129;" horiz-adv-x="222" 
d="M47 642q-15 0 -25.5 -11.5t-10.5 -29.5v-6h-65v10q0 41 27.5 71.5t72.5 30.5q27 0 69.5 -20.5t58.5 -20.5q17 0 24.5 9.5t10.5 32.5h64q-2 -55 -28 -83t-66 -28q-32 0 -74 22.5t-58 22.5zM156 0h-88v518h88v-518z" />
    <glyph glyph-name="Imacron" unicode="&#x12a;" horiz-adv-x="278" 
d="M187 716v-716h-95v716h95zM292 854v-71h-305v71h305z" />
    <glyph glyph-name="imacron" unicode="&#x12b;" horiz-adv-x="222" 
d="M264 600h-305v71h305v-71zM156 0h-88v518h88v-518z" />
    <glyph glyph-name="Ibreve" unicode="&#x12c;" horiz-adv-x="278" 
d="M187 0h-95v716h95v-716zM-4 897h60q13 -65 84 -65t84 65h60q-7 -62 -45 -94t-98 -32q-62 0 -100 32t-45 94z" />
    <glyph glyph-name="ibreve" unicode="&#x12d;" horiz-adv-x="222" 
d="M-29 715h60q13 -66 84 -66t84 66h60q-7 -62 -45 -94.5t-98 -32.5q-62 0 -100 32.5t-45 94.5zM156 0h-88v518h88v-518z" />
    <glyph glyph-name="Iogonek" unicode="&#x12e;" horiz-adv-x="278" 
d="M187 0h-36q-14 -38 -14 -66q0 -34 20 -55t53 -21q35 0 79 22v-58q-56 -29 -96 -29q-58 0 -88 28.5t-30 78.5q0 41 17 101v715h95v-716z" />
    <glyph glyph-name="iogonek" unicode="&#x12f;" horiz-adv-x="222" 
d="M156 0h-29q-14 -38 -14 -66q0 -34 20 -55t53 -21q35 0 79 22v-58q-55 -29 -108 -29q-48 0 -77 29t-29 78q0 34 17 100v518h88v-518zM156 616h-88v100h88v-100z" />
    <glyph glyph-name="Idotaccent" unicode="&#x130;" horiz-adv-x="278" 
d="M187 716v-716h-95v716h95zM194 875v-109h-109v109h109z" />
    <glyph glyph-name="dotlessi" unicode="&#x131;" horiz-adv-x="222" 
d="M155 0h-88v518h88v-518z" />
    <glyph glyph-name="IJ" unicode="&#x132;" horiz-adv-x="735" 
d="M262 203l85 12q3 -143 107 -143q60 0 83.5 35.5t23.5 115.5v493h94v-488q0 -142 -58 -191t-143 -49q-192 0 -192 215zM188 0h-94v716h94v-716z" />
    <glyph glyph-name="ij" unicode="&#x133;" horiz-adv-x="444" 
d="M378 518v-546q0 -90 -27 -136t-100 -46q-40 0 -72 9l17 74q31 -7 42 -7q31 0 41.5 24t10.5 84v544h88zM378 716v-100h-88v100h88zM156 0h-88v518h88v-518zM156 616h-88v100h88v-100z" />
    <glyph glyph-name="Jcircumflex" unicode="&#x134;" horiz-adv-x="500" 
d="M419 764l-53 83l-56 -83h-100l106 137h93l110 -137h-100zM27 191v12l85 12q3 -72 27 -107t83 -35q47 0 75 29q20 20 24.5 46t4.5 75v493h95v-488q0 -69 -12.5 -112.5t-45.5 -75.5q-55 -52 -144 -52q-94 0 -143 54.5t-49 148.5z" />
    <glyph glyph-name="jcircumflex" unicode="&#x135;" horiz-adv-x="222" 
d="M155 518v-546q0 -90 -27 -136t-100 -46q-40 0 -72 9l17 74q31 -7 42 -7q31 0 41.5 24t10.5 84v544h88zM165 583l-53 83l-56 -83h-100l106 137h93l110 -137h-100z" />
    <glyph glyph-name="Kcommaaccent" unicode="&#x136;" horiz-adv-x="667" 
d="M168 248v-248h-95v716h95v-355l355 355h129l-301 -290l314 -426h-125l-255 362zM331 -121h-39v71h84v-47q0 -85 -71 -113l-18 36q24 11 32 21.5t12 31.5z" />
    <glyph glyph-name="kcommaaccent" unicode="&#x137;" horiz-adv-x="500" 
d="M154 0h-88v716h88v-408l208 210h114l-199 -192l219 -326h-109l-171 265l-62 -59v-206zM248 -121h-39v71h84v-47q0 -85 -71 -113l-18 36q24 11 32 21.5t12 31.5z" />
    <glyph glyph-name="kgreenlandic" unicode="&#x138;" horiz-adv-x="500" 
d="M154 0h-88v518h88v-210l208 210h114l-198 -192l218 -326h-108l-172 265l-62 -59v-206z" />
    <glyph glyph-name="Lacute" unicode="&#x139;" 
d="M523 0h-448v716h95v-632h353v-84zM202 766h-73l65 137h115z" />
    <glyph glyph-name="lacute" unicode="&#x13a;" horiz-adv-x="222" 
d="M154 0h-88v716h88v-716zM107 752h-73l65 137h115z" />
    <glyph glyph-name="Lcommaaccent" unicode="&#x13b;" 
d="M523 0h-448v716h95v-632h353v-84zM288 -121h-39v71h84v-47q0 -85 -71 -113l-18 36q24 11 32 21.5t12 31.5z" />
    <glyph glyph-name="lcommaaccent" unicode="&#x13c;" horiz-adv-x="222" 
d="M154 716v-716h-88v716h88zM107 -121h-39v71h84v-47q0 -85 -71 -113l-18 36q24 11 32 21.5t12 31.5z" />
    <glyph glyph-name="Lcaron" unicode="&#x13d;" 
d="M523 0h-448v716h95v-632h353v-84zM342 616h-49v100h100v-100q0 -54 -18 -88.5t-63 -53.5l-25 38q30 14 42 38.5t13 65.5z" />
    <glyph glyph-name="lcaron" unicode="&#x13e;" horiz-adv-x="260" 
d="M154 0h-88v716h88v-716zM245 626h-43v90h88v-90q0 -97 -73 -128l-22 34q27 12 38 34.5t12 59.5z" />
    <glyph glyph-name="Ldot" unicode="&#x13f;" 
d="M522 0h-447v716h95v-632h352v-84zM399 309h-109v109h109v-109z" />
    <glyph glyph-name="ldot" unicode="&#x140;" horiz-adv-x="334" 
d="M154 0h-88v716h88v-716zM327 311h-100v100h100v-100z" />
    <glyph glyph-name="Lslash" unicode="&#x141;" 
d="M525 0h-448v278l-73 -62v82l73 62v356h95v-276l160 136v-82l-160 -136v-274h353v-84z" />
    <glyph glyph-name="lslash" unicode="&#x142;" horiz-adv-x="222" 
d="M155 716v-283l65 55v-77l-65 -55v-356h-88v281l-64 -54v77l64 54v358h88z" />
    <glyph glyph-name="Nacute" unicode="&#x143;" horiz-adv-x="722" 
d="M170 0h-91v716h97l376 -562v562h91v-716h-97l-376 562v-562zM376 766h-73l65 137h115z" />
    <glyph glyph-name="nacute" unicode="&#x144;" 
d="M147 518v-73q58 85 165 85q52 0 93 -20.5t62 -55.5q23 -40 23 -135v-319h-88v315q0 139 -109 139q-38 0 -70.5 -17.5t-48.5 -47.5q-18 -34 -18 -106v-283h-88v518h79zM294 583h-73l65 137h115z" />
    <glyph glyph-name="Ncommaaccent" unicode="&#x145;" horiz-adv-x="722" 
d="M170 0h-91v716h97l376 -562v562h91v-716h-97l-376 562v-562zM365 -121h-39v71h84v-47q0 -85 -71 -113l-18 36q24 11 32 21.5t12 31.5z" />
    <glyph glyph-name="ncommaaccent" unicode="&#x146;" 
d="M147 518v-73q58 85 165 85q52 0 93 -20.5t62 -55.5q23 -40 23 -135v-319h-88v315q0 139 -109 139q-38 0 -70.5 -17.5t-48.5 -47.5q-18 -34 -18 -106v-283h-88v518h79zM276 -121h-39v71h84v-47q0 -85 -71 -113l-18 36q24 11 32 21.5t12 31.5z" />
    <glyph glyph-name="Ncaron" unicode="&#x147;" horiz-adv-x="722" 
d="M170 0h-91v716h97l376 -562v562h91v-716h-97l-376 562v-562zM314 903l56 -83l53 83h100l-110 -137h-93l-106 137h100z" />
    <glyph glyph-name="ncaron" unicode="&#x148;" 
d="M147 518v-73q58 85 165 85q52 0 93 -20.5t62 -55.5q23 -40 23 -135v-319h-88v315q0 139 -109 139q-38 0 -70.5 -17.5t-48.5 -47.5q-18 -34 -18 -106v-283h-88v518h79zM232 720l56 -83l53 83h100l-110 -137h-93l-106 137h100z" />
    <glyph glyph-name="napostrophe" unicode="&#x149;" horiz-adv-x="604" 
d="M37 621h-46v102h94v-80q0 -65 -18 -99.5t-63 -54.5l-21 34q53 23 54 98zM194 518v-73q58 85 165 85q53 0 93.5 -20.5t61.5 -55.5q23 -40 23 -135v-319h-88v315q0 139 -109 139q-38 0 -70.5 -17.5t-48.5 -47.5q-18 -34 -18 -106v-283h-88v518h79z" />
    <glyph glyph-name="Eng" unicode="&#x14a;" horiz-adv-x="723" 
d="M81 0v716h95v-89q51 60 105 80.5t123 20.5q129 0 197.5 -92t68.5 -268q0 -182 -60 -281t-174 -99q-65 0 -121 35l42 75q47 -26 79 -26q63 0 100.5 75.5t37.5 218.5q0 282 -198 282q-65 0 -114 -31q-51 -31 -68.5 -77t-17.5 -149v-391h-95z" />
    <glyph glyph-name="eng" unicode="&#x14b;" 
d="M489 319v-347q0 -118 -37 -149q-39 -33 -93 -33q-36 0 -69 9l17 75q24 -7 41 -7q32 0 42.5 21.5t10.5 85.5v341q0 73 -25 106t-84 33q-50 0 -93 -34t-43 -137v-283h-88v519h79v-74q57 85 165 85q62 0 106 -27q42 -26 56.5 -65.5t14.5 -118.5z" />
    <glyph glyph-name="Omacron" unicode="&#x14c;" horiz-adv-x="778" 
d="M47 349q0 173 94 276t236 103q163 0 259 -101.5t96 -269.5q0 -166 -96.5 -267.5t-241.5 -101.5q-156 0 -251.5 104t-95.5 257zM145 347q0 -125 68 -201.5t176 -76.5q111 0 178 77t67 211q0 135 -68 212.5t-172 77.5q-117 0 -183 -77.5t-66 -222.5zM542 783h-305v71h305
v-71z" />
    <glyph glyph-name="omacron" unicode="&#x14d;" 
d="M35 259q0 129 67 200t176 71q120 0 189 -87q54 -69 54 -184q0 -130 -67 -200t-176 -70q-121 0 -189 86q-54 69 -54 184zM125 259q0 -94 42 -146t111 -52q70 0 111.5 52t41.5 146t-41.5 146.5t-111.5 52.5q-69 0 -111 -52t-42 -147zM430 600h-304v71h304v-71z" />
    <glyph glyph-name="Obreve" unicode="&#x14e;" horiz-adv-x="778" 
d="M47 349q0 173 94 276t236 103q163 0 259 -101.5t96 -269.5q0 -166 -96.5 -267.5t-241.5 -101.5q-156 0 -251.5 104t-95.5 257zM145 347q0 -125 68 -201.5t176 -76.5q111 0 178 77t67 211q0 135 -68 212.5t-172 77.5q-117 0 -183 -77.5t-66 -222.5zM245 897h60
q13 -65 84 -65t84 65h60q-7 -62 -45 -94t-98 -32q-62 0 -100 32t-45 94z" />
    <glyph glyph-name="obreve" unicode="&#x14f;" 
d="M35 259q0 129 67 200t176 71q120 0 189 -87q54 -69 54 -184q0 -130 -67 -200t-176 -70q-121 0 -189 86q-54 69 -54 184zM125 259q0 -94 41.5 -146t111.5 -52q69 0 111 52t42 146t-41.5 146.5t-111.5 52.5q-69 0 -111 -52t-42 -147zM134 715h60q14 -66 84 -66t84 66h60
q-7 -62 -45 -94.5t-98 -32.5q-62 0 -100 32.5t-45 94.5z" />
    <glyph glyph-name="Ohungarumlaut" unicode="&#x150;" horiz-adv-x="778" 
d="M47 349q0 173 94 276t236 103q163 0 259 -101.5t96 -269.5q0 -166 -96.5 -267.5t-241.5 -101.5q-156 0 -251.5 104t-95.5 257zM145 347q0 -125 68 -201.5t176 -76.5q111 0 178 77t67 211q0 135 -68 212.5t-172 77.5q-117 0 -183 -77.5t-66 -222.5zM322 766h-71l59 137
h115zM495 766h-74l62 137h113z" />
    <glyph glyph-name="ohungarumlaut" unicode="&#x151;" 
d="M35 259q0 129 67 200t176 71q120 0 189 -87q54 -69 54 -184q0 -130 -67 -200t-176 -70q-121 0 -189 86q-54 69 -54 184zM125 259q0 -94 42 -146t111 -52q70 0 111.5 52t41.5 146t-41.5 146.5t-111.5 52.5q-69 0 -111 -52t-42 -147zM210 583h-70l59 137h114zM383 583h-74
l62 137h113z" />
    <glyph glyph-name="OE" unicode="&#x152;" horiz-adv-x="1000" 
d="M547 619v97h406v-84h-317v-219h292v-84h-292v-245h332v-84h-421v103q-67 -115 -194 -115q-136 0 -213 99t-77 272t75.5 271t212.5 98q130 0 196 -109zM351 652q-85 0 -137.5 -75t-52.5 -217q0 -145 51.5 -220.5t138.5 -75.5q88 0 139.5 76t51.5 220q0 141 -52 216.5
t-139 75.5z" />
    <glyph glyph-name="oe" unicode="&#x153;" horiz-adv-x="944" 
d="M673 530q99 0 165.5 -73.5t66.5 -204.5v-16h-383q1 -79 44 -127t111 -48q101 0 133 108l88 -13q-22 -82 -79.5 -124.5t-143.5 -42.5q-135 0 -200 97q-73 -97 -199 -97q-106 0 -172 71t-66 203q0 121 66 194t172 73q142 0 199 -99q67 99 198 99zM128 260q0 -96 42 -147.5
t110 -51.5t110 54.5t42 158.5q0 80 -42 132t-110 52t-110 -54t-42 -144zM525 309h287q-6 73 -44.5 111t-96.5 38t-99 -39t-47 -110z" />
    <glyph glyph-name="Racute" unicode="&#x154;" horiz-adv-x="722" 
d="M175 0h-95v716h317q68 0 109.5 -8t76.5 -36q70 -56 70 -152q0 -80 -51.5 -130t-150.5 -64q73 -34 135 -131l125 -195h-119l-95 149q-69 108 -106.5 138t-106.5 30h-109v-317zM175 639v-238h204q79 0 114 18q62 32 62 101q0 54 -38.5 86.5t-115.5 32.5h-226zM381 766h-73
l65 137h115z" />
    <glyph glyph-name="racute" unicode="&#x155;" horiz-adv-x="333" 
d="M143 518v-78q25 45 49.5 67.5t64.5 22.5q45 0 89 -28l-30 -81q-32 19 -67 19q-46 0 -71.5 -42.5t-25.5 -125.5v-272h-88v518h79zM327 720l-107 -137h-73l65 137h115z" />
    <glyph glyph-name="Rcommaaccent" unicode="&#x156;" horiz-adv-x="722" 
d="M175 0h-95v716h317q68 0 109.5 -8t76.5 -36q70 -56 70 -152q0 -80 -51.5 -130t-150.5 -64q73 -34 135 -131l125 -195h-119l-95 149q-69 108 -106.5 138t-106.5 30h-109v-317zM175 639v-238h204q79 0 114 18q62 32 62 101q0 54 -38.5 86.5t-115.5 32.5h-226zM359 -121h-39
v71h84v-47q0 -85 -71 -113l-18 36q24 11 32 21.5t12 31.5z" />
    <glyph glyph-name="rcommaaccent" unicode="&#x157;" horiz-adv-x="333" 
d="M143 518v-78q25 45 49.5 67.5t64.5 22.5q45 0 89 -28l-30 -81q-32 19 -67 19q-46 0 -71.5 -42.5t-25.5 -125.5v-272h-88v518h79zM188 -121h-39v71h84v-47q0 -85 -71 -113l-18 36q24 11 32 21.5t12 31.5z" />
    <glyph glyph-name="Rcaron" unicode="&#x158;" horiz-adv-x="722" 
d="M175 0h-95v716h317q68 0 109.5 -8t76.5 -36q70 -56 70 -152q0 -80 -51.5 -130t-150.5 -64q73 -34 135 -131l125 -195h-119l-95 149q-69 108 -106.5 138t-106.5 30h-109v-317zM175 639v-238h204q79 0 114 18q62 32 62 101q0 54 -38.5 86.5t-115.5 32.5h-226zM309 903
l55 -83l54 83h100l-110 -137h-94l-105 137h100z" />
    <glyph glyph-name="rcaron" unicode="&#x159;" horiz-adv-x="333" 
d="M143 518v-78q25 45 49.5 67.5t64.5 22.5q45 0 89 -28l-30 -81q-32 19 -67 19q-45 0 -71 -42.5t-26 -125.5v-272h-88v518h79zM58 720h100l56 -83l53 83h100l-110 -137h-93z" />
    <glyph glyph-name="Sacute" unicode="&#x15a;" horiz-adv-x="667" 
d="M593 514l-91 -6q-8 69 -50 102.5t-124 33.5q-77 0 -120.5 -29t-43.5 -78q0 -66 69 -86q104 -31 202 -53q81 -19 130 -71t49 -125q0 -90 -71.5 -152t-193.5 -62q-144 0 -223 66t-81 176l90 8q5 -41 17.5 -68t40.5 -50q59 -47 153 -47q83 0 130.5 34t47.5 92q0 80 -128 110
q-111 27 -175 46q-67 19 -107 66t-40 110q0 87 67.5 142.5t182.5 55.5q123 0 193.5 -57.5t75.5 -157.5zM452 903l-107 -137h-73l65 137h115z" />
    <glyph glyph-name="sacute" unicode="&#x15b;" horiz-adv-x="500" 
d="M442 385l-86 -12q-12 85 -113 85q-53 0 -82.5 -18t-29.5 -50q0 -30 34 -47.5t82.5 -28t97.5 -24.5t83 -48.5t34 -88.5q0 -69 -56 -116.5t-146 -47.5q-103 0 -158.5 40t-70.5 126l87 13q15 -107 134 -107q57 0 88.5 23.5t31.5 58.5q0 27 -24 44t-60.5 25t-78.5 20
t-78.5 26t-60.5 45.5t-24 77.5q0 65 51.5 107t140.5 42q101 0 156 -48q38 -33 48 -97zM261 583h-73l66 137h115z" />
    <glyph glyph-name="Scircumflex" unicode="&#x15c;" horiz-adv-x="667" 
d="M593 514l-91 -6q-8 69 -49.5 102t-124.5 33q-77 0 -120.5 -28.5t-43.5 -77.5q0 -66 69 -86q104 -31 202 -53q81 -19 130 -71t49 -125q0 -90 -71.5 -152t-193.5 -62q-144 0 -223 66t-81 176l90 8q5 -41 17.5 -68t40.5 -50q59 -47 153 -47q83 0 130.5 34t47.5 92
q0 80 -128 110q-111 27 -175 46q-67 19 -107 66t-40 110q0 87 67.5 142t182.5 55q123 0 193.5 -57t75.5 -157zM398 764l-53 83l-56 -83h-100l106 137h93l110 -137h-100z" />
    <glyph glyph-name="scircumflex" unicode="&#x15d;" horiz-adv-x="500" 
d="M442 385l-86 -12q-12 85 -113 85q-53 0 -82.5 -18t-29.5 -50q0 -30 34 -47.5t82.5 -28t97.5 -24.5t83 -48.5t34 -88.5q0 -69 -56 -116.5t-146 -47.5q-103 0 -158.5 40t-70.5 126l87 13q15 -107 134 -107q57 0 88.5 23.5t31.5 58.5q0 27 -24 44t-60.5 25t-78.5 20
t-78.5 26t-60.5 45.5t-24 77.5q0 65 51.5 107t140.5 42q101 0 156 -48q38 -33 48 -97zM305 583l-53 83l-56 -83h-100l106 137h93l110 -137h-100z" />
    <glyph glyph-name="uni015E" unicode="&#x15e;" horiz-adv-x="667" 
d="M593 514l-91 -6q-8 69 -50 102.5t-124 33.5q-77 0 -120.5 -29t-43.5 -78q0 -66 69 -86q104 -31 202 -53q81 -19 130 -71t49 -125q0 -82 -60.5 -142t-169.5 -71l-6 -26q39 -5 60.5 -26t21.5 -51q0 -46 -43 -71t-125 -25q-36 0 -54 1l3 62q17 -2 45 -2q89 0 89 35t-83 37
l24 66q-74 6 -123 24.5t-87 60.5q-60 65 -61 156l90 8q5 -41 17.5 -68t40.5 -50q59 -47 153 -47q83 0 130.5 34t47.5 92q0 80 -128 110q-111 27 -175 46q-67 19 -107 66t-40 110q0 87 67.5 142.5t182.5 55.5q123 0 193.5 -57.5t75.5 -157.5z" />
    <glyph glyph-name="uni015F" unicode="&#x15f;" horiz-adv-x="500" 
d="M205 -72l14 62q-161 9 -188 165l87 13q15 -107 134 -107q57 0 88.5 23.5t31.5 58.5q0 27 -24 44t-60.5 25t-78.5 20t-78.5 26t-60.5 45.5t-24 77.5q0 65 51.5 107t140.5 42q101 0 156 -48q38 -33 48 -97l-86 -12q-12 85 -113 85q-53 0 -82.5 -18t-29.5 -50
q0 -30 34 -47.5t82.5 -28t97.5 -24.5t83 -48.5t34 -88.5q0 -63 -49 -110t-129 -54l-7 -25q39 -4 60 -23.5t21 -49.5q0 -40 -36.5 -63.5t-103.5 -23.5q-29 0 -54 4l2 58q36 -4 47 -4q63 0 63 34q0 32 -71 32z" />
    <glyph glyph-name="Scaron" unicode="&#x160;" horiz-adv-x="667" 
d="M593 514l-91 -6q-8 69 -49.5 102t-124.5 33q-77 0 -120.5 -28.5t-43.5 -77.5q0 -66 69 -86q104 -31 202 -53q81 -19 130 -71t49 -125q0 -90 -71.5 -152t-193.5 -62q-144 0 -223 66t-81 176l90 8q5 -41 17.5 -68t40.5 -50q59 -47 153 -47q83 0 130.5 34t47.5 92
q0 80 -128 110q-111 27 -175 46q-67 19 -107 66t-40 110q0 87 67.5 142t182.5 55q123 0 193.5 -57t75.5 -157zM287 901l56 -83l53 83h100l-110 -137h-93l-106 137h100z" />
    <glyph glyph-name="scaron" unicode="&#x161;" horiz-adv-x="500" 
d="M442 385l-86 -12q-12 85 -113 85q-53 0 -82.5 -18t-29.5 -50q0 -30 34 -47.5t82.5 -28t97.5 -24.5t83 -48.5t34 -88.5q0 -69 -56 -116.5t-146 -47.5q-103 0 -158.5 40t-70.5 126l87 13q15 -107 134 -107q57 0 88.5 23.5t31.5 58.5q0 27 -24 44t-60.5 25t-78.5 20
t-78.5 26t-60.5 45.5t-24 77.5q0 65 51.5 107t140.5 42q101 0 156 -48q38 -33 48 -97zM203 720l56 -83l53 83h100l-110 -137h-93l-106 137h100z" />
    <glyph glyph-name="uni0162" unicode="&#x162;" horiz-adv-x="611" 
d="M352 632v-632h-95v632h-236v84h568v-84h-237zM301 -121h-39v71h84v-47q0 -85 -71 -113l-18 36q24 11 32 21.5t12 31.5z" />
    <glyph glyph-name="uni0163" unicode="&#x163;" horiz-adv-x="278" 
d="M168 452v-310q0 -22 1 -31.5t5 -21.5t14.5 -16t28.5 -4q1 0 39 5l13 -78q-36 -8 -65 -8q-36 0 -61 10t-37 22t-18.5 38t-7 41t-0.5 48v305h-64v66h64v129l88 53v-182h88v-66h-88zM161 -121h-39v71h84v-47q0 -85 -71 -113l-18 36q24 11 32 21.5t12 31.5z" />
    <glyph glyph-name="Tcaron" unicode="&#x164;" horiz-adv-x="611" 
d="M352 632v-632h-95v632h-236v84h568v-84h-237zM151 903h100l56 -83l53 83h100l-110 -137h-93z" />
    <glyph glyph-name="tcaron" unicode="&#x165;" horiz-adv-x="278" 
d="M251 645h-39v71h84v-46q0 -89 -68 -115l-22 33q38 16 45 57zM168 452v-310q0 -22 1 -31.5t5 -21.5t14.5 -16t28.5 -4q1 0 39 5l13 -78q-36 -8 -65 -8q-36 0 -61 10t-37 22t-18.5 38t-7 41t-0.5 48v305h-64v66h64v129l88 53v-182h88v-66h-88z" />
    <glyph glyph-name="Tbar" unicode="&#x166;" horiz-adv-x="611" 
d="M352 0h-95v307h-176v65h176v260h-236v84h568v-84h-237v-260h178v-65h-178v-307z" />
    <glyph glyph-name="tbar" unicode="&#x167;" horiz-adv-x="278" 
d="M168 452v-137h100v-64h-100v-109q0 -22 1 -31.5t5 -21.5t14.5 -16t28.5 -4q1 0 39 5l13 -78q-36 -8 -65 -8q-36 0 -61 10t-37 22t-18.5 38t-7 41t-0.5 48v104h-76v64h76v137h-64v66h64v129l88 53v-182h88v-66h-88z" />
    <glyph glyph-name="Utilde" unicode="&#x168;" horiz-adv-x="722" 
d="M547 303v413h95v-413q0 -96 -17 -154t-69 -101q-71 -60 -195 -60q-125 0 -197 60q-52 43 -68.5 100.5t-16.5 154.5v413h95v-413q0 -72 9.5 -112.5t38.5 -69.5q48 -48 134 -48q96 0 144 48q30 30 38.5 69.5t8.5 112.5zM298 823q-15 0 -25.5 -11.5t-10.5 -29.5v-6h-65v10
q0 41 27.5 71.5t72.5 30.5q27 0 69.5 -20.5t58.5 -20.5q17 0 24.5 9.5t10.5 32.5h64q-2 -55 -28 -83t-66 -28q-32 0 -74 22.5t-58 22.5z" />
    <glyph glyph-name="utilde" unicode="&#x169;" 
d="M399 241v277h88v-518h-79v76q-61 -88 -165 -88q-51 0 -91.5 20.5t-61.5 55.5q-24 39 -24 133v321h88v-328q0 -126 113 -126q53 0 93 40q24 24 31.5 55t7.5 82zM214 642q-15 0 -25.5 -11.5t-10.5 -29.5v-6h-65v10q0 41 27.5 71.5t72.5 30.5q27 0 69.5 -20.5t58.5 -20.5
q17 0 24.5 9.5t10.5 32.5h64q-2 -55 -28 -83t-66 -28q-32 0 -74 22.5t-58 22.5z" />
    <glyph glyph-name="Umacron" unicode="&#x16a;" horiz-adv-x="722" 
d="M547 303v413h95v-413q0 -96 -17 -154t-69 -101q-71 -60 -195 -60q-125 0 -197 60q-52 43 -68.5 100.5t-16.5 154.5v413h95v-413q0 -72 9.5 -112.5t38.5 -69.5q48 -48 134 -48q96 0 144 48q30 30 38.5 69.5t8.5 112.5zM513 783h-305v71h305v-71z" />
    <glyph glyph-name="umacron" unicode="&#x16b;" 
d="M399 241v277h88v-518h-79v76q-61 -88 -165 -88q-51 0 -91.5 20.5t-61.5 55.5q-24 39 -24 133v321h88v-328q0 -126 113 -126q53 0 93 40q24 24 31.5 55t7.5 82zM429 600h-305v71h305v-71z" />
    <glyph glyph-name="Ubreve" unicode="&#x16c;" horiz-adv-x="722" 
d="M547 303v413h95v-413q0 -96 -17 -154t-69 -101q-71 -60 -195 -60q-125 0 -197 60q-52 43 -68.5 100.5t-16.5 154.5v413h95v-413q0 -72 9.5 -112.5t38.5 -69.5q48 -48 134 -48q96 0 144 48q30 30 38.5 69.5t8.5 112.5zM217 897h60q13 -65 84 -65t84 65h60q-7 -62 -45 -94
t-98 -32q-62 0 -100 32t-45 94z" />
    <glyph glyph-name="ubreve" unicode="&#x16d;" 
d="M399 241v277h88v-518h-79v76q-61 -88 -165 -88q-51 0 -91.5 20.5t-61.5 55.5q-24 39 -24 133v321h88v-328q0 -126 113 -126q53 0 93 40q24 24 31.5 55t7.5 82zM133 715h60q13 -66 84 -66t84 66h60q-7 -62 -45 -94.5t-98 -32.5q-62 0 -100 32.5t-45 94.5z" />
    <glyph glyph-name="Uring" unicode="&#x16e;" horiz-adv-x="722" 
d="M547 303v413h95v-413q0 -96 -17 -154t-69 -101q-71 -60 -195 -60q-125 0 -197 60q-52 43 -68.5 100.5t-16.5 154.5v413h95v-413q0 -72 9.5 -112.5t38.5 -69.5q48 -48 134 -48q96 0 144 48q30 30 38.5 69.5t8.5 112.5zM273 836q0 35 26 61.5t64 26.5q34 0 60 -26t26 -64
q0 -37 -25.5 -63t-62.5 -26q-36 0 -62 26t-26 65zM311 836q0 -23 15 -39t36 -16t36.5 16t15.5 38t-15.5 37.5t-36.5 15.5q-22 0 -36.5 -15.5t-14.5 -36.5z" />
    <glyph glyph-name="uring" unicode="&#x16f;" 
d="M399 241v277h88v-518h-79v76q-61 -88 -165 -88q-51 0 -91.5 20.5t-61.5 55.5q-24 39 -24 133v321h88v-328q0 -126 113 -126q53 0 93 40q24 24 31.5 55t7.5 82zM190 653q0 35 25 61.5t63 26.5q34 0 60 -26t26 -64q0 -37 -25 -62.5t-62 -25.5q-36 0 -61.5 25.5t-25.5 64.5z
M225 653q0 -23 16 -38.5t37 -15.5q22 0 36.5 15.5t14.5 37.5t-14.5 37.5t-36.5 15.5t-37.5 -15.5t-15.5 -36.5z" />
    <glyph glyph-name="Uhungarumlaut" unicode="&#x170;" horiz-adv-x="722" 
d="M547 303v413h95v-413q0 -96 -17 -154t-69 -101q-71 -60 -195 -60q-125 0 -197 60q-52 43 -68.5 100.5t-16.5 154.5v413h95v-413q0 -72 9.5 -112.5t38.5 -69.5q48 -48 134 -48q96 0 144 48q30 30 38.5 69.5t8.5 112.5zM293 766h-70l59 137h114zM466 766h-74l62 137h113z
" />
    <glyph glyph-name="uhungarumlaut" unicode="&#x171;" 
d="M399 241v277h88v-518h-79v76q-61 -88 -165 -88q-51 0 -91.5 20.5t-61.5 55.5q-24 39 -24 133v321h88v-328q0 -126 113 -126q53 0 93 40q24 24 31.5 55t7.5 82zM208 583h-70l59 137h115zM381 583h-74l62 137h114z" />
    <glyph glyph-name="Uogonek" unicode="&#x172;" horiz-adv-x="722" 
d="M531 -120v-58q-56 -29 -96 -29q-57 0 -87 28.5t-30 78.5q0 41 12 89q-100 5 -166 59q-52 43 -68.5 100.5t-16.5 154.5v413h95v-413q0 -72 9.5 -112.5t38.5 -69.5q48 -48 134 -48q96 0 144 48q30 30 38.5 69.5t8.5 112.5v413h95v-413q0 -96 -17 -154t-69 -101
q-64 -54 -167 -59q-10 -29 -10 -55q0 -35 20 -56t53 -21t79 23z" />
    <glyph glyph-name="uogonek" unicode="&#x173;" 
d="M487 0h-20q-14 -38 -14 -66q0 -34 20 -55t53 -21q35 0 79 22v-58q-55 -29 -107 -29q-48 0 -77.5 29t-29.5 78q0 20 3 39t8 38.5t6 22.5v76q-61 -88 -165 -88q-51 0 -91.5 20.5t-61.5 55.5q-24 39 -24 133v321h88v-328q0 -126 113 -126q53 0 93 40q24 24 31.5 55t7.5 82
v277h88v-518z" />
    <glyph glyph-name="Wcircumflex" unicode="&#x174;" horiz-adv-x="944" 
d="M297 0h-97l-190 716h97l109 -470q21 -94 31 -146q2 9 13.5 58.5t18.5 74.5l136 483h114l103 -362q38 -134 56 -254q16 78 35 156l112 460h95l-196 -716h-91l-151 545q-16 53 -23 85q-6 -28 -21 -85zM531 764l-53 83l-56 -83h-100l106 137h93l110 -137h-100z" />
    <glyph glyph-name="wcircumflex" unicode="&#x175;" horiz-adv-x="722" 
d="M256 0h-92l-159 518h91l82 -299q4 -13 8.5 -30.5t11.5 -41.5t11 -39q8 37 27 107l82 303h91l77 -300q1 -3 11 -39.5t15 -59.5q7 26 30 100l89 299h86l-163 -518h-91l-83 311q-6 21 -12.5 53.5t-7.5 34.5zM418 583l-53 83l-56 -83h-100l106 137h93l110 -137h-100z" />
    <glyph glyph-name="Ycircumflex" unicode="&#x176;" horiz-adv-x="667" 
d="M374 0h-95v303l-276 413h116l140 -216q41 -63 73 -121q28 49 79 127l138 210h110l-285 -413v-303zM386 764l-53 83l-56 -83h-100l106 137h93l110 -137h-100z" />
    <glyph glyph-name="ycircumflex" unicode="&#x177;" horiz-adv-x="500" 
d="M491 518l-197 -527q-17 -45 -26 -67.5t-25.5 -53.5t-32 -45t-39 -24.5t-52.5 -10.5t-57 10l-10 83q35 -8 52 -8q18 0 32 5t22.5 9.5t17.5 20t12 22.5t12 32.5t13 34.5l-197 519h95l108 -300q19 -53 37 -120q17 64 37 119l110 301h88zM308 583l-53 83l-56 -83h-100
l106 137h93l110 -137h-100z" />
    <glyph glyph-name="Ydieresis" unicode="&#x178;" horiz-adv-x="667" 
d="M376 0h-95v303l-276 413h116l140 -216q41 -63 73 -121q28 49 79 127l138 210h110l-285 -413v-303zM291 801h-91v100h81zM473 801h-91v100h91v-100z" />
    <glyph glyph-name="Zacute" unicode="&#x179;" horiz-adv-x="611" 
d="M584 84v-84h-566v88l367 458q45 55 74 86h-400v84h513v-84l-402 -497q-7 -8 -21.5 -25.5t-21.5 -25.5h457zM423 903l-107 -137h-73l65 137h115z" />
    <glyph glyph-name="zacute" unicode="&#x17a;" horiz-adv-x="500" 
d="M265 583h-73l65 137h115zM479 0h-459v71l330 379q-78 -5 -99 -5h-211v73h424v-57l-281 -329q-11 -13 -30.5 -34t-24.5 -27q62 5 111 5h240v-76z" />
    <glyph glyph-name="Zdotaccent" unicode="&#x17b;" horiz-adv-x="611" 
d="M584 84v-84h-566v88l367 458q45 55 74 86h-400v84h513v-84l-402 -497q-7 -8 -21.5 -25.5t-21.5 -25.5h457zM356 875v-109h-109v109h109z" />
    <glyph glyph-name="zdotaccent" unicode="&#x17c;" horiz-adv-x="500" 
d="M304 583h-109v109h109v-109zM479 0h-459v71l330 379q-78 -5 -99 -5h-211v73h424v-57l-281 -329q-11 -13 -30.5 -34t-24.5 -27q62 5 111 5h240v-76z" />
    <glyph glyph-name="Zcaron" unicode="&#x17d;" horiz-adv-x="611" 
d="M584 0h-566v88l367 458q45 55 74 86h-400v84h513v-84l-402 -497q-7 -8 -21.5 -25.5t-21.5 -25.5h457v-84zM259 901l56 -83l53 83h100l-110 -137h-93l-106 137h100z" />
    <glyph glyph-name="zcaron" unicode="&#x17e;" horiz-adv-x="500" 
d="M479 0h-459v71l330 379q-78 -5 -99 -5h-211v73h424v-57l-281 -329q-11 -13 -30.5 -34t-24.5 -27q62 5 111 5h240v-76zM203 720l56 -83l53 83h100l-110 -137h-93l-106 137h100z" />
    <glyph glyph-name="longs" unicode="&#x17f;" horiz-adv-x="222" 
d="M155 0h-88v574q-1 81 31.5 115.5t111.5 38.5q38 0 82 -9l-13 -76q-23 4 -51 4q-43 0 -58 -18t-15 -63v-566z" />
    <glyph glyph-name="florin" unicode="&#x192;" 
d="M354 452l-93 -535q-12 -69 -41 -97.5t-89 -28.5q-50 0 -106 11l17 76q48 -11 76 -11q22 0 35.5 12t17.5 25.5t8 37.5l86 510h-98l12 66h98l12 66q13 74 41.5 109.5t101.5 35.5q30 0 101 -19l-18 -75q-60 13 -78 13q-31 0 -42.5 -19t-18.5 -60l-9 -51h99l-12 -66h-100z
" />
    <glyph glyph-name="AEacute" unicode="&#x1fc;" horiz-adv-x="1000" 
d="M526 766h-73l65 137h115zM102 0h-102l344 716h588v-84h-360v-221h334v-84h-334v-243h373v-84h-468v207h-277zM406 632l-166 -341h237v341h-71z" />
    <glyph glyph-name="aeacute" unicode="&#x1fd;" horiz-adv-x="889" 
d="M617 530q111 0 172 -75t61 -190q0 -3 -0.5 -13.5t-0.5 -14.5h-374q1 -85 43 -130.5t105 -45.5q52 0 87 29.5t47 80.5l91 -12q-24 -81 -82.5 -125.5t-141.5 -44.5q-125 0 -197 96q-98 -98 -210 -98q-79 0 -124 35q-58 44 -58 115q0 42 24 78t67 56q39 18 127 30.5
t134 25.5q0 2 0.5 5.5t0.5 5.5q0 65 -22.5 92.5t-96.5 27.5q-71 0 -97 -25t-37 -75l-86 10q19 82 72 122t147 40q76 0 119 -16t66 -54q65 70 164 70zM389 231v29q-33 -14 -85 -23.5t-87 -14t-61.5 -25t-26.5 -57.5q0 -36 26 -58.5t74 -22.5t88 21t59 59q13 25 13 92z
M475 310h285q-13 148 -141 148q-63 0 -101 -39.5t-43 -108.5zM468 583h-73l65 137h115z" />
    <glyph glyph-name="Oslashacute" unicode="&#x1fe;" horiz-adv-x="778" 
d="M404 764h-73l65 137h115zM47 349q0 173 94 276t236 103q139 0 233 -77l81 91l48 -41l-85 -95q78 -100 78 -249q0 -166 -96.5 -267.5t-241.5 -101.5q-132 0 -223 77l-84 -94l-48 41l87 98q-79 98 -79 239zM145 347q0 -99 43 -168l363 406q-64 62 -157 62
q-117 0 -183 -77.5t-66 -222.5zM634 357q0 106 -44 178l-362 -406q66 -60 161 -60q111 0 178 77t67 211z" />
    <glyph glyph-name="oslashacute" unicode="&#x1ff;" 
d="M43 -4l53 69q-61 70 -61 187q0 123 54 191q69 87 188 87q75 0 144 -42l48 63l47 -35l-52 -67q32 -43 44.5 -85t12.5 -103q0 -118 -54 -186q-68 -86 -190 -86q-79 0 -137 39l-51 -67zM151 137l220 286q-45 35 -93 35q-69 0 -111 -52t-42 -146q0 -71 26 -123zM408 376
l-219 -285q37 -30 89 -30q68 0 110.5 51.5t42.5 146.5q0 65 -23 117zM297 583h-73l65 137h115z" />
    <glyph glyph-name="uni0218" unicode="&#x218;" horiz-adv-x="667" 
d="M593 514l-91 -6q-8 69 -50 102.5t-124 33.5q-77 0 -120.5 -29t-43.5 -78q0 -66 69 -86q104 -31 202 -53q81 -19 130 -71t49 -125q0 -90 -71.5 -152t-193.5 -62q-144 0 -223 66t-81 176l90 8q5 -41 17.5 -68t40.5 -50q59 -47 153 -47q83 0 130.5 34t47.5 92q0 80 -128 110
q-111 27 -175 46q-67 19 -107 66t-40 110q0 87 67.5 142.5t182.5 55.5q123 0 193.5 -57.5t75.5 -157.5zM344 -121h-39v71h84v-47q0 -85 -71 -113l-18 36q24 11 32 21.5t12 31.5z" />
    <glyph glyph-name="uni0219" unicode="&#x219;" horiz-adv-x="500" 
d="M442 385l-86 -12q-12 85 -113 85q-53 0 -82.5 -18t-29.5 -50q0 -30 34 -47.5t82.5 -28t97.5 -24.5t83 -48.5t34 -88.5q0 -69 -56 -116.5t-146 -47.5q-103 0 -158.5 40t-70.5 126l87 13q15 -107 134 -107q57 0 88.5 23.5t31.5 58.5q0 27 -24 44t-60.5 25t-78.5 20
t-78.5 26t-60.5 45.5t-24 77.5q0 65 51.5 107t140.5 42q101 0 156 -48q38 -33 48 -97zM246 -121h-39v71h84v-47q0 -85 -71 -113l-18 36q24 11 32 21.5t12 31.5z" />
    <glyph glyph-name="uni021A" unicode="&#x21a;" horiz-adv-x="611" 
d="M352 632v-632h-95v632h-236v84h568v-84h-237zM301 -121h-39v71h84v-47q0 -85 -71 -113l-18 36q24 11 32 21.5t12 31.5z" />
    <glyph glyph-name="uni021B" unicode="&#x21b;" horiz-adv-x="278" 
d="M168 452v-310q0 -22 1 -31.5t5 -21.5t14.5 -16t28.5 -4q1 0 39 5l13 -78q-36 -8 -65 -8q-36 0 -61 10t-37 22t-18.5 38t-7 41t-0.5 48v305h-64v66h64v129l88 53v-182h88v-66h-88zM161 -121h-39v71h84v-47q0 -85 -71 -113l-18 36q24 11 32 21.5t12 31.5z" />
    <glyph glyph-name="circumflex" unicode="&#x2c6;" horiz-adv-x="333" 
d="M221 583l-53 83l-56 -83h-100l106 137h93l110 -137h-100z" />
    <glyph glyph-name="caron" unicode="&#x2c7;" horiz-adv-x="333" 
d="M112 720l56 -83l53 83h100l-110 -137h-93l-106 137h100z" />
    <glyph glyph-name="uni02C9" unicode="&#x2c9;" horiz-adv-x="333" 
d="M319 599h-305v73h305v-73z" />
    <glyph glyph-name="breve" unicode="&#x2d8;" horiz-adv-x="333" 
d="M22 715h60q14 -66 84 -66q71 0 84 66h61q-7 -62 -45.5 -94.5t-98.5 -32.5q-62 0 -100 32.5t-45 94.5z" />
    <glyph glyph-name="dotaccent" unicode="&#x2d9;" horiz-adv-x="333" 
d="M230 583h-109v109h109v-109z" />
    <glyph glyph-name="ring" unicode="&#x2da;" horiz-adv-x="333" 
d="M79 653q0 35 25.5 61.5t63.5 26.5q35 0 61 -26.5t26 -63.5t-25.5 -63t-62.5 -26t-62.5 26t-25.5 65zM116 653q0 -23 15.5 -38.5t36.5 -15.5q22 0 36.5 15.5t14.5 37.5t-14.5 37.5t-36.5 15.5t-37 -15.5t-15 -36.5z" />
    <glyph glyph-name="ogonek" unicode="&#x2db;" horiz-adv-x="333" 
d="M302 -120v-58q-56 -29 -96 -29q-57 0 -87 28.5t-30 78.5q0 49 19 112h61q-19 -43 -19 -78t20 -56t53 -21t79 23z" />
    <glyph glyph-name="tilde" unicode="&#x2dc;" horiz-adv-x="333" 
d="M103 642q-15 0 -25.5 -11.5t-10.5 -29.5v-6h-65v10q0 41 27.5 71.5t72.5 30.5q27 0 69.5 -20.5t58.5 -20.5q17 0 24.5 9.5t10.5 32.5h64q-2 -55 -28 -83t-66 -28q-32 0 -74 22.5t-58 22.5z" />
    <glyph glyph-name="hungarumlaut" unicode="&#x2dd;" horiz-adv-x="333" 
d="M98 583h-70l59 137h114zM271 583h-74l62 137h113z" />
    <glyph glyph-name="uni0394" unicode="&#x394;" horiz-adv-x="682" 
d="M6 0l275 716h102l292 -716h-669zM289 498l-152 -413h398l-157 414q-31 82 -46 138q-17 -66 -43 -139z" />
    <glyph glyph-name="uni03A9" unicode="&#x3a9;" horiz-adv-x="758" 
d="M52 85h157q-149 119 -149 306q0 144 84.5 240.5t234.5 96.5q148 0 233.5 -97t85.5 -240q0 -181 -149 -306h157v-85h-279v80q174 83 174 295q0 121 -60.5 196.5t-161.5 75.5q-99 0 -160 -76t-61 -196q0 -208 173 -295v-80h-279v85z" />
    <glyph glyph-name="uni03BC" unicode="&#x3bc;" horiz-adv-x="553" 
d="M154 50v-249h-88v717h88v-309q0 -72 23.5 -108.5t83.5 -36.5q22 0 44 7t44 23.5t36 49.5t14 79v295h88v-518h-79v76h-2q-65 -88 -138 -88q-35 0 -66.5 18t-47.5 44z" />
    <glyph glyph-name="pi" unicode="&#x3c0;" horiz-adv-x="678" 
d="M231 446v-446h-88v446h-127v72h646v-72h-128v-446h-88v446h-215z" />
    <glyph glyph-name="Wgrave" unicode="&#x1e80;" horiz-adv-x="944" 
d="M297 0h-97l-190 716h97l109 -470q21 -94 31 -146q2 9 13.5 58.5t18.5 74.5l136 483h114l103 -362q38 -134 56 -254q16 78 35 156l112 460h95l-196 -716h-91l-151 545q-16 53 -23 85q-6 -28 -21 -85zM463 901l66 -137h-71l-113 137h118z" />
    <glyph glyph-name="wgrave" unicode="&#x1e81;" horiz-adv-x="722" 
d="M256 0h-92l-159 518h91l82 -299q4 -13 8.5 -30.5t11.5 -41.5t11 -39q8 37 27 107l82 303h91l77 -300q1 -3 11 -39.5t15 -59.5q7 26 30 100l89 299h86l-163 -518h-91l-83 311q-6 21 -12.5 53.5t-7.5 34.5zM352 720l66 -137h-71l-113 137h118z" />
    <glyph glyph-name="Wacute" unicode="&#x1e82;" horiz-adv-x="944" 
d="M297 0h-97l-190 716h97l109 -470q21 -94 31 -146q2 9 13.5 58.5t18.5 74.5l136 483h114l103 -362q38 -134 56 -254q16 78 35 156l112 460h95l-196 -716h-91l-151 545q-16 53 -23 85q-6 -28 -21 -85zM492 764h-73l65 137h115z" />
    <glyph glyph-name="wacute" unicode="&#x1e83;" horiz-adv-x="722" 
d="M256 0h-92l-159 518h91l82 -299q4 -13 8.5 -30.5t11.5 -41.5t11 -39q8 37 27 107l82 303h91l77 -300q1 -3 11 -39.5t15 -59.5q7 26 30 100l89 299h86l-163 -518h-91l-83 311q-6 21 -12.5 53.5t-7.5 34.5zM383 583h-73l65 137h115z" />
    <glyph glyph-name="Wdieresis" unicode="&#x1e84;" horiz-adv-x="944" 
d="M297 0h-97l-190 716h97l109 -470q21 -94 31 -146q2 9 13.5 58.5t18.5 74.5l136 483h114l103 -362q38 -134 56 -254q16 78 35 156l112 460h95l-196 -716h-91l-151 545q-16 53 -23 85q-6 -28 -21 -85zM426 801h-91v100h91v-100zM608 801h-91v100h91v-100z" />
    <glyph glyph-name="wdieresis" unicode="&#x1e85;" horiz-adv-x="722" 
d="M256 0h-92l-159 518h91l82 -299q4 -13 8.5 -30.5t11.5 -41.5t11 -39q8 37 27 107l82 303h91l77 -300q1 -3 11 -39.5t15 -59.5q7 26 30 100l89 299h86l-163 -518h-91l-83 311q-6 21 -12.5 53.5t-7.5 34.5zM318 620h-91v100h91v-100zM500 620h-91v100h91v-100z" />
    <glyph glyph-name="Ygrave" unicode="&#x1ef2;" horiz-adv-x="667" 
d="M374 0h-95v303l-276 413h116l140 -216q41 -63 73 -121q28 49 79 127l138 210h110l-285 -413v-303zM312 901l66 -137h-71l-113 137h118z" />
    <glyph glyph-name="ygrave" unicode="&#x1ef3;" horiz-adv-x="500" 
d="M491 518l-197 -527q-17 -45 -26 -67.5t-25.5 -53.5t-32 -45t-39 -24.5t-52.5 -10.5t-57 10l-10 83q35 -8 52 -8q18 0 32 5t22.5 9.5t17.5 20t12 22.5t12 32.5t13 34.5l-197 519h95l108 -300q19 -53 37 -120q17 64 37 119l110 301h88zM242 720l66 -137h-71l-113 137h118z
" />
    <glyph glyph-name="endash" unicode="&#x2013;" 
d="M562 223h-568v73h568v-73z" />
    <glyph glyph-name="emdash" unicode="&#x2014;" horiz-adv-x="1000" 
d="M1006 223h-1012v73h1012v-73z" />
    <glyph glyph-name="quoteleft" unicode="&#x2018;" horiz-adv-x="222" 
d="M112 595h47v-100h-95v102q0 95 81 131l21 -34q-30 -12 -41 -36.5t-13 -62.5z" />
    <glyph glyph-name="quoteright" unicode="&#x2019;" horiz-adv-x="222" 
d="M78 482l-22 34q50 22 54 100h-46v100h95v-103q0 -95 -81 -131z" />
    <glyph glyph-name="quotesinglbase" unicode="&#x201a;" horiz-adv-x="222" 
d="M107 0h-46v100h95v-101q0 -95 -81 -131l-22 34q51 22 54 98z" />
    <glyph glyph-name="quotedblleft" unicode="&#x201c;" horiz-adv-x="333" 
d="M91 595h47v-100h-95v102q0 95 81 131l21 -34q-30 -12 -41 -36.5t-13 -62.5zM243 595h46v-100h-95v102q0 95 81 131l22 -34q-30 -12 -41 -36.5t-13 -62.5z" />
    <glyph glyph-name="quotedblright" unicode="&#x201d;" horiz-adv-x="333" 
d="M58 482l-22 34q50 22 54 100h-46v100h95v-103q0 -95 -81 -131zM209 482l-22 34q50 20 54 100h-46v100h95v-103q0 -95 -81 -131z" />
    <glyph glyph-name="quotedblbase" unicode="&#x201e;" horiz-adv-x="333" 
d="M90 0h-46v100h95v-101q0 -95 -81 -131l-22 34q51 22 54 98zM241 0h-46v100h95v-101q0 -95 -81 -131l-22 34q51 20 54 98z" />
    <glyph glyph-name="dagger" unicode="&#x2020;" 
d="M322 -169h-88v593h-195v76h195v199h88v-199h196v-76h-196v-593z" />
    <glyph glyph-name="daggerdbl" unicode="&#x2021;" 
d="M323 -169h-88v182h-196v76h196v357h-196v76h196v184h88v-184h197v-76h-197v-357h197v-76h-197v-182z" />
    <glyph glyph-name="bullet" unicode="&#x2022;" horiz-adv-x="350" 
d="M51 351q0 51 36.5 87t87.5 36t87 -36t36 -87t-36 -87.5t-87 -36.5t-87.5 36.5t-36.5 87.5z" />
    <glyph glyph-name="ellipsis" unicode="&#x2026;" horiz-adv-x="1000" 
d="M217 0h-100v100h100v-100zM551 0h-100v100h100v-100zM884 0h-100v100h100v-100z" />
    <glyph glyph-name="perthousand" unicode="&#x2030;" horiz-adv-x="1000" 
d="M18 543q0 90 36 137.5t103 47.5q66 0 103 -47t37 -137q0 -195 -139 -195q-67 0 -103.5 50t-36.5 144zM90 539q0 -65 16 -97t54 -32q65 0 65 128q0 129 -68 129q-37 0 -52 -32t-15 -96zM513 728l-293 -754h-65l294 754h64zM372 165q0 90 36 139t103 49q66 0 103.5 -48
t37.5 -138q0 -193 -140 -193q-67 0 -103.5 48.5t-36.5 142.5zM444 161q0 -64 16 -95t54 -31q66 0 66 126q0 131 -67 131q-69 0 -69 -131zM701 165q0 90 36.5 139t103.5 49q66 0 103 -48t37 -138q0 -193 -140 -193q-67 0 -103.5 48.5t-36.5 142.5zM773 161q0 -64 16 -95
t54 -31q66 0 66 126q0 131 -68 131q-37 0 -52.5 -33t-15.5 -98z" />
    <glyph glyph-name="guilsinglleft" unicode="&#x2039;" horiz-adv-x="333" 
d="M271 481l-130 -224l130 -222h-73l-154 222l154 224h73z" />
    <glyph glyph-name="guilsinglright" unicode="&#x203a;" horiz-adv-x="333" 
d="M62 35l129 224l-129 222h73l154 -222l-154 -224h-73z" />
    <glyph glyph-name="fraction" unicode="&#x2044;" horiz-adv-x="167" 
d="M-145 -12h-77l519 731h76z" />
    <glyph glyph-name="zero.superior" unicode="&#x2070;" horiz-adv-x="333" 
d="M167 667q-76 0 -76 -128q0 -127 75 -127q76 0 76 127q0 128 -75 128zM167 728q70 0 111 -51.5t41 -137.5t-41 -137t-111 -51t-111 51t-41 137t41 137.5t111 51.5z" />
    <glyph glyph-name="i.superior" unicode="&#x2071;" horiz-adv-x="178" 
d="M53 236v350h72v-350h-72zM53 640v76h72v-76h-72z" />
    <glyph glyph-name="four.superior" unicode="&#x2074;" horiz-adv-x="333" 
d="M86 489h112v128zM269 361h-71v75h-187v60l197 232h61v-239h50v-53h-50v-75z" />
    <glyph glyph-name="five.superior" unicode="&#x2075;" horiz-adv-x="333" 
d="M16 454l70 9q14 -51 72 -51q37 0 59.5 20t22.5 51q0 30 -20.5 50t-52.5 20q-34 0 -68 -31l-69 12l39 185h229v-59h-182l-17 -78q38 25 82 25q55 0 93.5 -36t38.5 -88q0 -58 -44.5 -95t-108.5 -37q-119 0 -144 103z" />
    <glyph glyph-name="six.superior" unicode="&#x2076;" horiz-adv-x="333" 
d="M169 542q-31 0 -54 -19.5t-23 -51.5q0 -26 19.5 -42.5t53.5 -16.5t53.5 18t19.5 47q0 28 -19 46.5t-50 18.5zM82 549q39 50 104 50q56 0 92 -34.5t36 -85.5q0 -53 -41 -90.5t-103 -37.5q-79 0 -120 48.5t-41 129.5q0 87 43.5 143t130.5 56q105 0 128 -86l-78 -10
q-11 35 -58 35q-90 0 -93 -118z" />
    <glyph glyph-name="seven.superior" unicode="&#x2077;" horiz-adv-x="333" 
d="M168 361h-72q10 155 127 299h-187v59h268v-39q-120 -141 -136 -319z" />
    <glyph glyph-name="eight.superior" unicode="&#x2078;" horiz-adv-x="333" 
d="M164 527q-33 0 -51.5 -16t-18.5 -43q0 -62 74 -62q33 0 52.5 16.5t19.5 42.5q0 28 -20.5 45t-55.5 17zM165 676q-26 0 -42 -13.5t-16 -34.5q0 -23 17.5 -36t42.5 -13t42.5 13t17.5 35q0 21 -18 35t-44 14zM98 554q-63 24 -63 79q0 42 32 68.5t96 26.5q65 0 100.5 -25.5
t35.5 -70.5q0 -56 -69 -78q82 -19 82 -90q0 -51 -40.5 -82t-104.5 -31q-66 0 -106 31t-40 80q0 72 77 92z" />
    <glyph glyph-name="nine.superior" unicode="&#x2079;" horiz-adv-x="333" 
d="M163 667q-30 0 -49.5 -18t-19.5 -45q0 -65 68 -65q32 0 53.5 20t21.5 48q0 27 -21 43.5t-53 16.5zM21 437l76 9q10 -34 57 -34q91 0 94 116q-42 -50 -103 -50q-55 0 -91.5 34t-36.5 87q0 55 40 92t103 37q78 0 120.5 -47.5t42.5 -125.5q0 -92 -45.5 -148t-125.5 -56
q-111 0 -131 86z" />
    <glyph glyph-name="zero.inferior" unicode="&#x2080;" horiz-adv-x="333" 
d="M167 106q-76 0 -76 -128q0 -127 75 -127q76 0 76 127q0 128 -75 128zM167 167q70 0 111 -51.5t41 -137.5t-41 -137t-111 -51t-111 51t-41 137t41 137.5t111 51.5z" />
    <glyph glyph-name="one.inferior" unicode="&#x2081;" horiz-adv-x="333" 
d="M232 -200h-70v271q-50 -40 -110 -56v61q31 10 67.5 35.5t60.5 55.5h52v-367z" />
    <glyph glyph-name="two.inferior" unicode="&#x2082;" horiz-adv-x="333" 
d="M316 -200h-304q5 42 46 82.5t143 114.5q37 26 37 58q0 25 -18.5 40t-51.5 15q-34 0 -48.5 -14t-23.5 -42l-74 7q14 54 49 80t103 26q66 0 103 -27.5t37 -74.5q0 -43 -30.5 -77.5t-83.5 -71.5t-72 -57h188v-59z" />
    <glyph glyph-name="three.inferior" unicode="&#x2083;" horiz-adv-x="333" 
d="M316 -96q0 -49 -41 -81.5t-110 -32.5q-128 0 -149 105l72 7q18 -55 75 -55q33 0 55 18.5t22 46.5q0 55 -79 55q-4 0 -13.5 -0.5t-12.5 -0.5l11 53h5q31 0 51 13.5t20 39.5q0 17 -15.5 29t-44.5 12q-49 0 -68 -50l-70 11q20 50 50 71.5t89 21.5q66 0 100.5 -24.5
t34.5 -67.5q0 -27 -17.5 -48t-49.5 -30q85 -21 85 -93z" />
    <glyph glyph-name="four.inferior" unicode="&#x2084;" horiz-adv-x="333" 
d="M86 -72h112v128zM269 -200h-71v75h-187v60l197 232h61v-239h50v-53h-50v-75z" />
    <glyph glyph-name="five.inferior" unicode="&#x2085;" horiz-adv-x="333" 
d="M16 -107l70 9q14 -51 72 -51q37 0 59.5 20t22.5 51q0 30 -20.5 50t-52.5 20q-34 0 -68 -31l-69 12l39 185h229v-59h-182l-17 -78q38 25 82 25q55 0 93.5 -36t38.5 -88q0 -58 -44.5 -95t-108.5 -37q-119 0 -144 103z" />
    <glyph glyph-name="six.inferior" unicode="&#x2086;" horiz-adv-x="333" 
d="M169 -19q-31 0 -54 -19.5t-23 -51.5q0 -26 19.5 -42.5t53.5 -16.5t53.5 18t19.5 47q0 28 -19 46.5t-50 18.5zM82 -12q39 50 104 50q56 0 92 -34.5t36 -85.5q0 -53 -41 -90.5t-103 -37.5q-79 0 -120 48.5t-41 129.5q0 87 43.5 143t130.5 56q105 0 128 -86l-78 -10
q-11 35 -58 35q-90 0 -93 -118z" />
    <glyph glyph-name="seven.inferior" unicode="&#x2087;" horiz-adv-x="333" 
d="M168 -200h-72q10 155 127 299h-187v59h268v-39q-120 -141 -136 -319z" />
    <glyph glyph-name="eight.inferior" unicode="&#x2088;" horiz-adv-x="333" 
d="M164 -34q-33 0 -51.5 -16t-18.5 -43q0 -62 74 -62q33 0 52.5 16.5t19.5 42.5q0 28 -20.5 45t-55.5 17zM165 115q-26 0 -42 -13.5t-16 -34.5q0 -23 17.5 -36t42.5 -13t42.5 13t17.5 35q0 21 -18 35t-44 14zM98 -7q-63 24 -63 79q0 42 32 68.5t96 26.5q65 0 100.5 -25.5
t35.5 -70.5q0 -55 -69 -78q82 -19 82 -90q0 -51 -40.5 -82t-104.5 -31q-66 0 -106 31t-40 80q0 72 77 92z" />
    <glyph glyph-name="nine.inferior" unicode="&#x2089;" horiz-adv-x="333" 
d="M163 106q-30 0 -49.5 -18t-19.5 -45q0 -65 68 -65q32 0 53.5 20t21.5 48q0 27 -21 43.5t-53 16.5zM21 -124l76 9q10 -34 57 -34q91 0 94 116q-42 -50 -103 -50q-55 0 -91.5 34t-36.5 87q0 55 40 92t103 37q78 0 120.5 -47.5t42.5 -125.5q0 -92 -45.5 -148t-125.5 -56
q-111 0 -131 86z" />
    <glyph glyph-name="parenleft.inferior" unicode="&#x208d;" horiz-adv-x="210" 
d="M178 -210h-51q-50 52 -93 163q-19 60 -19 116q0 74 27.5 135t84.5 146h51q-46 -76 -55 -96q-40 -93 -40 -184q0 -142 95 -280z" />
    <glyph glyph-name="parenright.inferior" unicode="&#x208e;" horiz-adv-x="210" 
d="M66 -210h-51q95 138 95 280q0 91 -40 184q-11 24 -55 96h51q38 -57 58 -91t37 -86t17 -104q0 -56 -19 -116q-43 -111 -93 -163z" />
    <glyph glyph-name="Euro" unicode="&#x20ac;" 
d="M541 688l-20 -90q-60 49 -135 49q-57 0 -102.5 -20.5t-71 -52t-39.5 -61.5t-17 -56h333l-13 -66h-328v-19q0 -5 -0.5 -15t-0.5 -15q0 -2 0.5 -7t0.5 -8h314l-13 -66h-291q17 -85 72 -138.5t148 -53.5q91 0 143 48v-101q-62 -28 -135 -28q-141 0 -218.5 70.5t-106.5 202.5
h-75l14 66h51q-1 22 -1 64h-64l14 66h57q24 126 113 198.5t218 72.5q90 0 153 -40z" />
    <glyph glyph-name="afii61289" unicode="&#x2113;" horiz-adv-x="495" 
d="M379 101l30 -50q-65 -65 -134 -65q-63 0 -94.5 41.5t-31.5 113.5v102l-57 -62q-7 9 -19.5 25t-14.5 18l91 98v224q0 89 35 135.5t94 46.5q52 0 77 -34t25 -76q0 -139 -147 -302v-171q0 -92 62 -92q40 0 84 48zM321 608q0 22 -9.5 37.5t-27.5 15.5q-51 0 -51 -107v-154
q38 45 63 103.5t25 104.5z" />
    <glyph glyph-name="trademark" unicode="&#x2122;" horiz-adv-x="1000" 
d="M295 318h-66v339h-129v59h325v-59h-130v-339zM530 318h-60v398h98l100 -318l97 318h96v-398h-61v334l-102 -334h-60l-108 339v-339z" />
    <glyph glyph-name="Omega" unicode="&#x2126;" horiz-adv-x="758" 
d="M52 85h157q-149 119 -149 306q0 144 84.5 240.5t234.5 96.5q148 0 233.5 -97t85.5 -240q0 -181 -149 -306h157v-85h-279v80q174 83 174 295q0 121 -60.5 196.5t-161.5 75.5q-99 0 -160 -76t-61 -196q0 -208 173 -295v-80h-279v85z" />
    <glyph glyph-name="estimated" unicode="&#x212e;" horiz-adv-x="662" 
d="M613 291h-449v-200q65 -65 159 -65q136 0 215 132l36 -22q-49 -73 -107 -110.5t-144 -37.5q-127 0 -205.5 87t-78.5 216q0 130 77.5 217t207.5 87q131 0 208 -86t81 -218zM484 329v162q-67 67 -161 67q-96 0 -159 -66v-163h320z" />
    <glyph glyph-name="onethird" unicode="&#x2153;" horiz-adv-x="834" 
d="M516 93l72 7q15 -55 75 -55q33 0 54.5 18.5t21.5 46.5q0 54 -76 54l-28 -2l11 54q76 0 76 49q0 44 -59 44q-51 0 -69 -49l-70 11q19 52 51.5 72.5t83.5 20.5q139 0 139 -92q0 -59 -67 -78q85 -21 85 -92q0 -50 -41 -82t-108 -32q-131 0 -151 105zM232 352h-70v270
q-48 -38 -110 -55v60q28 10 67.5 37.5t60.5 54.5h52v-367zM199 -12h-77l521 731h77z" />
    <glyph glyph-name="twothirds" unicode="&#x2154;" horiz-adv-x="834" 
d="M517 93l71 7q15 -55 75 -55q33 0 55 18.5t22 46.5q0 54 -76 54l-29 -2l11 54q76 0 76 49q0 44 -59 44q-52 0 -68 -49l-71 11q20 52 52 72.5t83 20.5q140 0 140 -92q0 -58 -68 -78q85 -21 85 -92q0 -49 -41 -81.5t-107 -32.5q-132 0 -151 105zM317 352h-304q3 60 126 150
q69 50 84 66.5t15 38.5q0 54 -67 54q-30 0 -47.5 -11t-26.5 -45l-74 8q22 106 149 106q70 0 106.5 -27.5t36.5 -72.5q0 -42 -25 -73.5t-104 -87.5q-41 -30 -58 -47h189v-59zM199 -12h-77l521 731h77z" />
    <glyph glyph-name="oneeighth" unicode="&#x215b;" horiz-adv-x="834" 
d="M664 164q-33 0 -51.5 -16t-18.5 -43q0 -62 74 -62q33 0 52.5 16.5t19.5 42.5q0 28 -20.5 45t-55.5 17zM665 312q-26 0 -42 -14t-16 -33q0 -23 17.5 -36t42.5 -13t42.5 13t17.5 34q0 22 -17.5 35.5t-44.5 13.5zM598 191q-63 23 -63 79q0 42 32 68t97 26t100 -25t35 -70
q0 -55 -68 -78q81 -19 81 -90q0 -51 -40.5 -82t-104.5 -31q-66 0 -106 31t-40 80q0 72 77 92zM232 352h-70v270q-48 -38 -110 -55v60q28 10 67.5 37.5t60.5 54.5h52v-367zM199 -12h-77l521 731h77z" />
    <glyph glyph-name="threeeighths" unicode="&#x215c;" horiz-adv-x="834" 
d="M199 -12h-77l521 731h77zM664 164q-32 0 -51 -16.5t-19 -42.5q0 -62 75 -62q32 0 51.5 16.5t19.5 42.5q0 28 -20.5 45t-55.5 17zM666 312q-26 0 -42 -13.5t-16 -33.5q0 -23 17 -36t42 -13t42.5 13t17.5 34q0 22 -17.5 35.5t-43.5 13.5zM599 191q-64 22 -64 79q0 42 32 68
t97 26t100.5 -25t35.5 -70q0 -55 -69 -78q82 -19 82 -90q0 -51 -41 -82t-105 -31q-66 0 -106 31t-40 80q0 73 78 92zM17 448l71 7q15 -55 75 -55q33 0 55 18.5t22 46.5q0 54 -76 54l-29 -2l11 54q76 0 76 50q0 43 -59 43q-52 0 -68 -49l-70 11q19 52 51 72.5t83 20.5
q140 0 140 -92q0 -58 -68 -78q85 -21 85 -92q0 -49 -41 -81.5t-107 -32.5q-132 0 -151 105z" />
    <glyph glyph-name="fiveeighths" unicode="&#x215d;" horiz-adv-x="834" 
d="M664 164q-32 0 -51 -16.5t-19 -42.5q0 -62 75 -62q32 0 51.5 16.5t19.5 42.5q0 28 -20.5 45t-55.5 17zM666 312q-26 0 -42 -13.5t-16 -33.5q0 -23 17 -36t42 -13t42.5 13t17.5 34q0 22 -17.5 35.5t-43.5 13.5zM599 191q-64 22 -64 79q0 42 32 68t97 26t100.5 -25
t35.5 -70q0 -55 -69 -78q82 -19 82 -90q0 -51 -41 -82t-105 -31q-66 0 -106 31t-40 80q0 73 78 92zM17 446l70 9q12 -51 72 -51q36 0 59 20.5t23 50.5q0 29 -21 49.5t-52 20.5q-34 0 -68 -31l-69 12l38 184h230v-59h-183l-16 -77q37 25 82 25q55 0 93.5 -36t38.5 -88
q0 -57 -45 -94.5t-109 -37.5q-119 0 -143 103zM199 -12h-77l521 731h77z" />
    <glyph glyph-name="seveneighths" unicode="&#x215e;" horiz-adv-x="834" 
d="M664 164q-33 0 -51.5 -16t-18.5 -43q0 -62 74 -62q33 0 52.5 16.5t19.5 42.5q0 28 -20.5 45t-55.5 17zM665 312q-26 0 -42 -14t-16 -33q0 -23 17.5 -36t42.5 -13t42.5 13t17.5 34q0 22 -17.5 35.5t-44.5 13.5zM598 191q-63 24 -63 79q0 42 32 68t97 26t100 -25t35 -70
q0 -55 -68 -78q81 -19 81 -90q0 -51 -40.5 -82t-104.5 -31q-66 0 -106 31t-40 80q0 72 77 92zM168 352h-72q12 156 128 299h-188v59h268v-39q-120 -141 -136 -319zM176 -28h-76l537 756h77z" />
    <glyph glyph-name="partialdiff" unicode="&#x2202;" horiz-adv-x="579" 
d="M536 480q0 -57 -10.5 -120.5t-34.5 -130t-58 -119.5t-86.5 -87t-115.5 -34q-82 0 -133.5 53t-51.5 139q0 141 80 228.5t183 87.5q48 0 82.5 -20t51.5 -50q5 33 5 66q0 81 -35.5 123t-100.5 42q-52 0 -96 -26q-8 20 -22 62q54 34 130 34q98 0 155 -64.5t57 -183.5z
M432 348q-11 37 -39.5 60t-72.5 23q-73 0 -128 -74.5t-55 -179.5q0 -53 26 -85t70 -32q69 0 122 79.5t77 208.5z" />
    <glyph glyph-name="Delta" unicode="&#x2206;" horiz-adv-x="682" 
d="M6 0l275 716h102l292 -716h-669zM289 498l-152 -413h398l-157 414q-31 82 -46 138q-17 -66 -43 -139z" />
    <glyph glyph-name="product" unicode="&#x220f;" horiz-adv-x="722" 
d="M640 -230h-92v851h-373v-851h-92v930h557v-930z" />
    <glyph glyph-name="summation" unicode="&#x2211;" horiz-adv-x="634" 
d="M591 -230h-568v44l319 425q-198 274 -298 411v50h523v-75h-407l279 -384l-297 -396h449v-75z" />
    <glyph glyph-name="minus" unicode="&#x2212;" horiz-adv-x="584" 
d="M528 395v-84h-473v84h473z" />
    <glyph glyph-name="uni2215" unicode="&#x2215;" horiz-adv-x="167" 
d="M-133 -12h-77l519 731h76z" />
    <glyph glyph-name="uni2219" unicode="&#x2219;" horiz-adv-x="278" 
d="M189 302h-100v100h100v-100z" />
    <glyph glyph-name="radical" unicode="&#x221a;" horiz-adv-x="518" 
d="M522 729q-126 -494 -190 -741h-74l-135 333q-7 -5 -55 -34l-29 50l124 78l131 -321l162 635h66z" />
    <glyph glyph-name="infinity" unicode="&#x221e;" horiz-adv-x="787" 
d="M737 294q0 -72 -45.5 -120.5t-118.5 -48.5q-56 0 -103 30.5t-79 79.5h-2q-75 -110 -178 -110q-73 0 -120.5 46t-47.5 119q0 75 47 121.5t119 46.5q107 0 180 -110h2q30 45 75.5 77.5t103.5 32.5q72 0 119.5 -46t47.5 -118zM663 293q0 43 -25 71t-72 28q-76 0 -140 -100
q58 -101 140 -101q48 0 72.5 29t24.5 73zM355 292q-27 45 -64.5 72.5t-76.5 27.5q-47 0 -72 -29t-25 -73q0 -43 27.5 -71.5t70.5 -28.5q76 0 140 102z" />
    <glyph glyph-name="integral" unicode="&#x222b;" horiz-adv-x="493" 
d="M430 735l-19 -66q-23 9 -45 9q-79 0 -79 -97v-635q0 -81 -41.5 -128t-117.5 -47q-43 0 -75 12l18 68q22 -9 45 -9q80 0 80 96v636q0 81 41 128t119 47q48 0 74 -14z" />
    <glyph glyph-name="approxequal" unicode="&#x2248;" horiz-adv-x="584" 
d="M42 186v100q50 59 136 59q57 0 134 -34q4 -2 19 -8.5t22 -9t19 -7t22.5 -6t20.5 -1.5q60 0 127 67v-103q-65 -56 -136 -56q-48 0 -106 25q-6 3 -24 11l-27 12t-24 9t-28.5 7.5t-26.5 2.5q-60 0 -128 -68zM42 360v100q50 59 136 59q53 0 134 -34q4 -2 19 -8.5t22 -9t19 -7
t22.5 -6t20.5 -1.5q60 0 127 67v-103q-65 -56 -136 -56q-48 0 -106 25q-3 1 -23.5 10.5t-28 12t-23.5 8.5t-29 8t-26 2q-37 0 -66 -17.5t-62 -49.5z" />
    <glyph glyph-name="notequal" unicode="&#x2260;" horiz-adv-x="584" 
d="M260 203l-96 -217h-66l95 217h-137v82h174l59 136h-233v82h269l96 217h65l-95 -217h137v-82h-174l-59 -136h233v-82h-268z" />
    <glyph glyph-name="lessequal" unicode="&#x2264;" horiz-adv-x="584" 
d="M528 52h-472v81h472v-81zM56 372v82l472 200v-88l-374 -153l374 -156v-87z" />
    <glyph glyph-name="greaterequal" unicode="&#x2265;" horiz-adv-x="584" 
d="M528 52h-472v81h472v-81zM528 451v-82l-472 -199v87l374 154l-374 156v87z" />
    <glyph glyph-name="lozenge" unicode="&#x25ca;" horiz-adv-x="563" 
d="M500 350q-34 -59 -102 -175t-102 -175h-46q-34 58 -102 174.5t-102 174.5l204 351h46q34 -59 102 -175.5t102 -174.5zM427 350q-25 44 -77 132t-77 132q-26 -44 -77 -132t-77 -132q102 -176 154 -264q102 176 154 264z" />
    <glyph glyph-name="hungarumlaut.sc" horiz-adv-x="333" 
d="M-6 590l59 137h115l-103 -137h-71zM164 590l62 137h114l-102 -137h-74z" />
    <glyph glyph-name="dollar.superior" horiz-adv-x="336" 
d="M148 354q-53 6 -82.5 30.5t-39.5 73.5l71 10q8 -52 51 -58v103q-24 7 -38.5 13t-32.5 17.5t-27 30t-9 44.5q0 43 29.5 71t77.5 33v31h48v-30q92 -12 109 -89l-72 -9q-4 33 -37 39v-94q26 -9 40 -15t34.5 -18.5t30 -31.5t9.5 -44q0 -44 -32 -73t-82 -34v-69h-48v69z
M148 586v79q-39 -9 -39 -40q0 -12 6.5 -20t13 -11t19.5 -8zM196 501v-90q41 12 41 44t-41 46z" />
    <glyph glyph-name="ampersand.sc" horiz-adv-x="525" 
d="M367 60q-70 -70 -154 -70q-72 0 -125 47t-53 116q0 100 127 162q-60 68 -60 116q0 55 44 90.5t98 35.5t93 -34.5t39 -86.5q0 -76 -100 -132l86 -111q13 31 23 71l79 -17q-19 -71 -48 -119q37 -48 85 -82l-51 -60q-44 28 -83 74zM319 120l-116 142q-83 -50 -83 -106
q0 -40 28.5 -68t65.5 -28q29 0 57.5 17t47.5 43zM234 355q29 16 45 34t16 46q0 25 -16 40t-39 15q-24 0 -40 -15t-16 -38q0 -5 1 -10.5t2 -8.5t4.5 -8.5t5 -7.5t6.5 -8t6 -8z" />
    <glyph glyph-name="acute.sc" horiz-adv-x="379" 
d="M172 594h-73l65 137h115z" />
    <glyph glyph-name="parenleft.superior" horiz-adv-x="210" 
d="M178 233h-51q-50 52 -93 163q-19 60 -19 116q0 74 27.5 135t84.5 146h51q-46 -76 -55 -96q-40 -93 -40 -184q0 -142 95 -280z" />
    <glyph glyph-name="parenright.superior" horiz-adv-x="210" 
d="M66 233h-51q95 138 95 280q0 91 -40 184q-11 24 -55 96h51q38 -57 58 -91t37 -86t17 -104q0 -56 -19 -116q-43 -111 -93 -163z" />
    <glyph glyph-name="comma.superior" horiz-adv-x="175" 
d="M49 359v66h75v-63q0 -36 -15 -55.5t-45 -32.5l-20 28q36 18 36 57h-31z" />
    <glyph glyph-name="uni2014.alt" horiz-adv-x="1000" 
d="M43 224v71h914v-71h-914z" />
    <glyph glyph-name="period.superior" horiz-adv-x="175" 
d="M50 360v65h75v-65h-75z" />
    <glyph glyph-name="a.superior" horiz-adv-x="373" 
d="M267 281q-60 -53 -126 -53q-49 0 -85 28t-36 80q0 31 12 52.5t36 32t41.5 14.5t46.5 8q61 9 105 20q-2 35 -6 43q-15 32 -73 32q-71 0 -81 -61l-67 17q6 51 49.5 77t102.5 26q145 0 145 -120v-153q0 -61 20 -87h-73q-9 19 -11 44zM260 394v11q-12 -4 -25.5 -6.5t-30 -4.5
t-25.5 -4q-1 0 -15.5 -2.5t-20 -3.5t-17.5 -5.5t-17.5 -9.5t-10.5 -13.5t-5 -19.5q0 -24 20 -36.5t45 -12.5q34 0 64 20.5t36 54.5q2 11 2 32z" />
    <glyph glyph-name="b.superior" horiz-adv-x="398" 
d="M53 236v480h71v-165q39 46 103 46q69 0 108 -55.5t39 -130.5q0 -74 -41 -129t-116 -55q-30 0 -56 13.5t-37 31.5v-36h-71zM126 411q1 -30 7 -55t26.5 -46.5t53.5 -21.5q48 0 68 36.5t20 83.5q0 50 -20 88.5t-68 38.5t-67.5 -37.5t-19.5 -86.5z" />
    <glyph glyph-name="cent.superior" horiz-adv-x="336" 
d="M85 373q-61 41 -61 123q0 59 33.5 102t96.5 43q28 0 44 -7l38 87l43 -19l-40 -88q26 -20 42 -60l-63 -14l-5 13l-63 -145q4 -1 11 -1q51 0 62 55l64 -5q-12 -45 -45.5 -75.5t-80.5 -30.5q-19 0 -34 4l-50 -116l-43 17zM109 429l67 154q-9 3 -19 3q-38 0 -54.5 -25
t-16.5 -61q0 -42 23 -71z" />
    <glyph glyph-name="d.superior" horiz-adv-x="398" 
d="M345 716v-480h-71v36q-11 -18 -37 -31.5t-56 -13.5q-75 0 -116 55t-41 129q0 75 39 130.5t108 55.5q64 0 103 -46v165h71zM272 411q0 49 -19.5 86.5t-67.5 37.5t-68 -38.5t-20 -88.5q0 -47 20 -83.5t68 -36.5q33 0 53.5 21.5t26.5 46.5t7 55z" />
    <glyph glyph-name="e.superior" horiz-adv-x="368" 
d="M271 345l73 -9q-12 -51 -56 -80t-101 -29q-85 0 -126.5 54t-41.5 130q0 75 42 130.5t122 55.5q34 0 56 -9q35 -12 58 -33t33.5 -49.5t14 -54t3.5 -59.5h-257q0 -45 25 -75.5t71 -30.5q64 0 84 59zM93 452h177q-4 39 -27.5 62.5t-60.5 23.5t-61 -24t-28 -62z" />
    <glyph glyph-name="l.superior" horiz-adv-x="178" 
d="M53 236v480h71v-480h-71z" />
    <glyph glyph-name="m.superior" horiz-adv-x="577" 
d="M53 236v352h63v-47q47 56 99 56q61 0 99 -60q53 60 107 60q48 0 78.5 -30.5t30.5 -87.5v-243h-72v234q0 65 -52 65q-78 0 -78 -106v-193h-72v208q0 19 -1 30.5t-6 27.5t-17.5 24.5t-31.5 8.5q-75 0 -75 -102v-197h-72z" />
    <glyph glyph-name="n.superior" horiz-adv-x="368" 
d="M40 236v352h62v-47q42 56 106 56q38 0 69 -17t43 -50q8 -22 8 -69v-225h-72v222q0 22 -3.5 36.5t-18 27.5t-41.5 13q-82 0 -82 -97v-202h-71z" />
    <glyph glyph-name="o.superior" horiz-adv-x="368" 
d="M23 411q0 76 39.5 131t121.5 55q83 0 121.5 -55.5t38.5 -130.5t-40 -129.5t-120 -54.5q-83 0 -122 54t-39 130zM96 411q1 -30 7 -55t26.5 -46.5t53.5 -21.5q48 0 68 36.5t20 83.5q0 50 -19.5 88.5t-67.5 38.5q-49 0 -68.5 -37t-19.5 -87z" />
    <glyph glyph-name="r.superior" horiz-adv-x="252" 
d="M53 236v352h62v-59q12 20 21.5 32.5t27 24t36.5 11.5q26 0 53 -22l-22 -65q-26 13 -42 13q-65 0 -65 -131v-156h-71z" />
    <glyph glyph-name="s.superior" horiz-adv-x="336" 
d="M21 341l66 9q19 -64 88 -64q72 0 72 46q0 19 -14 28.5t-38 16.5l-58 17q-25 9 -37.5 15t-30.5 18t-26 29t-8 39q0 50 39 76t90 26q54 0 93 -27.5t43 -77.5l-65 -3q0 48 -74 48q-63 0 -63 -35q0 -23 52 -39l34 -10q27 -8 44 -14.5t39 -20t33 -34.5t11 -49
q0 -55 -42.5 -81.5t-95.5 -26.5q-124 0 -152 114z" />
    <glyph glyph-name="t.superior" horiz-adv-x="211" 
d="M193 295l10 -61q-30 -7 -52 -7q-31 0 -50 8.5t-26 26.5t-9 32t-2 39v194h-47v61h47v79l71 40v-119h60v-61h-60v-190q0 -17 1.5 -25t9.5 -15t25 -7q13 0 22 5z" />
    <glyph glyph-name="circumflex.sc" horiz-adv-x="333" 
d="M168 673l-55 -83h-101l106 137h94l109 -137h-99z" />
    <glyph glyph-name="hyphen.superior" horiz-adv-x="210" 
d="M14 415v59h182v-59h-182z" />
    <glyph glyph-name="grave.sc" horiz-adv-x="333" 
d="M259 590h-71l-114 137h118z" />
    <glyph glyph-name="a.sc" horiz-adv-x="549" 
d="M267 462l-84 -228h171zM94 0h-94l221 547h92l236 -547h-100l-65 160h-229z" />
    <glyph glyph-name="b.sc" horiz-adv-x="548" 
d="M156 248v-174h135q74 0 100.5 24t26.5 62q0 40 -28 64t-110 24h-124zM156 473v-151h116q76 0 99.5 19.5t23.5 54.5q0 43 -28 60t-104 17h-107zM291 0h-223v547h219q96 0 147.5 -39.5t51.5 -102.5q0 -73 -75 -113q99 -34 99 -131q0 -71 -50.5 -116t-168.5 -45z" />
    <glyph glyph-name="c.sc" horiz-adv-x="581" 
d="M463 200l88 -21q-24 -91 -87.5 -139.5t-154.5 -48.5q-136 0 -205 80t-69 206q0 129 75.5 204.5t199.5 75.5q183 0 232 -166l-87 -20q-35 113 -143 113q-91 0 -138.5 -54.5t-47.5 -152.5q0 -105 47.5 -160t128.5 -55q130 0 161 138z" />
    <glyph glyph-name="d.sc" horiz-adv-x="585" 
d="M156 473v-399h114q95 0 142 43.5t47 160.5q0 73 -27 122q-25 44 -59.5 58.5t-102.5 14.5h-114zM279 0h-211v547h202q90 0 145 -21q58 -22 96.5 -88.5t38.5 -159.5q0 -128 -64.5 -203t-206.5 -75z" />
    <glyph glyph-name="e.sc" horiz-adv-x="518" 
d="M489 0h-421v547h408v-74h-320v-153h298v-74h-298v-172h333v-74z" />
    <glyph glyph-name="f.sc" horiz-adv-x="489" 
d="M156 0h-88v547h392v-74h-304v-153h263v-74h-263v-246z" />
    <glyph glyph-name="g.sc" horiz-adv-x="634" 
d="M486 210h-166v74h255v-204q-116 -89 -243 -89q-134 0 -215.5 76.5t-81.5 203.5q0 126 77.5 206t213.5 80q201 0 240 -169l-80 -21q-28 117 -159 117q-99 0 -150 -57t-51 -150q0 -104 54.5 -157.5t147.5 -53.5q84 0 158 53v91z" />
    <glyph glyph-name="h.sc" horiz-adv-x="593" 
d="M156 0h-88v547h88v-220h281v220h89v-547h-89v252h-281v-252z" />
    <glyph glyph-name="i.sc" horiz-adv-x="236" 
d="M162 0h-88v547h88v-547z" />
    <glyph glyph-name="j.sc" horiz-adv-x="407" 
d="M15 152v11l81 9q2 -62 21 -84.5t55 -22.5q43 0 60.5 23.5t17.5 83.5v375h89v-371q0 -185 -166 -185q-81 0 -119.5 43.5t-38.5 117.5z" />
    <glyph glyph-name="k.sc" horiz-adv-x="553" 
d="M156 0h-88v547h88v-256l270 256h120l-242 -222l249 -325h-115l-196 268l-86 -79v-189z" />
    <glyph glyph-name="l.sc" horiz-adv-x="463" 
d="M434 0h-366v547h88v-473h278v-74z" />
    <glyph glyph-name="m.sc" horiz-adv-x="707" 
d="M153 0h-85v547h134l152 -443l151 443h134v-547h-86v455l-162 -455h-76l-162 455v-455z" />
    <glyph glyph-name="n.sc" horiz-adv-x="594" 
d="M153 0h-85v547h85l288 -407v407h86v-547h-86l-288 407v-407z" />
    <glyph glyph-name="o.sc" horiz-adv-x="626" 
d="M314 484q-85 0 -136.5 -55t-51.5 -156q0 -98 51.5 -154.5t135.5 -56.5t135.5 56.5t51.5 154.5t-51.5 154.5t-134.5 56.5zM313 557q123 0 200.5 -79t77.5 -205t-78 -204t-200 -78q-123 0 -200.5 79t-77.5 203q0 126 76.5 205t201.5 79z" />
    <glyph glyph-name="p.sc" horiz-adv-x="543" 
d="M156 473v-181h139q128 0 128 92q0 28 -17 54q-15 22 -37.5 28.5t-73.5 6.5h-139zM156 0h-88v547h220q76 0 121 -13q47 -13 76 -53t29 -96q0 -74 -51 -120.5t-168 -46.5h-139v-218z" />
    <glyph glyph-name="q.sc" horiz-adv-x="626" 
d="M378 73q-44 21 -70 26l22 64q64 -16 111 -52q59 57 59 162q0 98 -51.5 154.5t-134.5 56.5q-85 0 -136.5 -55t-51.5 -156q0 -98 51.5 -154.5t134.5 -56.5q33 0 66 11zM510 65q60 -36 92 -46l-28 -61q-63 21 -123 65q-61 -32 -138 -32q-123 0 -200.5 79t-77.5 203
q0 126 76.5 205t200.5 79q125 0 202 -78.5t77 -205.5q0 -131 -81 -208z" />
    <glyph glyph-name="r.sc" horiz-adv-x="566" 
d="M156 473v-161h137q133 0 133 83q0 34 -27 56t-88 22h-155zM156 0h-88v547h240q68 0 110 -12q43 -12 71 -50.5t28 -88.5q0 -121 -148 -149q45 -25 92 -93l105 -154h-110l-76 114q-55 84 -83 103.5t-80 20.5h-61v-238z" />
    <glyph glyph-name="s.sc" horiz-adv-x="548" 
d="M38 183l85 6q4 -65 49 -94t110 -29q63 0 99 23t36 62q0 37 -29 54.5t-138 43.5q-98 23 -144 56t-46 98q0 67 57 110.5t150 43.5q100 0 158.5 -45.5t61.5 -126.5l-86 -6q-4 103 -130 103q-59 0 -92 -19.5t-33 -54.5q0 -33 25 -48q15 -9 116.5 -35.5t119.5 -33.5
q45 -18 71 -53.5t26 -80.5q0 -71 -60 -119t-156 -48q-119 0 -183 50t-67 143z" />
    <glyph glyph-name="t.sc" horiz-adv-x="518" 
d="M303 0h-89v473h-185v74h459v-74h-185v-473z" />
    <glyph glyph-name="u.sc" horiz-adv-x="595" 
d="M438 232v315h89v-315q0 -142 -64 -191q-65 -50 -163 -50q-108 0 -170 50t-62 191v315h88v-315q0 -110 41 -139q39 -27 97 -27q64 0 104 29q40 28 40 137z" />
    <glyph glyph-name="v.sc" horiz-adv-x="537" 
d="M312 0h-89l-223 547h96l172 -462l178 462h91z" />
    <glyph glyph-name="w.sc" horiz-adv-x="744" 
d="M242 0h-89l-153 547h91l106 -439l127 439h99l121 -436l111 436h89l-158 -547h-85l-129 450z" />
    <glyph glyph-name="x.sc" horiz-adv-x="542" 
d="M0 0l223 283l-197 264h105l146 -196l152 196h98l-200 -260l215 -287h-108l-162 218l-166 -218h-106z" />
    <glyph glyph-name="y.sc" horiz-adv-x="541" 
d="M311 0h-89v231l-222 316h107l164 -245l167 245h103l-230 -316v-231z" />
    <glyph glyph-name="z.sc" horiz-adv-x="504" 
d="M481 0h-458v74l338 399h-305v74h416v-70l-342 -403h351v-74z" />
    <glyph glyph-name="tilde.sc" horiz-adv-x="379" 
d="M97 612h-65q0 52 28 81.5t71 29.5q28 0 82 -26q28 -15 46 -15q31 0 36 42h64q-1 -54 -28 -82.5t-69 -28.5q-30 0 -80 27q-33 18 -48 18q-37 0 -37 -46z" />
    <glyph glyph-name="lslash.sc" horiz-adv-x="463" 
d="M75 188l-61 -52v63l61 52v297h89v-222l100 85v-62l-100 -86v-189h278v-74h-367v188z" />
    <glyph glyph-name="scaron.sc" horiz-adv-x="548" 
d="M283 642l54 83h99l-109 -137h-94l-106 137h101zM38 183l85 6q12 -123 163 -123q17 0 36 3.5t42.5 11.5t38.5 26t15 44q0 32 -24 50.5t-72 29.5l-71 17q-35 8 -51.5 13t-48.5 18t-48 27.5t-29.5 39.5t-13.5 57q0 78 64 116t143 38q31 0 60 -5t58 -17.5t50.5 -31.5
t36 -49.5t16.5 -68.5l-86 -5q-6 59 -41.5 80.5t-92.5 21.5q-19 0 -37 -2.5t-38.5 -10t-33 -23.5t-12.5 -39q0 -17 7 -29.5t22 -20t28 -11.5t34 -9l73 -17q30 -7 49 -12.5t49.5 -18.5t48.5 -29t32 -43t14 -60q0 -81 -67 -124t-159 -43q-104 0 -170 50t-70 143z" />
    <glyph glyph-name="zcaron.sc" horiz-adv-x="504" 
d="M23 0v74l338 399h-305v75h416v-71l-342 -403h351v-74h-458zM261 642l54 83h99l-109 -137h-94l-106 137h101z" />
    <glyph glyph-name="dieresis.sc" horiz-adv-x="333" 
d="M29 627v100h93v-100h-93zM213 627v100h90v-100h-90z" />
    <glyph glyph-name="breve.sc" horiz-adv-x="333" 
d="M251 721h60q-19 -126 -144 -126q-77 0 -118 51q-21 31 -27 75h60q12 -65 86 -65q71 0 83 65z" />
    <glyph glyph-name="caron.sc" horiz-adv-x="333" 
d="M168 644l53 83h100l-109 -137h-94l-107 137h102z" />
    <glyph glyph-name="dotaccent.sc" horiz-adv-x="333" 
d="M112 590v109h108v-109h-108z" />
    <glyph glyph-name="macron.sc" horiz-adv-x="333" 
d="M14 606v72h305v-72h-305z" />
    <glyph glyph-name="hyphen.inferior" horiz-adv-x="210" 
d="M14 -70v59h182v-59h-182z" />
    <glyph glyph-name="ogonek.sc" horiz-adv-x="379" 
d="M102 3h59q-17 -43 -17 -69q0 -35 20 -56t53 -21t79 23v-58q-56 -29 -96 -29q-57 0 -87 28.5t-30 78.5q0 35 19 103z" />
    <glyph glyph-name="ring.sc" horiz-adv-x="379" 
d="M190 728q-22 0 -37 -15.5t-15 -36.5q0 -23 15 -38.5t37 -15.5q21 0 36.5 15.5t15.5 37.5q0 21 -15.5 37t-36.5 16zM189 764q37 0 62.5 -26.5t25.5 -63.5q0 -36 -26 -62.5t-62 -26.5q-35 0 -61.5 26t-26.5 65q0 36 26 62t62 26z" />
    <glyph glyph-name="cedilla.sc" horiz-adv-x="333" 
d="M113 -70l26 87h66l-16 -52q35 -5 59 -23.5t24 -50.5q0 -35 -26 -57t-55.5 -28.5t-59.5 -6.5q-37 0 -71 6l5 57q21 -3 47 -3q79 0 79 39q0 32 -78 32z" />
    <glyph glyph-name="cent.inferior" horiz-adv-x="336" 
d="M85 -187q-61 41 -61 123q0 59 33.5 102t96.5 43q28 0 44 -7l38 87l43 -19l-40 -88q26 -20 42 -60l-63 -14l-5 13l-63 -145q4 -1 11 -1q51 0 62 55l64 -5q-12 -45 -45.5 -75.5t-80.5 -30.5q-19 0 -34 4l-50 -116l-43 17zM109 -131l67 154q-9 3 -19 3q-38 0 -54.5 -25
t-16.5 -61q0 -42 23 -71z" />
    <glyph glyph-name="dollar.inferior" horiz-adv-x="336" 
d="M148 -208q-53 6 -82.5 30.5t-39.5 73.5l71 10q8 -52 51 -58v103q-24 7 -38.5 13t-32.5 17.5t-27 30t-9 44.5q0 43 29.5 71t77.5 33v31h48v-30q92 -12 109 -89l-72 -9q-4 33 -37 39v-94q26 -9 40 -15t34.5 -18.5t30 -31.5t9.5 -44q0 -44 -32 -73t-82 -34v-69h-48v69z
M148 24v79q-39 -9 -39 -40q0 -12 6.5 -20t13 -11t19.5 -8zM196 -61v-90q41 12 41 44t-41 46z" />
    <glyph glyph-name="period.inferior" horiz-adv-x="175" 
d="M50 -124v65h75v-65h-75z" />
    <glyph glyph-name="comma.inferior" horiz-adv-x="175" 
d="M49 -125v66h75v-63q0 -36 -15 -55.5t-45 -32.5l-20 28q36 18 36 57h-31z" />
    <glyph glyph-name="agrave.sc" horiz-adv-x="549" 
d="M267 462l-84 -228h171zM94 0h-94l221 547h92l236 -547h-100l-65 160h-229zM269 731l66 -137h-71l-113 137h118z" />
    <glyph glyph-name="aacute.sc" horiz-adv-x="549" 
d="M267 462l-84 -228h171zM94 0h-94l221 547h92l236 -547h-100l-65 160h-229zM289 594h-73l65 137h115z" />
    <glyph glyph-name="acircumflex.sc" horiz-adv-x="549" 
d="M267 462l-84 -228h171zM94 0h-94l221 547h92l236 -547h-100l-65 160h-229zM321 594l-54 83l-55 -83h-100l106 137h93l110 -137h-100z" />
    <glyph glyph-name="atilde.sc" horiz-adv-x="549" 
d="M267 462l-84 -228h171zM94 0h-94l221 547h92l236 -547h-100l-65 160h-229zM169 606h-65q0 53 28 82.5t71 29.5q25 0 82 -27q28 -14 46 -14q31 0 36 42h63q0 -54 -27 -82.5t-68 -28.5q-31 0 -81 27q-33 18 -48 18q-37 0 -37 -47z" />
    <glyph glyph-name="adieresis.sc" horiz-adv-x="549" 
d="M267 462l-84 -228h171zM94 0h-94l221 547h92l236 -547h-100l-65 160h-229zM404 631h-92v101h92v-101zM222 631h-92v101h92v-101z" />
    <glyph glyph-name="aring.sc" horiz-adv-x="549" 
d="M267 462l-84 -228h171zM94 0h-94l221 547h92l236 -547h-100l-65 160h-229zM268 728q-22 0 -37 -15.5t-15 -36.5q0 -23 15 -38.5t37 -15.5q21 0 36.5 15.5t15.5 37.5q0 21 -15.5 37t-36.5 16zM267 764q37 0 62.5 -26.5t25.5 -63.5q0 -36 -26 -62.5t-62 -26.5
q-35 0 -61.5 26t-26.5 65q0 36 26 62t62 26z" />
    <glyph glyph-name="ae.sc" horiz-adv-x="791" 
d="M334 473l-124 -244h171v244h-47zM96 0h-96l277 547h474v-74h-282v-153h262v-74h-262v-172h292v-74h-380v155h-209z" />
    <glyph glyph-name="ccedilla.sc" horiz-adv-x="581" 
d="M334 -8l-10 -33q40 -4 62 -25t22 -47q0 -41 -38 -67t-103 -26q-39 0 -71 6l6 57q38 -2 48 -2q76 0 76 37q0 33 -76 33l20 68q-117 10 -176 90.5t-59 193.5q0 129 75.5 204.5t199.5 75.5q183 0 232 -166l-87 -20q-35 113 -143 113q-91 0 -138.5 -54.5t-47.5 -152.5
q0 -105 47.5 -160t128.5 -55q130 0 161 138l88 -21q-46 -170 -217 -187z" />
    <glyph glyph-name="egrave.sc" horiz-adv-x="518" 
d="M489 0h-421v547h408v-74h-320v-153h298v-74h-298v-172h333v-74zM270 731l66 -137h-71l-113 137h118z" />
    <glyph glyph-name="eacute.sc" horiz-adv-x="518" 
d="M489 0h-421v547h408v-74h-320v-153h298v-74h-298v-172h333v-74zM284 594h-73l65 137h115z" />
    <glyph glyph-name="ecircumflex.sc" horiz-adv-x="518" 
d="M489 0h-421v547h408v-74h-320v-153h298v-74h-298v-172h333v-74zM330 594l-54 83l-55 -83h-101l106 137h93l110 -137h-99z" />
    <glyph glyph-name="edieresis.sc" horiz-adv-x="518" 
d="M489 0h-421v547h408v-74h-320v-153h298v-74h-298v-172h333v-74zM414 631h-92v101h92v-101zM231 631h-91v101h91v-101z" />
    <glyph glyph-name="igrave.sc" horiz-adv-x="236" 
d="M162 0h-88v547h88v-547zM112 731l66 -137h-71l-112 137h117z" />
    <glyph glyph-name="iacute.sc" horiz-adv-x="236" 
d="M162 0h-89v547h89v-547zM132 594h-72l65 137h115z" />
    <glyph glyph-name="icircumflex.sc" horiz-adv-x="236" 
d="M162 0h-88v547h88v-547zM173 594l-54 83l-55 -83h-101l106 137h94l109 -137h-99z" />
    <glyph glyph-name="idieresis.sc" horiz-adv-x="236" 
d="M162 0h-88v547h88v-547zM255 631h-92v101h92v-101zM73 631h-92v101h92v-101z" />
    <glyph glyph-name="eth.sc" horiz-adv-x="585" 
d="M308 247h-152v-173h114q95 0 142 43.5t47 160.5q0 73 -27 122q-25 44 -59.5 58.5t-102.5 14.5h-114v-172h152v-54zM68 0v247h-64v54h64v246h202q90 0 145 -21q58 -22 96.5 -88.5t38.5 -159.5q0 -128 -64.5 -203t-206.5 -75h-211z" />
    <glyph glyph-name="ntilde.sc" horiz-adv-x="594" 
d="M153 0h-85v547h85l288 -407v407h86v-547h-86l-288 407v-407zM199 612h-65q0 52 28 81.5t71 29.5q28 0 82 -26q29 -15 46 -15q31 0 36 42h64q-2 -54 -28.5 -82.5t-67.5 -28.5q-31 0 -81 27q-33 18 -48 18q-37 0 -37 -46z" />
    <glyph glyph-name="ograve.sc" horiz-adv-x="626" 
d="M314 484q-85 0 -136.5 -55t-51.5 -156q0 -98 51.5 -154.5t135.5 -56.5t135.5 56.5t51.5 154.5t-51.5 154.5t-134.5 56.5zM313 557q123 0 200.5 -79t77.5 -205t-78 -204t-200 -78q-123 0 -200.5 79t-77.5 203q0 126 76.5 205t201.5 79zM308 731l66 -137h-71l-113 137h118z
" />
    <glyph glyph-name="oacute.sc" horiz-adv-x="626" 
d="M314 484q-85 0 -136.5 -55t-51.5 -156q0 -98 51.5 -154.5t135.5 -56.5t135.5 56.5t51.5 154.5t-51.5 154.5t-134.5 56.5zM313 557q123 0 200.5 -79t77.5 -205t-78 -204t-200 -78q-123 0 -200.5 79t-77.5 203q0 126 76.5 205t201.5 79zM328 594h-73l65 137h116z" />
    <glyph glyph-name="ocircumflex.sc" horiz-adv-x="626" 
d="M314 484q-85 0 -136.5 -55t-51.5 -156q0 -98 51.5 -154.5t135.5 -56.5t135.5 56.5t51.5 154.5t-51.5 154.5t-134.5 56.5zM313 557q123 0 200.5 -79t77.5 -205t-78 -204t-200 -78q-123 0 -200.5 79t-77.5 203q0 126 76.5 205t201.5 79zM368 594l-54 83l-55 -83h-100
l105 137h94l110 -137h-100z" />
    <glyph glyph-name="otilde.sc" horiz-adv-x="626" 
d="M314 484q-85 0 -136.5 -55t-51.5 -156q0 -98 51.5 -154.5t135.5 -56.5t135.5 56.5t51.5 154.5t-51.5 154.5t-134.5 56.5zM313 557q123 0 200.5 -79t77.5 -205t-78 -204t-200 -78q-123 0 -200.5 79t-77.5 203q0 126 76.5 205t201.5 79zM215 612h-65q0 52 28 81.5t71 29.5
q28 0 82 -26q29 -15 46 -15q31 0 36 42h64q-1 -54 -28 -82.5t-69 -28.5q-30 0 -80 27q-33 18 -48 18q-37 0 -37 -46z" />
    <glyph glyph-name="odieresis.sc" horiz-adv-x="626" 
d="M314 484q-85 0 -136.5 -55t-51.5 -156q0 -98 51.5 -154.5t135.5 -56.5t135.5 56.5t51.5 154.5t-51.5 154.5t-134.5 56.5zM313 557q123 0 200.5 -79t77.5 -205t-78 -204t-200 -78q-123 0 -200.5 79t-77.5 203q0 126 76.5 205t201.5 79zM450 631h-92v101h92v-101zM268 631
h-92v101h92v-101z" />
    <glyph glyph-name="oe.sc" horiz-adv-x="792" 
d="M415 279q0 99 -39.5 154t-104.5 55q-66 0 -105.5 -54t-39.5 -165q0 -100 40 -155t105 -55t104.5 54.5t39.5 165.5zM500 74h262v-74h-343v63q-54 -72 -148 -72q-114 0 -175 78t-61 205q0 128 60 205.5t176 77.5q95 0 148 -69v59h331v-74h-250v-153h231v-74h-231v-172z" />
    <glyph glyph-name="oslash.sc" horiz-adv-x="626" 
d="M492 497l66 71l39 -32l-70 -73q64 -74 64 -189q0 -126 -79 -205t-199 -79q-101 0 -178 59l-67 -70l-39 32l70 73q-64 80 -64 192q0 143 104 225q71 56 175 56q102 0 178 -60zM436 440q-51 44 -122 44q-65 0 -109 -32.5t-61.5 -77.5t-17.5 -98q0 -81 32 -130zM469 401
l-279 -294q50 -44 123 -44q92 0 139.5 61.5t47.5 148.5q0 74 -31 128z" />
    <glyph glyph-name="ugrave.sc" horiz-adv-x="595" 
d="M438 232v315h89v-315q0 -142 -64 -191q-65 -50 -163 -50q-108 0 -170 50t-62 191v315h88v-315q0 -110 41 -139q39 -27 97 -27q64 0 104 29q40 28 40 137zM313 731l66 -137h-71l-113 137h118z" />
    <glyph glyph-name="uacute.sc" horiz-adv-x="595" 
d="M438 232v315h89v-315q0 -142 -64 -191q-65 -50 -163 -50q-108 0 -170 50t-62 191v315h88v-315q0 -110 41 -139q39 -27 97 -27q64 0 104 29q40 28 40 137zM312 594h-73l66 137h114z" />
    <glyph glyph-name="ucircumflex.sc" horiz-adv-x="595" 
d="M438 232v315h89v-315q0 -142 -64 -191q-65 -50 -163 -50q-108 0 -170 50t-62 191v315h88v-315q0 -110 41 -139q39 -27 97 -27q64 0 104 29q40 28 40 137zM353 594l-55 83l-55 -83h-100l106 137h93l110 -137h-99z" />
    <glyph glyph-name="udieresis.sc" horiz-adv-x="595" 
d="M438 232v315h89v-315q0 -142 -64 -191q-65 -50 -163 -50q-108 0 -170 50t-62 191v315h88v-315q0 -110 41 -139q39 -27 97 -27q64 0 104 29q40 28 40 137zM435 631h-92v101h92v-101zM252 631h-91v101h91v-101z" />
    <glyph glyph-name="yacute.sc" horiz-adv-x="541" 
d="M311 0h-89v231l-222 316h107l164 -245l167 245h103l-230 -316v-231zM286 594h-74l66 137h115z" />
    <glyph glyph-name="thorn.sc" horiz-adv-x="543" 
d="M156 364v-181h139q128 0 128 91q0 30 -17 55q-15 22 -37.5 28.5t-73.5 6.5h-139zM156 0h-88v547h88v-109h132q76 0 121 -13q47 -13 76 -53t29 -96q0 -74 -51 -120.5t-168 -46.5h-139v-109z" />
    <glyph glyph-name="ydieresis.sc" horiz-adv-x="541" 
d="M311 0h-89v231l-222 316h107l164 -245l167 245h103l-230 -316v-231zM407 631h-91v101h91v-101zM225 631h-92v101h92v-101z" />
    <glyph glyph-name="h.superior" horiz-adv-x="368" 
d="M40 236v480h62v-175q42 56 106 56q38 0 69 -17t43 -50q8 -22 8 -69v-225h-72v222q0 22 -3.5 36.5t-18 27.5t-41.5 13q-82 0 -82 -97v-202h-71z" />
    <glyph glyph-name="zero.fitted" 
d="M44 353q0 366 233 366q234 0 234 -366q0 -365 -233 -365q-234 0 -234 365zM134 353q0 -147 34 -220t109 -73q76 0 110 73t34 220q0 148 -34 221t-110 73q-75 0 -109 -72.5t-34 -221.5z" />
    <glyph glyph-name="one.fitted" horiz-adv-x="364" 
d="M284 719v-719h-88v560q-32 -30 -82 -60t-94 -46v85q73 34 128 82.5t79 97.5h57z" />
    <glyph glyph-name="two.fitted" 
d="M153 84h351v-84h-473v19q0 38 41.5 101t124.5 131q77 63 117.5 101t69.5 83t29 87q0 54 -38 89.5t-96 35.5q-63 0 -102 -38t-39 -107l-90 10q9 100 70 153.5t162 53.5q102 0 162.5 -56t60.5 -139q0 -56 -28.5 -108.5t-73 -95.5t-91 -81t-92 -79.5t-65.5 -75.5z" />
    <glyph glyph-name="three.fitted" horiz-adv-x="571" 
d="M517 219q0 -105 -70.5 -168t-163.5 -63q-101 0 -163.5 55.5t-71.5 145.5l88 12q27 -141 140 -141q62 0 104.5 43t42.5 115q0 51 -39 90.5t-97 39.5q-29 0 -65 -9l9 77q60 -6 110 26t50 95q0 48 -33.5 79t-83.5 31q-53 0 -86.5 -33.5t-42.5 -95.5l-88 15q16 89 73 137.5
t142 48.5q89 0 149 -53.5t60 -127.5q0 -105 -98 -150q66 -16 100 -62.5t34 -106.5z" />
    <glyph glyph-name="four.fitted" horiz-adv-x="546" 
d="M414 0h-88v171h-311v81l327 464h72v-464h96v-81h-96v-171zM101 252h225v323z" />
    <glyph glyph-name="five.fitted" 
d="M199 622l-38 -192q62 44 135 44q93 0 158 -64t65 -167q0 -110 -69 -182.5t-172 -72.5q-98 0 -161.5 53.5t-72.5 146.5l92 7q10 -66 47 -100.5t91 -34.5q66 0 108.5 49.5t42.5 131.5q0 68 -42.5 112.5t-110.5 44.5q-85 0 -130 -70l-82 11l69 367h356v-84h-286z" />
    <glyph glyph-name="six.fitted" 
d="M499 541l-87 -7q-26 113 -121 113q-75 0 -119 -70t-45 -208q63 95 176 95q85 0 147 -65t62 -166q0 -106 -62.5 -175.5t-159.5 -69.5q-83 0 -144 45.5t-86 125.5q-21 69 -21 176q0 190 66 287t189 97q85 0 139.5 -46.5t65.5 -131.5zM140 232q0 -72 42 -122t104 -50
q59 0 97.5 47.5t38.5 119.5q0 71 -38.5 116t-100.5 45q-60 0 -101.5 -43.5t-41.5 -112.5z" />
    <glyph glyph-name="seven.fitted" horiz-adv-x="514" 
d="M380 622h-350v84h464v-68q-102 -108 -181.5 -282.5t-91.5 -355.5h-91q2 143 71.5 320t178.5 302z" />
    <glyph glyph-name="eight.fitted" horiz-adv-x="580" 
d="M526 207q0 -95 -66 -157t-170 -62t-170 62t-66 157q0 68 34 116t102 65q-107 39 -107 146q0 80 57.5 132.5t148.5 52.5q92 0 149.5 -53.5t57.5 -133.5q0 -104 -105 -144q135 -45 135 -181zM173 537q0 -51 33 -83t84 -32q49 0 82.5 32t33.5 79q0 49 -33.5 81.5t-83.5 32.5
t-83 -32.5t-33 -77.5zM144 206q0 -63 42 -104.5t109 -41.5q58 0 99.5 40.5t41.5 103.5q0 64 -42.5 105t-103.5 41q-65 0 -105.5 -42t-40.5 -102z" />
    <glyph glyph-name="nine.fitted" 
d="M427 321v16q-26 -42 -72.5 -67.5t-96.5 -25.5q-92 0 -153 64.5t-61 168.5q0 106 63.5 174t161.5 68q67 0 122 -34t86 -96q38 -75 38 -218q0 -178 -54 -268q-69 -115 -199 -115q-86 0 -140.5 46.5t-64.5 131.5l85 8q11 -58 40.5 -86t84.5 -28q71 0 115.5 70.5t44.5 190.5z
M417 481q0 72 -39 119t-98 47q-61 0 -103.5 -50t-42.5 -122q0 -68 41 -111.5t102 -43.5q63 0 101.5 44.5t38.5 116.5z" />
    <glyph glyph-name="zero.denominator" horiz-adv-x="333" 
d="M167 304q-76 0 -76 -128q0 -127 75 -127q76 0 76 127q0 128 -75 128zM167 365q70 0 111 -51.5t41 -137.5t-41 -137t-111 -51t-111 51t-41 137t41 137.5t111 51.5z" />
    <glyph glyph-name="one.denominator" horiz-adv-x="333" 
d="M232 -2h-70v271q-50 -40 -110 -56v61q31 10 67.5 35.5t60.5 55.5h52v-367z" />
    <glyph glyph-name="two.denominator" horiz-adv-x="333" 
d="M316 -2h-304q5 42 46 82.5t143 114.5q37 26 37 58q0 25 -18.5 40t-51.5 15q-34 0 -48.5 -14t-23.5 -42l-74 7q14 54 49 80t103 26q66 0 103 -27.5t37 -74.5q0 -43 -30.5 -77.5t-83.5 -71.5t-72 -57h188v-59z" />
    <glyph glyph-name="three.denominator" horiz-adv-x="333" 
d="M316 102q0 -49 -41 -81.5t-110 -32.5q-128 0 -149 105l72 7q18 -55 75 -55q33 0 55 18.5t22 46.5q0 55 -79 55q-4 0 -13.5 -0.5t-12.5 -0.5l11 53h5q31 0 51 13.5t20 39.5q0 17 -15.5 29t-44.5 12q-49 0 -68 -50l-70 11q20 50 50 71.5t89 21.5q66 0 100.5 -24.5
t34.5 -67.5q0 -27 -17.5 -48t-49.5 -30q85 -21 85 -93z" />
    <glyph glyph-name="four.denominator" horiz-adv-x="333" 
d="M86 126h112v128zM269 -2h-71v75h-187v60l197 232h61v-239h50v-53h-50v-75z" />
    <glyph glyph-name="five.denominator" horiz-adv-x="333" 
d="M16 91l70 9q14 -51 72 -51q37 0 59.5 20t22.5 51q0 30 -20.5 50t-52.5 20q-34 0 -68 -31l-69 12l39 185h229v-59h-182l-17 -78q38 25 82 25q55 0 93.5 -36t38.5 -88q0 -58 -44.5 -95t-108.5 -37q-119 0 -144 103z" />
    <glyph glyph-name="six.denominator" horiz-adv-x="333" 
d="M169 179q-31 0 -54 -19.5t-23 -51.5q0 -26 19.5 -42.5t53.5 -16.5t53.5 18t19.5 47q0 28 -19 46.5t-50 18.5zM82 186q39 50 104 50q56 0 92 -34.5t36 -85.5q0 -53 -41 -90.5t-103 -37.5q-79 0 -120 48.5t-41 129.5q0 87 43.5 143t130.5 56q105 0 128 -86l-78 -10
q-11 35 -58 35q-90 0 -93 -118z" />
    <glyph glyph-name="seven.denominator" horiz-adv-x="333" 
d="M168 -2h-72q10 155 127 299h-187v59h268v-39q-120 -141 -136 -319z" />
    <glyph glyph-name="eight.denominator" horiz-adv-x="333" 
d="M164 164q-33 0 -51.5 -16t-18.5 -43q0 -62 74 -62q33 0 52.5 16.5t19.5 42.5q0 28 -20.5 45t-55.5 17zM165 313q-26 0 -42 -13.5t-16 -34.5q0 -23 17.5 -36t42.5 -13t42.5 13t17.5 35q0 21 -18 35t-44 14zM98 191q-63 24 -63 79q0 42 32 68.5t96 26.5q65 0 100.5 -25.5
t35.5 -70.5q0 -55 -69 -78q82 -19 82 -90q0 -51 -40.5 -82t-104.5 -31q-66 0 -106 31t-40 80q0 72 77 92z" />
    <glyph glyph-name="nine.denominator" horiz-adv-x="333" 
d="M163 304q-30 0 -49.5 -18t-19.5 -45q0 -65 68 -65q32 0 53.5 20t21.5 48q0 27 -21 43.5t-53 16.5zM21 74l76 9q10 -34 57 -34q91 0 94 116q-42 -50 -103 -50q-55 0 -91.5 34t-36.5 87q0 55 40 92t103 37q78 0 120.5 -47.5t42.5 -125.5q0 -92 -45.5 -148t-125.5 -56
q-111 0 -131 86z" />
    <glyph glyph-name="cent.denominator" horiz-adv-x="336" 
d="M85 10q-61 41 -61 123q0 59 33.5 102t96.5 43q28 0 44 -7l38 87l43 -19l-40 -88q26 -20 42 -60l-63 -14l-5 13l-63 -145q4 -1 11 -1q51 0 62 55l64 -5q-12 -45 -45.5 -75.5t-80.5 -30.5q-19 0 -34 4l-50 -116l-43 17zM109 66l67 154q-9 3 -19 3q-38 0 -54.5 -25
t-16.5 -61q0 -42 23 -71z" />
    <glyph glyph-name="dollar.denominator" horiz-adv-x="336" 
d="M148 -12q-53 6 -82.5 30.5t-39.5 73.5l71 10q8 -52 51 -58v103q-24 7 -38.5 13t-32.5 17.5t-27 30t-9 44.5q0 43 29.5 71t77.5 33v31h48v-30q92 -12 109 -89l-72 -9q-4 33 -37 39v-94q26 -9 40 -15t34.5 -18.5t30 -31.5t9.5 -44q0 -44 -32 -73t-82 -34v-69h-48v69z
M148 220v79q-39 -9 -39 -40q0 -12 6.5 -20t13 -11t19.5 -8zM196 135v-90q41 12 41 44t-41 46z" />
    <glyph glyph-name="zero.numerator" horiz-adv-x="333" 
d="M167 658q-76 0 -76 -128q0 -127 75 -127q76 0 76 127q0 128 -75 128zM167 719q70 0 111 -51.5t41 -137.5t-41 -137t-111 -51t-111 51t-41 137t41 137.5t111 51.5z" />
    <glyph glyph-name="one.numerator" horiz-adv-x="333" 
d="M232 352h-70v271q-50 -40 -110 -56v61q31 10 67.5 35.5t60.5 55.5h52v-367z" />
    <glyph glyph-name="two.numerator" horiz-adv-x="333" 
d="M316 352h-304q5 42 46 82.5t143 114.5q37 26 37 58q0 25 -18.5 40t-51.5 15q-34 0 -48.5 -14t-23.5 -42l-74 7q14 54 49 80t103 26q66 0 103 -27.5t37 -74.5q0 -43 -30.5 -77.5t-83.5 -71.5t-72 -57h188v-59z" />
    <glyph glyph-name="three.numerator" horiz-adv-x="333" 
d="M316 456q0 -49 -41 -81.5t-110 -32.5q-128 0 -149 105l72 7q18 -55 75 -55q33 0 55 18.5t22 46.5q0 55 -79 55q-4 0 -13.5 -0.5t-12.5 -0.5l11 53h5q31 0 51 13.5t20 39.5q0 17 -15.5 29t-44.5 12q-49 0 -68 -50l-70 11q20 50 50 71.5t89 21.5q66 0 100.5 -24.5
t34.5 -67.5q0 -27 -17.5 -48t-49.5 -30q85 -21 85 -93z" />
    <glyph glyph-name="four.numerator" horiz-adv-x="333" 
d="M86 480h112v128zM269 352h-71v75h-187v60l197 232h61v-239h50v-53h-50v-75z" />
    <glyph glyph-name="five.numerator" horiz-adv-x="333" 
d="M16 445l70 9q14 -51 72 -51q37 0 59.5 20t22.5 51q0 30 -20.5 50t-52.5 20q-34 0 -68 -31l-69 12l39 185h229v-59h-182l-17 -78q38 25 82 25q55 0 93.5 -36t38.5 -88q0 -58 -44.5 -95t-108.5 -37q-119 0 -144 103z" />
    <glyph glyph-name="six.numerator" horiz-adv-x="333" 
d="M169 533q-31 0 -54 -19.5t-23 -51.5q0 -26 19.5 -42.5t53.5 -16.5t53.5 18t19.5 47q0 28 -19 46.5t-50 18.5zM82 540q39 50 104 50q56 0 92 -34.5t36 -85.5q0 -53 -41 -90.5t-103 -37.5q-79 0 -120 48.5t-41 129.5q0 87 43.5 143t130.5 56q105 0 128 -86l-78 -10
q-11 35 -58 35q-90 0 -93 -118z" />
    <glyph glyph-name="seven.numerator" horiz-adv-x="333" 
d="M168 352h-72q10 155 127 299h-187v59h268v-39q-120 -141 -136 -319z" />
    <glyph glyph-name="eight.numerator" horiz-adv-x="333" 
d="M164 518q-33 0 -51.5 -16t-18.5 -43q0 -62 74 -62q33 0 52.5 16.5t19.5 42.5q0 28 -20.5 45t-55.5 17zM165 667q-26 0 -42 -13.5t-16 -34.5q0 -23 17.5 -36t42.5 -13t42.5 13t17.5 35q0 21 -18 35t-44 14zM98 545q-63 24 -63 79q0 42 32 68.5t96 26.5q65 0 100.5 -25.5
t35.5 -70.5q0 -55 -69 -78q82 -19 82 -90q0 -51 -40.5 -82t-104.5 -31q-66 0 -106 31t-40 80q0 72 77 92z" />
    <glyph glyph-name="nine.numerator" horiz-adv-x="333" 
d="M163 658q-30 0 -49.5 -18t-19.5 -45q0 -65 68 -65q32 0 53.5 20t21.5 48q0 27 -21 43.5t-53 16.5zM21 428l76 9q10 -34 57 -34q91 0 94 116q-42 -50 -103 -50q-55 0 -91.5 34t-36.5 87q0 55 40 92t103 37q78 0 120.5 -47.5t42.5 -125.5q0 -92 -45.5 -148t-125.5 -56
q-111 0 -131 86z" />
    <glyph glyph-name="cent.numerator" horiz-adv-x="336" 
d="M85 364q-61 41 -61 123q0 59 33.5 102t96.5 43q28 0 44 -7l38 87l43 -19l-40 -88q26 -20 42 -60l-63 -14l-5 13l-63 -145q4 -1 11 -1q51 0 62 55l64 -5q-12 -45 -45.5 -75.5t-80.5 -30.5q-19 0 -34 4l-50 -116l-43 17zM109 420l67 154q-9 3 -19 3q-38 0 -54.5 -25
t-16.5 -61q0 -42 23 -71z" />
    <glyph glyph-name="dollar.numerator" horiz-adv-x="336" 
d="M148 346q-53 6 -82.5 30.5t-39.5 73.5l71 10q8 -52 51 -58v103q-24 7 -38.5 13t-32.5 17.5t-27 30t-9 44.5q0 43 29.5 71t77.5 33v31h48v-30q92 -12 109 -89l-72 -9q-4 33 -37 39v-94q26 -9 40 -15t34.5 -18.5t30 -31.5t9.5 -44q0 -44 -32 -73t-82 -34v-69h-48v69z
M148 578v79q-39 -9 -39 -40q0 -12 6.5 -20t13 -11t19.5 -8zM196 493v-90q41 12 41 44t-41 46z" />
    <glyph glyph-name="abreve.sc" horiz-adv-x="549" 
d="M123 726h60q13 -66 84 -66t84 66h60q-7 -62 -45 -94.5t-98 -32.5q-62 0 -100 32.5t-45 94.5zM267 462l-84 -228h171zM94 0h-94l221 547h92l236 -547h-100l-65 160h-229z" />
    <glyph glyph-name="amacron.sc" horiz-adv-x="549" 
d="M420 611h-305v71h305v-71zM267 462l-84 -228h171zM94 0h-94l221 547h92l236 -547h-100l-65 160h-229z" />
    <glyph glyph-name="aogonek.sc" horiz-adv-x="549" 
d="M647 -120v-58q-56 -29 -96 -29q-57 0 -87 28.5t-30 78.5q0 46 15 100l-65 160h-229l-61 -160h-94l221 547h92l236 -547h-40q-14 -36 -14 -66q0 -35 20 -56t53 -21t79 23zM267 462l-84 -228h171z" />
    <glyph glyph-name="aeacute.sc" horiz-adv-x="791" 
d="M524 594h-73l65 137h115zM334 473l-124 -244h171v244h-47zM96 0h-96l277 547h474v-74h-282v-153h262v-74h-262v-172h292v-74h-380v155h-209z" />
    <glyph glyph-name="cacute.sc" horiz-adv-x="581" 
d="M324 594h-73l65 137h115zM463 200l88 -21q-24 -91 -87.5 -139.5t-154.5 -48.5q-136 0 -205 80t-69 206q0 129 75.5 204.5t199.5 75.5q183 0 232 -166l-87 -20q-35 113 -143 113q-91 0 -138.5 -54.5t-47.5 -152.5q0 -105 47.5 -160t128.5 -55q130 0 161 138z" />
    <glyph glyph-name="ccaron.sc" horiz-adv-x="581" 
d="M258 731l55 -83l53 83h100l-110 -137h-94l-105 137h101zM463 200l88 -21q-24 -91 -87.5 -139.5t-154.5 -48.5q-136 0 -205 80t-69 206q0 129 75.5 204.5t199.5 75.5q183 0 232 -166l-87 -20q-35 113 -143 113q-91 0 -138.5 -54.5t-47.5 -152.5q0 -105 47.5 -160
t128.5 -55q130 0 161 138z" />
    <glyph glyph-name="ccircumflex.sc" horiz-adv-x="581" 
d="M358 594l-54 83l-55 -83h-100l106 137h93l110 -137h-100zM463 200l88 -21q-24 -91 -87.5 -139.5t-154.5 -48.5q-136 0 -205 80t-69 206q0 129 75.5 204.5t199.5 75.5q183 0 232 -166l-87 -20q-35 113 -143 113q-91 0 -138.5 -54.5t-47.5 -152.5q0 -105 47.5 -160
t128.5 -55q130 0 161 138z" />
    <glyph glyph-name="cdotaccent.sc" horiz-adv-x="581" 
d="M360 594h-109v109h109v-109zM463 200l88 -21q-24 -91 -87.5 -139.5t-154.5 -48.5q-136 0 -205 80t-69 206q0 129 75.5 204.5t199.5 75.5q183 0 232 -166l-87 -20q-35 113 -143 113q-91 0 -138.5 -54.5t-47.5 -152.5q0 -105 47.5 -160t128.5 -55q130 0 161 138z" />
    <glyph glyph-name="dcaron.sc" horiz-adv-x="585" 
d="M226 731l55 -83l53 83h100l-110 -137h-94l-105 137h101zM156 473v-399h114q95 0 142 43.5t47 160.5q0 73 -27 122q-25 44 -59.5 58.5t-102.5 14.5h-114zM279 0h-211v547h202q90 0 145 -21q58 -22 96.5 -88.5t38.5 -159.5q0 -128 -64.5 -203t-206.5 -75z" />
    <glyph glyph-name="dcroat.sc" horiz-adv-x="585" 
d="M308 247h-152v-173h114q95 0 142 43.5t47 160.5q0 73 -27 122q-25 44 -59.5 58.5t-102.5 14.5h-114v-172h152v-54zM68 0v247h-64v54h64v246h202q90 0 145 -21q58 -22 96.5 -88.5t38.5 -159.5q0 -128 -64.5 -203t-206.5 -75h-211z" />
    <glyph glyph-name="ebreve.sc" horiz-adv-x="518" 
d="M129 726h60q13 -66 84 -66t84 66h60q-7 -62 -45 -94.5t-98 -32.5q-62 0 -100 32.5t-45 94.5zM489 0h-421v547h408v-74h-320v-153h298v-74h-298v-172h333v-74z" />
    <glyph glyph-name="ecaron.sc" horiz-adv-x="518" 
d="M219 731l55 -83l53 83h100l-110 -137h-94l-105 137h101zM489 0h-421v547h408v-74h-320v-153h298v-74h-298v-172h333v-74z" />
    <glyph glyph-name="edotaccent.sc" horiz-adv-x="518" 
d="M332 594h-109v109h109v-109zM489 0h-421v547h408v-74h-320v-153h298v-74h-298v-172h333v-74z" />
    <glyph glyph-name="emacron.sc" horiz-adv-x="518" 
d="M421 611h-305v71h305v-71zM489 0h-421v547h408v-74h-320v-153h298v-74h-298v-172h333v-74z" />
    <glyph glyph-name="eng.sc" horiz-adv-x="573" 
d="M68 0v547h88v-58q27 30 78 51q42 17 95 17q102 0 155.5 -72t53.5 -207q0 -139 -47.5 -213t-137.5 -74q-54 0 -101 31l38 63q41 -23 63 -23q43 0 68.5 56t25.5 160q0 206 -138 206q-48 0 -86 -27q-28 -20 -43 -51t-18 -56t-6 -73v-277h-88z" />
    <glyph glyph-name="eogonek.sc" horiz-adv-x="518" 
d="M489 -120v-58q-56 -29 -96 -29q-57 0 -87 28.5t-30 78.5q0 46 15 100h-223v547h408v-74h-320v-153h298v-74h-298v-172h333v-74h-138q-14 -36 -14 -66q0 -35 20 -56t53 -21t79 23z" />
    <glyph glyph-name="gbreve.sc" horiz-adv-x="634" 
d="M181 726h60q14 -66 84 -66q71 0 84 66h60q-7 -62 -45 -94.5t-98 -32.5q-62 0 -100 32.5t-45 94.5zM486 210h-166v74h255v-204q-116 -89 -243 -89q-134 0 -215.5 76.5t-81.5 203.5q0 126 77.5 206t213.5 80q201 0 240 -169l-80 -21q-28 117 -159 117q-99 0 -150 -57
t-51 -150q0 -104 54.5 -157.5t147.5 -53.5q84 0 158 53v91z" />
    <glyph glyph-name="gcircumflex.sc" horiz-adv-x="634" 
d="M376 594l-54 83l-55 -83h-100l106 137h93l110 -137h-100zM486 210h-166v74h255v-204q-116 -89 -243 -89q-134 0 -215.5 76.5t-81.5 203.5q0 126 77.5 206t213.5 80q201 0 240 -169l-80 -21q-28 117 -159 117q-99 0 -150 -57t-51 -150q0 -104 54.5 -157.5t147.5 -53.5
q84 0 158 53v91z" />
    <glyph glyph-name="gcommaaccent.sc" horiz-adv-x="634" 
d="M305 -223l-22 34q35 15 44 59h-38v71h84v-47q0 -90 -68 -117zM486 210h-166v74h255v-204q-116 -89 -243 -89q-134 0 -215.5 76.5t-81.5 203.5q0 126 77.5 206t213.5 80q201 0 240 -169l-80 -21q-28 117 -159 117q-99 0 -150 -57t-51 -150q0 -104 54.5 -157.5t147.5 -53.5
q84 0 158 53v91z" />
    <glyph glyph-name="gdotaccent.sc" horiz-adv-x="634" 
d="M378 594h-109v109h109v-109zM486 210h-166v74h255v-204q-116 -89 -243 -89q-134 0 -215.5 76.5t-81.5 203.5q0 126 77.5 206t213.5 80q201 0 240 -169l-80 -21q-28 117 -159 117q-99 0 -150 -57t-51 -150q0 -104 54.5 -157.5t147.5 -53.5q84 0 158 53v91z" />
    <glyph glyph-name="hbar.sc" horiz-adv-x="593" 
d="M18 410v54h50v83h88v-83h281v83h89v-83h50v-54h-50v-410h-89v252h-281v-252h-88v410h-50zM156 327h281v83h-281v-83z" />
    <glyph glyph-name="hcircumflex.sc" horiz-adv-x="593" 
d="M352 594l-54 83l-55 -83h-100l106 137h93l110 -137h-100zM156 0h-88v547h88v-220h281v220h89v-547h-89v252h-281v-252z" />
    <glyph glyph-name="ibreve.sc" horiz-adv-x="236" 
d="M-26 726h60q13 -66 84 -66q70 0 84 66h60q-7 -62 -45 -94.5t-98 -32.5q-62 0 -100 32.5t-45 94.5zM162 0h-88v547h88v-547z" />
    <glyph glyph-name="ij.sc" horiz-adv-x="593" 
d="M156 0h-88v547h88v-547zM201 152v11l81 9q2 -62 21 -84.5t55 -22.5q43 0 60.5 23.5t17.5 83.5v375h89v-371q0 -185 -166 -185q-81 0 -119.5 43.5t-38.5 117.5z" />
    <glyph glyph-name="imacron.sc" horiz-adv-x="236" 
d="M271 611h-305v71h305v-71zM162 0h-88v547h88v-547z" />
    <glyph glyph-name="iogonek.sc" horiz-adv-x="236" 
d="M162 0h-28q-14 -36 -14 -66q0 -35 20 -56t53 -21t79 23v-58q-56 -29 -96 -29q-57 0 -87 28.5t-30 78.5q0 46 15 100v547h88v-547z" />
    <glyph glyph-name="itilde.sc" horiz-adv-x="236" 
d="M19 612h-65q0 52 28 81.5t71 29.5q28 0 82 -26q29 -15 46 -15q31 0 36 42h64q-1 -54 -28 -82.5t-69 -28.5q-30 0 -80 27q-33 18 -48 18q-37 0 -37 -46zM162 0h-88v547h88v-547z" />
    <glyph glyph-name="jcircumflex.sc" horiz-adv-x="407" 
d="M340 594l-54 83l-55 -83h-100l106 137h93l110 -137h-100zM15 152v11l81 9q2 -62 21 -84.5t55 -22.5q43 0 60.5 23.5t17.5 83.5v375h89v-371q0 -185 -166 -185q-81 0 -119.5 43.5t-38.5 117.5z" />
    <glyph glyph-name="kcommaaccent.sc" horiz-adv-x="553" 
d="M241 -223l-22 34q35 15 44 59h-38v71h84v-47q0 -90 -68 -117zM156 0h-88v547h88v-256l270 256h120l-242 -222l249 -325h-115l-196 268l-86 -79v-189z" />
    <glyph glyph-name="lacute.sc" horiz-adv-x="463" 
d="M159 594h-73l65 137h115zM434 0h-366v547h88v-473h278v-74z" />
    <glyph glyph-name="lcaron.sc" horiz-adv-x="463" 
d="M434 0h-366v547h88v-473h278v-74zM280 467h-43v80h88v-80q0 -47 -16 -73.5t-57 -44.5l-22 34q28 13 38.5 31t11.5 53z" />
    <glyph glyph-name="lcommaaccent.sc" horiz-adv-x="463" 
d="M225 -223l-22 34q35 15 44 59h-38v71h84v-47q0 -90 -68 -117zM434 0h-366v547h88v-473h278v-74z" />
    <glyph glyph-name="ldot.sc" horiz-adv-x="463" 
d="M434 0h-366v547h88v-473h278v-74zM327 231h-100v100h100v-100z" />
    <glyph glyph-name="nacute.sc" horiz-adv-x="594" 
d="M325 594h-73l65 137h115zM153 0h-85v547h85l288 -407v407h86v-547h-86l-288 407v-407z" />
    <glyph glyph-name="ncaron.sc" horiz-adv-x="594" 
d="M244 731l55 -83l53 83h100l-110 -137h-94l-105 137h101zM153 0h-85v547h85l288 -407v407h86v-547h-86l-288 407v-407z" />
    <glyph glyph-name="ncommaaccent.sc" horiz-adv-x="594" 
d="M275 -223l-22 34q35 15 44 59h-38v71h84v-47q0 -90 -68 -117zM153 0h-85v547h85l288 -407v407h86v-547h-86l-288 407v-407z" />
    <glyph glyph-name="obreve.sc" horiz-adv-x="626" 
d="M169 726h60q13 -66 84 -66t84 66h60q-7 -62 -45 -94.5t-98 -32.5q-62 0 -100 32.5t-45 94.5zM314 484q-85 0 -136.5 -55t-51.5 -156q0 -98 51.5 -154.5t135.5 -56.5t135.5 56.5t51.5 154.5t-51.5 154.5t-134.5 56.5zM313 557q123 0 200.5 -79t77.5 -205t-78 -204
t-200 -78q-123 0 -200.5 79t-77.5 203q0 126 76.5 205t201.5 79z" />
    <glyph glyph-name="ohungarumlaut.sc" horiz-adv-x="626" 
d="M314 484q-85 0 -136.5 -55t-51.5 -156q0 -98 51.5 -154.5t135.5 -56.5t135.5 56.5t51.5 154.5t-51.5 154.5t-134.5 56.5zM313 557q123 0 200.5 -79t77.5 -205t-78 -204t-200 -78q-123 0 -200.5 79t-77.5 203q0 126 76.5 205t201.5 79zM250 594h-70l59 137h114zM423 594
h-74l62 137h113z" />
    <glyph glyph-name="omacron.sc" horiz-adv-x="626" 
d="M466 611h-305v71h305v-71zM314 484q-85 0 -136.5 -55t-51.5 -156q0 -98 51.5 -154.5t135.5 -56.5t135.5 56.5t51.5 154.5t-51.5 154.5t-134.5 56.5zM313 557q123 0 200.5 -79t77.5 -205t-78 -204t-200 -78q-123 0 -200.5 79t-77.5 203q0 126 76.5 205t201.5 79z" />
    <glyph glyph-name="oslashacute.sc" horiz-adv-x="626" 
d="M328 594h-73l65 137h115zM469 401l-280 -294q49 -45 123 -45q85 0 136.5 56t51.5 156q0 77 -31 127zM158 146l278 293q-50 45 -122 45q-85 0 -136.5 -55t-51.5 -156q0 -77 32 -127zM492 498l66 70l37 -34l-68 -71q64 -74 64 -190q0 -126 -77.5 -204t-201.5 -78
q-104 0 -177 58l-67 -70l-37 33l68 72q-64 77 -64 189q0 126 76.5 205t200.5 79q106 0 180 -59z" />
    <glyph glyph-name="racute.sc" horiz-adv-x="566" 
d="M299 594h-73l65 137h115zM156 473v-161h137q133 0 133 83q0 34 -27 56t-88 22h-155zM156 0h-88v547h240q68 0 110 -12q43 -12 71 -50.5t28 -88.5q0 -121 -148 -149q45 -25 92 -93l105 -154h-110l-76 114q-40 59 -63.5 84t-43 32t-56.5 8h-61v-238z" />
    <glyph glyph-name="rcaron.sc" horiz-adv-x="566" 
d="M228 731l55 -83l53 83h100l-110 -137h-94l-105 137h101zM156 473v-161h137q133 0 133 83q0 34 -27 56t-88 22h-155zM156 0h-88v547h240q68 0 110 -12q43 -12 71 -50.5t28 -88.5q0 -121 -148 -149q45 -25 92 -93l105 -154h-110l-76 114q-40 59 -63.5 84t-43 32t-56.5 8
h-61v-238z" />
    <glyph glyph-name="rcommaaccent.sc" horiz-adv-x="566" 
d="M259 -223l-22 34q35 15 44 59h-38v71h84v-47q0 -90 -68 -117zM156 473v-161h137q133 0 133 83q0 34 -27 56t-88 22h-155zM156 0h-88v547h240q68 0 110 -12q43 -12 71 -50.5t28 -88.5q0 -121 -148 -149q45 -25 92 -93l105 -154h-110l-76 114q-40 59 -63.5 84t-43 32
t-56.5 8h-61v-238z" />
    <glyph glyph-name="sacute.sc" horiz-adv-x="548" 
d="M296 594h-73l65 137h115zM38 183l85 6q4 -65 49 -94t110 -29q63 0 99 23t36 62q0 37 -29 54.5t-138 43.5q-98 23 -144 56t-46 98q0 67 57 110.5t150 43.5q100 0 158.5 -45.5t61.5 -126.5l-86 -6q-4 103 -130 103q-59 0 -92 -19.5t-33 -54.5q0 -33 25 -48
q15 -9 116.5 -35.5t119.5 -33.5q45 -18 71 -53.5t26 -80.5q0 -71 -60 -119t-156 -48q-119 0 -183 50t-67 143z" />
    <glyph glyph-name="scedilla.sc" horiz-adv-x="548" 
d="M176 -200l5 57q13 -1 46 -1q79 0 79 36q0 33 -77 33l19 67q-100 7 -154 56.5t-56 134.5l85 6q4 -65 49 -94t110 -29q63 0 99 23t36 62q0 37 -29 54.5t-138 43.5q-98 23 -144 56t-46 98q0 67 57 110.5t150 43.5q100 0 158.5 -45.5t61.5 -126.5l-86 -6q-4 103 -130 103
q-59 0 -92 -19.5t-33 -54.5q0 -33 25 -48q15 -9 116.5 -35.5t119.5 -33.5q45 -18 71 -53.5t26 -80.5q0 -66 -52 -112.5t-138 -53.5l-10 -32q41 -5 62 -25t21 -48q0 -39 -38 -65t-98 -26q-51 0 -75 5z" />
    <glyph glyph-name="scircumflex.sc" horiz-adv-x="548" 
d="M329 594l-54 83l-55 -83h-100l106 137h93l110 -137h-100zM38 183l85 6q4 -65 49 -94t110 -29q63 0 99 23t36 62q0 37 -29 54.5t-138 43.5q-98 23 -144 56t-46 98q0 67 57 110.5t150 43.5q100 0 158.5 -45.5t61.5 -126.5l-86 -6q-4 103 -130 103q-59 0 -92 -19.5
t-33 -54.5q0 -33 25 -48q15 -9 116.5 -35.5t119.5 -33.5q45 -18 71 -53.5t26 -80.5q0 -71 -60 -119t-156 -48q-119 0 -183 50t-67 143z" />
    <glyph glyph-name="scommaaccent.sc" horiz-adv-x="548" 
d="M256 -223l-22 34q35 15 44 59h-38v71h84v-47q0 -90 -68 -117zM38 183l85 6q4 -65 49 -94t110 -29q63 0 99 23t36 62q0 37 -29 54.5t-138 43.5q-98 23 -144 56t-46 98q0 67 57 110.5t150 43.5q100 0 158.5 -45.5t61.5 -126.5l-86 -6q-4 103 -130 103q-59 0 -92 -19.5
t-33 -54.5q0 -33 25 -48q15 -9 116.5 -35.5t119.5 -33.5q45 -18 71 -53.5t26 -80.5q0 -71 -60 -119t-156 -48q-119 0 -183 50t-67 143z" />
    <glyph glyph-name="tbar.sc" horiz-adv-x="518" 
d="M74 247v54h140v172h-185v74h459v-74h-185v-172h140v-54h-140v-247h-89v247h-140z" />
    <glyph glyph-name="tcaron.sc" horiz-adv-x="518" 
d="M205 731l55 -83l53 83h100l-110 -137h-94l-105 137h101zM303 0h-89v473h-185v74h459v-74h-185v-473z" />
    <glyph glyph-name="ubreve.sc" horiz-adv-x="595" 
d="M154 726h60q14 -66 84 -66t84 66h60q-7 -62 -45 -94.5t-98 -32.5q-62 0 -100 32.5t-45 94.5zM438 232v315h89v-315q0 -142 -64 -191q-65 -50 -163 -50q-108 0 -170 50t-62 191v315h88v-315q0 -110 41 -139q39 -27 97 -27q64 0 104 29q40 28 40 137z" />
    <glyph glyph-name="uhungarumlaut.sc" horiz-adv-x="595" 
d="M438 232v315h89v-315q0 -142 -64 -191q-65 -50 -163 -50q-108 0 -170 50t-62 191v315h88v-315q0 -110 41 -139q39 -27 97 -27q64 0 104 29q40 28 40 137zM236 594h-70l59 137h114zM409 594h-74l62 137h113z" />
    <glyph glyph-name="umacron.sc" horiz-adv-x="595" 
d="M450 611h-305v71h305v-71zM438 232v315h89v-315q0 -142 -64 -191q-65 -50 -163 -50q-108 0 -170 50t-62 191v315h88v-315q0 -110 41 -139q39 -27 97 -27q64 0 104 29q40 28 40 137z" />
    <glyph glyph-name="uogonek.sc" horiz-adv-x="595" 
d="M466 -120v-58q-56 -29 -96 -29q-57 0 -87 28.5t-30 78.5q0 38 13 92q-99 9 -148.5 61.5t-49.5 178.5v315h88v-315q0 -110 41 -139q39 -27 97 -27q64 0 104 29q40 28 40 137v315h89v-315q0 -127 -52.5 -180t-149.5 -60q-11 -33 -11 -58q0 -35 20 -56t53 -21t79 23z" />
    <glyph glyph-name="uring.sc" horiz-adv-x="595" 
d="M438 232v315h89v-315q0 -142 -64 -191q-65 -50 -163 -50q-108 0 -170 50t-62 191v315h88v-315q0 -110 41 -139q39 -27 97 -27q64 0 104 29q40 28 40 137zM298 728q-22 0 -37 -15.5t-15 -36.5q0 -23 15 -38.5t37 -15.5q21 0 36.5 15.5t15.5 37.5q0 21 -15.5 37t-36.5 16z
M297 764q37 0 62.5 -26.5t25.5 -63.5q0 -36 -26 -62.5t-62 -26.5q-35 0 -61.5 26t-26.5 65q0 36 26 62t62 26z" />
    <glyph glyph-name="utilde.sc" horiz-adv-x="595" 
d="M199 612h-65q0 52 28 81.5t71 29.5q28 0 82 -26q29 -15 46 -15q31 0 36 42h64q-1 -54 -28 -82.5t-69 -28.5q-30 0 -80 27q-33 18 -48 18q-37 0 -37 -46zM438 232v315h89v-315q0 -142 -64 -191q-65 -50 -163 -50q-108 0 -170 50t-62 191v315h88v-315q0 -110 41 -139
q39 -27 97 -27q64 0 104 29q40 28 40 137z" />
    <glyph glyph-name="wacute.sc" horiz-adv-x="744" 
d="M399 594h-73l65 137h115zM242 0h-89l-153 547h91l106 -439l127 439h99l121 -436l111 436h89l-158 -547h-85l-129 450z" />
    <glyph glyph-name="wcircumflex.sc" horiz-adv-x="744" 
d="M426 594l-54 83l-55 -83h-100l106 137h93l110 -137h-100zM242 0h-89l-153 547h91l106 -439l127 439h99l121 -436l111 436h89l-158 -547h-85l-129 450z" />
    <glyph glyph-name="wdieresis.sc" horiz-adv-x="744" 
d="M242 0h-89l-153 547h91l106 -439l127 439h99l121 -436l111 436h89l-158 -547h-85l-129 450zM509 631h-92v101h92v-101zM326 631h-91v101h91v-101z" />
    <glyph glyph-name="wgrave.sc" horiz-adv-x="744" 
d="M242 0h-89l-153 547h91l106 -439l127 439h99l121 -436l111 436h89l-158 -547h-85l-129 450zM355 731l66 -137h-71l-113 137h118z" />
    <glyph glyph-name="ycircumflex.sc" horiz-adv-x="541" 
d="M325 594l-54 83l-55 -83h-100l106 137h93l110 -137h-100zM311 0h-89v231l-222 316h107l164 -245l167 245h103l-230 -316v-231z" />
    <glyph glyph-name="ygrave.sc" horiz-adv-x="541" 
d="M311 0h-89v231l-222 316h107l164 -245l167 245h103l-230 -316v-231zM248 731l66 -137h-71l-113 137h118z" />
    <glyph glyph-name="zacute.sc" horiz-adv-x="504" 
d="M283 594h-73l65 137h115zM481 0h-458v74l338 399h-305v74h416v-70l-342 -403h351v-74z" />
    <glyph glyph-name="zdotaccent.sc" horiz-adv-x="504" 
d="M323 594h-109v109h109v-109zM481 0h-458v74l338 399h-305v74h416v-70l-342 -403h351v-74z" />
    <glyph glyph-name="idotaccent.sc" horiz-adv-x="236" 
d="M162 0h-88v547h88v-547zM162 616h-88v100h88v-100z" />
    <glyph glyph-name="A.sc" horiz-adv-x="549" 
d="M267 462l-84 -228h171zM94 0h-94l221 547h92l236 -547h-100l-65 160h-229z" />
    <glyph glyph-name="B.sc" horiz-adv-x="548" 
d="M156 248v-174h135q74 0 100.5 24t26.5 62q0 40 -28 64t-110 24h-124zM156 473v-151h116q76 0 99.5 19.5t23.5 54.5q0 43 -28 60t-104 17h-107zM291 0h-223v547h219q96 0 147.5 -39.5t51.5 -102.5q0 -73 -75 -113q99 -34 99 -131q0 -71 -50.5 -116t-168.5 -45z" />
    <glyph glyph-name="C.sc" horiz-adv-x="581" 
d="M463 200l88 -21q-24 -91 -87.5 -139.5t-154.5 -48.5q-136 0 -205 80t-69 206q0 129 75.5 204.5t199.5 75.5q183 0 232 -166l-87 -20q-35 113 -143 113q-91 0 -138.5 -54.5t-47.5 -152.5q0 -105 47.5 -160t128.5 -55q130 0 161 138z" />
    <glyph glyph-name="D.sc" horiz-adv-x="585" 
d="M156 473v-399h114q95 0 142 43.5t47 160.5q0 73 -27 122q-25 44 -59.5 58.5t-102.5 14.5h-114zM279 0h-211v547h202q90 0 145 -21q58 -22 96.5 -88.5t38.5 -159.5q0 -128 -64.5 -203t-206.5 -75z" />
    <glyph glyph-name="E.sc" horiz-adv-x="518" 
d="M489 0h-421v547h408v-74h-320v-153h298v-74h-298v-172h333v-74z" />
    <glyph glyph-name="F.sc" horiz-adv-x="489" 
d="M156 0h-88v547h392v-74h-304v-153h263v-74h-263v-246z" />
    <glyph glyph-name="G.sc" horiz-adv-x="634" 
d="M486 210h-166v74h255v-204q-116 -89 -243 -89q-134 0 -215.5 76.5t-81.5 203.5q0 126 77.5 206t213.5 80q201 0 240 -169l-80 -21q-28 117 -159 117q-99 0 -150 -57t-51 -150q0 -104 54.5 -157.5t147.5 -53.5q84 0 158 53v91z" />
    <glyph glyph-name="H.sc" horiz-adv-x="593" 
d="M156 0h-88v547h88v-220h281v220h89v-547h-89v252h-281v-252z" />
    <glyph glyph-name="I.sc" horiz-adv-x="236" 
d="M162 0h-88v547h88v-547z" />
    <glyph glyph-name="J.sc" horiz-adv-x="407" 
d="M15 152v11l81 9q2 -62 21 -84.5t55 -22.5q43 0 60.5 23.5t17.5 83.5v375h89v-371q0 -185 -166 -185q-81 0 -119.5 43.5t-38.5 117.5z" />
    <glyph glyph-name="K.sc" horiz-adv-x="553" 
d="M156 0h-88v547h88v-256l270 256h120l-242 -222l249 -325h-115l-196 268l-86 -79v-189z" />
    <glyph glyph-name="L.sc" horiz-adv-x="463" 
d="M434 0h-366v547h88v-473h278v-74z" />
    <glyph glyph-name="M.sc" horiz-adv-x="707" 
d="M153 0h-85v547h134l152 -443l151 443h134v-547h-86v455l-162 -455h-76l-162 455v-455z" />
    <glyph glyph-name="N.sc" horiz-adv-x="594" 
d="M153 0h-85v547h85l288 -407v407h86v-547h-86l-288 407v-407z" />
    <glyph glyph-name="O.sc" horiz-adv-x="626" 
d="M314 484q-85 0 -136.5 -55t-51.5 -156q0 -98 51.5 -154.5t135.5 -56.5t135.5 56.5t51.5 154.5t-51.5 154.5t-134.5 56.5zM313 557q123 0 200.5 -79t77.5 -205t-78 -204t-200 -78q-123 0 -200.5 79t-77.5 203q0 126 76.5 205t201.5 79z" />
    <glyph glyph-name="P.sc" horiz-adv-x="543" 
d="M156 473v-181h139q128 0 128 92q0 28 -17 54q-15 22 -37.5 28.5t-73.5 6.5h-139zM156 0h-88v547h220q76 0 121 -13q47 -13 76 -53t29 -96q0 -74 -51 -120.5t-168 -46.5h-139v-218z" />
    <glyph glyph-name="Q.sc" horiz-adv-x="626" 
d="M378 73q-44 21 -70 26l22 64q64 -16 111 -52q59 57 59 162q0 98 -51.5 154.5t-134.5 56.5q-85 0 -136.5 -55t-51.5 -156q0 -98 51.5 -154.5t134.5 -56.5q33 0 66 11zM510 65q60 -36 92 -46l-28 -61q-63 21 -123 65q-61 -32 -138 -32q-123 0 -200.5 79t-77.5 203
q0 126 76.5 205t200.5 79q125 0 202 -78.5t77 -205.5q0 -131 -81 -208z" />
    <glyph glyph-name="R.sc" horiz-adv-x="566" 
d="M156 473v-161h137q133 0 133 83q0 34 -27 56t-88 22h-155zM156 0h-88v547h240q68 0 110 -12q43 -12 71 -50.5t28 -88.5q0 -121 -148 -149q45 -25 92 -93l105 -154h-110l-76 114q-55 84 -83 103.5t-80 20.5h-61v-238z" />
    <glyph glyph-name="S.sc" horiz-adv-x="548" 
d="M38 183l85 6q4 -65 49 -94t110 -29q63 0 99 23t36 62q0 37 -29 54.5t-138 43.5q-98 23 -144 56t-46 98q0 67 57 110.5t150 43.5q100 0 158.5 -45.5t61.5 -126.5l-86 -6q-4 103 -130 103q-59 0 -92 -19.5t-33 -54.5q0 -33 25 -48q15 -9 116.5 -35.5t119.5 -33.5
q45 -18 71 -53.5t26 -80.5q0 -71 -60 -119t-156 -48q-119 0 -183 50t-67 143z" />
    <glyph glyph-name="T.sc" horiz-adv-x="518" 
d="M303 0h-89v473h-185v74h459v-74h-185v-473z" />
    <glyph glyph-name="U.sc" horiz-adv-x="595" 
d="M438 232v315h89v-315q0 -142 -64 -191q-65 -50 -163 -50q-108 0 -170 50t-62 191v315h88v-315q0 -110 41 -139q39 -27 97 -27q64 0 104 29q40 28 40 137z" />
    <glyph glyph-name="V.sc" horiz-adv-x="537" 
d="M312 0h-89l-223 547h96l172 -462l178 462h91z" />
    <glyph glyph-name="W.sc" horiz-adv-x="744" 
d="M242 0h-89l-153 547h91l106 -439l127 439h99l121 -436l111 436h89l-158 -547h-85l-129 450z" />
    <glyph glyph-name="X.sc" horiz-adv-x="542" 
d="M0 0l223 283l-197 264h105l146 -196l152 196h98l-200 -260l215 -287h-108l-162 218l-166 -218h-106z" />
    <glyph glyph-name="Y.sc" horiz-adv-x="541" 
d="M311 0h-89v231l-222 316h107l164 -245l167 245h103l-230 -316v-231z" />
    <glyph glyph-name="Z.sc" horiz-adv-x="504" 
d="M481 0h-458v74l338 399h-305v74h416v-70l-342 -403h351v-74z" />
    <glyph glyph-name="Lslash.sc" horiz-adv-x="463" 
d="M67 0v188l-62 -52v62l62 53v296h88v-221l100 85v-62l-100 -85v-190h277v-74h-365z" />
    <glyph glyph-name="Scaron.sc" horiz-adv-x="548" 
d="M38 183l85 6q4 -65 49 -94t110 -29q63 0 99 23t36 62q0 37 -29 54.5t-138 43.5q-98 23 -144 56t-46 98q0 67 57 110.5t150 43.5q100 0 158.5 -45.5t61.5 -126.5l-86 -6q-4 103 -130 103q-59 0 -92 -19.5t-33 -54.5q0 -33 25 -48q15 -9 116.5 -35.5t119.5 -33.5
q45 -18 71 -53.5t26 -80.5q0 -71 -60 -119t-156 -48q-119 0 -183 50t-67 143zM228 731l55 -83l53 83h100l-110 -137h-94l-105 137h101z" />
    <glyph glyph-name="Zcaron.sc" horiz-adv-x="504" 
d="M481 0h-458v74l338 399h-305v74h416v-70l-342 -403h351v-74zM206 731l55 -83l53 83h100l-109 -137h-94l-106 137h101z" />
    <glyph glyph-name="Agrave.sc" horiz-adv-x="549" 
d="M267 462l-84 -228h171zM94 0h-94l221 547h92l236 -547h-100l-65 160h-229zM269 731l66 -137h-71l-113 137h118z" />
    <glyph glyph-name="Aacute.sc" horiz-adv-x="549" 
d="M267 462l-84 -228h171zM94 0h-94l221 547h92l236 -547h-100l-65 160h-229zM289 594h-73l65 137h115z" />
    <glyph glyph-name="Acircumflex.sc" horiz-adv-x="549" 
d="M267 462l-84 -228h171zM94 0h-94l221 547h92l236 -547h-100l-65 160h-229zM321 594l-54 83l-55 -83h-100l106 137h93l110 -137h-100z" />
    <glyph glyph-name="Atilde.sc" horiz-adv-x="549" 
d="M267 462l-84 -228h171zM94 0h-94l221 547h92l236 -547h-100l-65 160h-229zM169 606h-65q0 53 28 82.5t71 29.5q25 0 82 -27q28 -14 46 -14q31 0 36 42h63q0 -54 -27 -82.5t-68 -28.5q-31 0 -81 27q-33 18 -48 18q-37 0 -37 -47z" />
    <glyph glyph-name="Adieresis.sc" horiz-adv-x="549" 
d="M267 462l-84 -228h171zM94 0h-94l221 547h92l236 -547h-100l-65 160h-229zM404 631h-92v101h92v-101zM222 631h-92v101h92v-101z" />
    <glyph glyph-name="Aring.sc" horiz-adv-x="549" 
d="M267 462l-84 -228h171zM94 0h-94l221 547h92l236 -547h-100l-65 160h-229zM268 728q-22 0 -37 -15.5t-15 -36.5q0 -23 15 -38.5t37 -15.5q21 0 36.5 15.5t15.5 37.5q0 21 -15.5 37t-36.5 16zM267 764q37 0 62.5 -26.5t25.5 -63.5q0 -36 -26 -62.5t-62 -26.5
q-35 0 -61.5 26t-26.5 65q0 36 26 62t62 26z" />
    <glyph glyph-name="AE.sc" horiz-adv-x="791" 
d="M334 473l-124 -244h171v244h-47zM96 0h-96l277 547h474v-74h-282v-153h262v-74h-262v-172h292v-74h-380v155h-209z" />
    <glyph glyph-name="Ccedilla.sc" horiz-adv-x="581" 
d="M334 -8l-10 -33q40 -4 62 -25t22 -47q0 -41 -38 -67t-103 -26q-39 0 -71 6l6 57q38 -2 48 -2q76 0 76 37q0 33 -76 33l20 68q-117 10 -176 90.5t-59 193.5q0 129 75.5 204.5t199.5 75.5q183 0 232 -166l-87 -20q-35 113 -143 113q-91 0 -138.5 -54.5t-47.5 -152.5
q0 -105 47.5 -160t128.5 -55q130 0 161 138l88 -21q-46 -170 -217 -187z" />
    <glyph glyph-name="Egrave.sc" horiz-adv-x="518" 
d="M489 0h-421v547h408v-74h-320v-153h298v-74h-298v-172h333v-74zM270 731l66 -137h-71l-113 137h118z" />
    <glyph glyph-name="Eacute.sc" horiz-adv-x="518" 
d="M489 0h-421v547h408v-74h-320v-153h298v-74h-298v-172h333v-74zM284 594h-73l65 137h115z" />
    <glyph glyph-name="Ecircumflex.sc" horiz-adv-x="518" 
d="M489 0h-421v547h408v-74h-320v-153h298v-74h-298v-172h333v-74zM330 594l-54 83l-55 -83h-101l106 137h93l110 -137h-99z" />
    <glyph glyph-name="Edieresis.sc" horiz-adv-x="518" 
d="M489 0h-421v547h408v-74h-320v-153h298v-74h-298v-172h333v-74zM414 631h-92v101h92v-101zM231 631h-91v101h91v-101z" />
    <glyph glyph-name="Igrave.sc" horiz-adv-x="236" 
d="M162 0h-88v547h88v-547zM112 731l66 -137h-71l-112 137h117z" />
    <glyph glyph-name="Iacute.sc" horiz-adv-x="236" 
d="M162 0h-89v547h89v-547zM132 594h-72l65 137h115z" />
    <glyph glyph-name="Icircumflex.sc" horiz-adv-x="236" 
d="M162 0h-88v547h88v-547zM173 594l-54 83l-55 -83h-101l106 137h94l109 -137h-99z" />
    <glyph glyph-name="Idieresis.sc" horiz-adv-x="236" 
d="M162 0h-88v547h88v-547zM255 631h-92v101h92v-101zM73 631h-92v101h92v-101z" />
    <glyph glyph-name="Eth.sc" horiz-adv-x="585" 
d="M308 247h-152v-173h114q95 0 142 43.5t47 160.5q0 73 -27 122q-25 44 -59.5 58.5t-102.5 14.5h-114v-172h152v-54zM68 0v247h-64v54h64v246h202q90 0 145 -21q58 -22 96.5 -88.5t38.5 -159.5q0 -128 -64.5 -203t-206.5 -75h-211z" />
    <glyph glyph-name="Ntilde.sc" horiz-adv-x="594" 
d="M153 0h-85v547h85l288 -407v407h86v-547h-86l-288 407v-407zM199 612h-65q0 52 28 81.5t71 29.5q28 0 82 -26q29 -15 46 -15q31 0 36 42h64q-2 -54 -28.5 -82.5t-67.5 -28.5q-31 0 -81 27q-33 18 -48 18q-37 0 -37 -46z" />
    <glyph glyph-name="Ograve.sc" horiz-adv-x="626" 
d="M314 484q-85 0 -136.5 -55t-51.5 -156q0 -98 51.5 -154.5t135.5 -56.5t135.5 56.5t51.5 154.5t-51.5 154.5t-134.5 56.5zM313 557q123 0 200.5 -79t77.5 -205t-78 -204t-200 -78q-123 0 -200.5 79t-77.5 203q0 126 76.5 205t201.5 79zM308 731l66 -137h-71l-113 137h118z
" />
    <glyph glyph-name="Oacute.sc" horiz-adv-x="626" 
d="M314 484q-85 0 -136.5 -55t-51.5 -156q0 -98 51.5 -154.5t135.5 -56.5t135.5 56.5t51.5 154.5t-51.5 154.5t-134.5 56.5zM313 557q123 0 200.5 -79t77.5 -205t-78 -204t-200 -78q-123 0 -200.5 79t-77.5 203q0 126 76.5 205t201.5 79zM328 594h-73l65 137h116z" />
    <glyph glyph-name="Ocircumflex.sc" horiz-adv-x="626" 
d="M314 484q-85 0 -136.5 -55t-51.5 -156q0 -98 51.5 -154.5t135.5 -56.5t135.5 56.5t51.5 154.5t-51.5 154.5t-134.5 56.5zM313 557q123 0 200.5 -79t77.5 -205t-78 -204t-200 -78q-123 0 -200.5 79t-77.5 203q0 126 76.5 205t201.5 79zM368 594l-54 83l-55 -83h-100
l105 137h94l110 -137h-100z" />
    <glyph glyph-name="Otilde.sc" horiz-adv-x="626" 
d="M314 484q-85 0 -136.5 -55t-51.5 -156q0 -98 51.5 -154.5t135.5 -56.5t135.5 56.5t51.5 154.5t-51.5 154.5t-134.5 56.5zM313 557q123 0 200.5 -79t77.5 -205t-78 -204t-200 -78q-123 0 -200.5 79t-77.5 203q0 126 76.5 205t201.5 79zM215 612h-65q0 52 28 81.5t71 29.5
q28 0 82 -26q29 -15 46 -15q31 0 36 42h64q-1 -54 -28 -82.5t-69 -28.5q-30 0 -80 27q-33 18 -48 18q-37 0 -37 -46z" />
    <glyph glyph-name="Odieresis.sc" horiz-adv-x="626" 
d="M314 484q-85 0 -136.5 -55t-51.5 -156q0 -98 51.5 -154.5t135.5 -56.5t135.5 56.5t51.5 154.5t-51.5 154.5t-134.5 56.5zM313 557q123 0 200.5 -79t77.5 -205t-78 -204t-200 -78q-123 0 -200.5 79t-77.5 203q0 126 76.5 205t201.5 79zM450 631h-92v101h92v-101zM268 631
h-92v101h92v-101z" />
    <glyph glyph-name="OE.sc" horiz-adv-x="792" 
d="M415 279q0 99 -39.5 154t-104.5 55q-66 0 -105.5 -54t-39.5 -165q0 -100 40 -155t105 -55t104.5 54.5t39.5 165.5zM500 74h262v-74h-343v63q-54 -72 -148 -72q-114 0 -175 78t-61 205q0 128 60 205.5t176 77.5q95 0 148 -69v59h331v-74h-250v-153h231v-74h-231v-172z" />
    <glyph glyph-name="Oslash.sc" horiz-adv-x="626" 
d="M469 401l-280 -294q49 -45 123 -45q85 0 136.5 56t51.5 156q0 77 -31 127zM158 146l278 293q-50 45 -122 45q-85 0 -136.5 -55t-51.5 -156q0 -77 32 -127zM492 498l66 70l37 -34l-68 -71q64 -74 64 -190q0 -126 -77.5 -204t-201.5 -78q-104 0 -177 58l-67 -70l-37 33
l68 72q-64 77 -64 189q0 126 76.5 205t200.5 79q106 0 180 -59z" />
    <glyph glyph-name="Ugrave.sc" horiz-adv-x="595" 
d="M438 232v315h89v-315q0 -142 -64 -191q-65 -50 -163 -50q-108 0 -170 50t-62 191v315h88v-315q0 -110 41 -139q39 -27 97 -27q64 0 104 29q40 28 40 137zM313 731l66 -137h-71l-113 137h118z" />
    <glyph glyph-name="Uacute.sc" horiz-adv-x="595" 
d="M438 232v315h89v-315q0 -142 -64 -191q-65 -50 -163 -50q-108 0 -170 50t-62 191v315h88v-315q0 -110 41 -139q39 -27 97 -27q64 0 104 29q40 28 40 137zM312 594h-73l66 137h114z" />
    <glyph glyph-name="Ucircumflex.sc" horiz-adv-x="595" 
d="M438 232v315h89v-315q0 -142 -64 -191q-65 -50 -163 -50q-108 0 -170 50t-62 191v315h88v-315q0 -110 41 -139q39 -27 97 -27q64 0 104 29q40 28 40 137zM353 594l-55 83l-55 -83h-100l106 137h93l110 -137h-99z" />
    <glyph glyph-name="Udieresis.sc" horiz-adv-x="595" 
d="M438 232v315h89v-315q0 -142 -64 -191q-65 -50 -163 -50q-108 0 -170 50t-62 191v315h88v-315q0 -110 41 -139q39 -27 97 -27q64 0 104 29q40 28 40 137zM435 631h-92v101h92v-101zM252 631h-91v101h91v-101z" />
    <glyph glyph-name="Yacute.sc" horiz-adv-x="541" 
d="M311 0h-89v231l-222 316h107l164 -245l167 245h103l-230 -316v-231zM286 594h-74l66 137h115z" />
    <glyph glyph-name="Thorn.sc" horiz-adv-x="543" 
d="M156 364v-181h139q128 0 128 91q0 28 -17 55q-16 22 -38 28.5t-73 6.5h-139zM156 0h-88v547h88v-109h132q76 0 121 -13q47 -13 76 -53t29 -96q0 -74 -51 -120.5t-168 -46.5h-139v-109z" />
    <glyph glyph-name="Ydieresis.sc" horiz-adv-x="541" 
d="M311 0h-89v231l-222 316h107l164 -245l167 245h103l-230 -316v-231zM407 631h-91v101h91v-101zM225 631h-92v101h92v-101z" />
    <glyph glyph-name="Abreve.sc" horiz-adv-x="549" 
d="M123 726h60q13 -66 84 -66t84 66h60q-7 -62 -45 -94.5t-98 -32.5q-62 0 -100 32.5t-45 94.5zM267 462l-84 -228h171zM94 0h-94l221 547h92l236 -547h-100l-65 160h-229z" />
    <glyph glyph-name="Amacron.sc" horiz-adv-x="549" 
d="M420 611h-305v71h305v-71zM267 462l-84 -228h171zM94 0h-94l221 547h92l236 -547h-100l-65 160h-229z" />
    <glyph glyph-name="Aogonek.sc" horiz-adv-x="549" 
d="M647 -120v-58q-56 -29 -96 -29q-57 0 -87 28.5t-30 78.5q0 46 15 100l-65 160h-229l-61 -160h-94l221 547h92l236 -547h-40q-14 -36 -14 -66q0 -35 20 -56t53 -21t79 23zM267 462l-84 -228h171z" />
    <glyph glyph-name="AEacute.sc" horiz-adv-x="791" 
d="M524 594h-73l65 137h115zM334 473l-124 -244h171v244h-47zM96 0h-96l277 547h474v-74h-282v-153h262v-74h-262v-172h292v-74h-380v155h-209z" />
    <glyph glyph-name="Cacute.sc" horiz-adv-x="581" 
d="M324 594h-73l65 137h115zM463 200l88 -21q-24 -91 -87.5 -139.5t-154.5 -48.5q-136 0 -205 80t-69 206q0 129 75.5 204.5t199.5 75.5q183 0 232 -166l-87 -20q-35 113 -143 113q-91 0 -138.5 -54.5t-47.5 -152.5q0 -105 47.5 -160t128.5 -55q130 0 161 138z" />
    <glyph glyph-name="Ccaron.sc" horiz-adv-x="581" 
d="M258 731l55 -83l53 83h100l-110 -137h-94l-105 137h101zM463 200l88 -21q-24 -91 -87.5 -139.5t-154.5 -48.5q-136 0 -205 80t-69 206q0 129 75.5 204.5t199.5 75.5q183 0 232 -166l-87 -20q-35 113 -143 113q-91 0 -138.5 -54.5t-47.5 -152.5q0 -105 47.5 -160
t128.5 -55q130 0 161 138z" />
    <glyph glyph-name="Ccircumflex.sc" horiz-adv-x="581" 
d="M358 594l-54 83l-55 -83h-100l106 137h93l110 -137h-100zM463 200l88 -21q-24 -91 -87.5 -139.5t-154.5 -48.5q-136 0 -205 80t-69 206q0 129 75.5 204.5t199.5 75.5q183 0 232 -166l-87 -20q-35 113 -143 113q-91 0 -138.5 -54.5t-47.5 -152.5q0 -105 47.5 -160
t128.5 -55q130 0 161 138z" />
    <glyph glyph-name="Cdotaccent.sc" horiz-adv-x="581" 
d="M360 594h-109v109h109v-109zM463 200l88 -21q-24 -91 -87.5 -139.5t-154.5 -48.5q-136 0 -205 80t-69 206q0 129 75.5 204.5t199.5 75.5q183 0 232 -166l-87 -20q-35 113 -143 113q-91 0 -138.5 -54.5t-47.5 -152.5q0 -105 47.5 -160t128.5 -55q130 0 161 138z" />
    <glyph glyph-name="Dcaron.sc" horiz-adv-x="585" 
d="M226 731l55 -83l53 83h100l-110 -137h-94l-105 137h101zM156 473v-399h114q95 0 142 43.5t47 160.5q0 73 -27 122q-25 44 -59.5 58.5t-102.5 14.5h-114zM279 0h-211v547h202q90 0 145 -21q58 -22 96.5 -88.5t38.5 -159.5q0 -128 -64.5 -203t-206.5 -75z" />
    <glyph glyph-name="Dcroat.sc" horiz-adv-x="585" 
d="M308 247h-152v-173h114q95 0 142 43.5t47 160.5q0 73 -27 122q-25 44 -59.5 58.5t-102.5 14.5h-114v-172h152v-54zM68 0v247h-64v54h64v246h202q90 0 145 -21q58 -22 96.5 -88.5t38.5 -159.5q0 -128 -64.5 -203t-206.5 -75h-211z" />
    <glyph glyph-name="Ebreve.sc" horiz-adv-x="518" 
d="M129 726h60q13 -66 84 -66t84 66h60q-7 -62 -45 -94.5t-98 -32.5q-62 0 -100 32.5t-45 94.5zM489 0h-421v547h408v-74h-320v-153h298v-74h-298v-172h333v-74z" />
    <glyph glyph-name="Ecaron.sc" horiz-adv-x="518" 
d="M219 731l55 -83l53 83h100l-110 -137h-94l-105 137h101zM489 0h-421v547h408v-74h-320v-153h298v-74h-298v-172h333v-74z" />
    <glyph glyph-name="Edotaccent.sc" horiz-adv-x="518" 
d="M332 594h-109v109h109v-109zM489 0h-421v547h408v-74h-320v-153h298v-74h-298v-172h333v-74z" />
    <glyph glyph-name="Emacron.sc" horiz-adv-x="518" 
d="M421 611h-305v71h305v-71zM489 0h-421v547h408v-74h-320v-153h298v-74h-298v-172h333v-74z" />
    <glyph glyph-name="Eng.sc" horiz-adv-x="573" 
d="M68 0v547h88v-58q27 30 78 51q42 17 95 17q102 0 155.5 -72t53.5 -207q0 -139 -47.5 -213t-137.5 -74q-54 0 -101 31l38 63q41 -23 63 -23q43 0 68.5 56t25.5 160q0 206 -138 206q-48 0 -86 -27q-28 -20 -43 -51t-18 -56t-6 -73v-277h-88z" />
    <glyph glyph-name="Eogonek.sc" horiz-adv-x="518" 
d="M489 -120v-58q-56 -29 -96 -29q-57 0 -87 28.5t-30 78.5q0 46 15 100h-223v547h408v-74h-320v-153h298v-74h-298v-172h333v-74h-138q-14 -36 -14 -66q0 -35 20 -56t53 -21t79 23z" />
    <glyph glyph-name="Gbreve.sc" horiz-adv-x="634" 
d="M181 726h60q14 -66 84 -66q71 0 84 66h60q-7 -62 -45 -94.5t-98 -32.5q-62 0 -100 32.5t-45 94.5zM486 210h-166v74h255v-204q-116 -89 -243 -89q-134 0 -215.5 76.5t-81.5 203.5q0 126 77.5 206t213.5 80q201 0 240 -169l-80 -21q-28 117 -159 117q-99 0 -150 -57
t-51 -150q0 -104 54.5 -157.5t147.5 -53.5q84 0 158 53v91z" />
    <glyph glyph-name="Gcircumflex.sc" horiz-adv-x="634" 
d="M376 594l-54 83l-55 -83h-100l106 137h93l110 -137h-100zM486 210h-166v74h255v-204q-116 -89 -243 -89q-134 0 -215.5 76.5t-81.5 203.5q0 126 77.5 206t213.5 80q201 0 240 -169l-80 -21q-28 117 -159 117q-99 0 -150 -57t-51 -150q0 -104 54.5 -157.5t147.5 -53.5
q84 0 158 53v91z" />
    <glyph glyph-name="Gcommaaccent.sc" horiz-adv-x="634" 
d="M305 -223l-22 34q35 15 44 59h-38v71h84v-47q0 -90 -68 -117zM486 210h-166v74h255v-204q-116 -89 -243 -89q-134 0 -215.5 76.5t-81.5 203.5q0 126 77.5 206t213.5 80q201 0 240 -169l-80 -21q-28 117 -159 117q-99 0 -150 -57t-51 -150q0 -104 54.5 -157.5t147.5 -53.5
q84 0 158 53v91z" />
    <glyph glyph-name="Gdotaccent.sc" horiz-adv-x="634" 
d="M378 594h-109v109h109v-109zM486 210h-166v74h255v-204q-116 -89 -243 -89q-134 0 -215.5 76.5t-81.5 203.5q0 126 77.5 206t213.5 80q201 0 240 -169l-80 -21q-28 117 -159 117q-99 0 -150 -57t-51 -150q0 -104 54.5 -157.5t147.5 -53.5q84 0 158 53v91z" />
    <glyph glyph-name="Hbar.sc" horiz-adv-x="593" 
d="M18 410v54h50v83h88v-83h281v83h89v-83h50v-54h-50v-410h-89v252h-281v-252h-88v410h-50zM156 327h281v83h-281v-83z" />
    <glyph glyph-name="Hcircumflex.sc" horiz-adv-x="593" 
d="M352 594l-54 83l-55 -83h-100l106 137h93l110 -137h-100zM156 0h-88v547h88v-220h281v220h89v-547h-89v252h-281v-252z" />
    <glyph glyph-name="Ibreve.sc" horiz-adv-x="236" 
d="M-26 726h60q13 -66 84 -66q70 0 84 66h60q-7 -62 -45 -94.5t-98 -32.5q-62 0 -100 32.5t-45 94.5zM162 0h-88v547h88v-547z" />
    <glyph glyph-name="IJ.sc" horiz-adv-x="607" 
d="M162 0h-88v547h88v-547zM215 152v11l81 9q2 -62 21 -84.5t55 -22.5q43 0 60.5 23.5t17.5 83.5v375h89v-371q0 -185 -166 -185q-81 0 -119.5 43.5t-38.5 117.5z" />
    <glyph glyph-name="Imacron.sc" horiz-adv-x="236" 
d="M271 611h-305v71h305v-71zM162 0h-88v547h88v-547z" />
    <glyph glyph-name="Iogonek.sc" horiz-adv-x="236" 
d="M162 0h-28q-14 -36 -14 -66q0 -35 20 -56t53 -21t79 23v-58q-56 -29 -96 -29q-57 0 -87 28.5t-30 78.5q0 46 15 100v547h88v-547z" />
    <glyph glyph-name="Itilde.sc" horiz-adv-x="236" 
d="M19 612h-65q0 52 28 81.5t71 29.5q28 0 82 -26q29 -15 46 -15q31 0 36 42h64q-1 -54 -28 -82.5t-69 -28.5q-30 0 -80 27q-33 18 -48 18q-37 0 -37 -46zM162 0h-88v547h88v-547z" />
    <glyph glyph-name="Jcircumflex.sc" horiz-adv-x="407" 
d="M340 594l-54 83l-55 -83h-100l106 137h93l110 -137h-100zM15 152v11l81 9q2 -62 21 -84.5t55 -22.5q43 0 60.5 23.5t17.5 83.5v375h89v-371q0 -185 -166 -185q-81 0 -119.5 43.5t-38.5 117.5z" />
    <glyph glyph-name="Kcommaaccent.sc" horiz-adv-x="553" 
d="M241 -223l-22 34q35 15 44 59h-38v71h84v-47q0 -90 -68 -117zM156 0h-88v547h88v-256l270 256h120l-242 -222l249 -325h-115l-196 268l-86 -79v-189z" />
    <glyph glyph-name="Lacute.sc" horiz-adv-x="463" 
d="M159 594h-73l65 137h115zM434 0h-366v547h88v-473h278v-74z" />
    <glyph glyph-name="Lcaron.sc" horiz-adv-x="463" 
d="M434 0h-366v547h88v-473h278v-74zM280 467h-43v80h88v-80q0 -47 -16 -73.5t-57 -44.5l-22 34q28 13 38.5 31t11.5 53z" />
    <glyph glyph-name="Lcommaaccent.sc" horiz-adv-x="463" 
d="M225 -223l-22 34q35 15 44 59h-38v71h84v-47q0 -90 -68 -117zM434 0h-366v547h88v-473h278v-74z" />
    <glyph glyph-name="Ldot.sc" horiz-adv-x="463" 
d="M434 0h-366v547h88v-473h278v-74zM327 231h-100v100h100v-100z" />
    <glyph glyph-name="Nacute.sc" horiz-adv-x="594" 
d="M325 594h-73l65 137h115zM153 0h-85v547h85l288 -407v407h86v-547h-86l-288 407v-407z" />
    <glyph glyph-name="Ncaron.sc" horiz-adv-x="594" 
d="M244 731l55 -83l53 83h100l-110 -137h-94l-105 137h101zM153 0h-85v547h85l288 -407v407h86v-547h-86l-288 407v-407z" />
    <glyph glyph-name="Ncommaaccent.sc" horiz-adv-x="594" 
d="M275 -223l-22 34q35 15 44 59h-38v71h84v-47q0 -90 -68 -117zM153 0h-85v547h85l288 -407v407h86v-547h-86l-288 407v-407z" />
    <glyph glyph-name="Obreve.sc" horiz-adv-x="626" 
d="M169 726h60q13 -66 84 -66t84 66h60q-7 -62 -45 -94.5t-98 -32.5q-62 0 -100 32.5t-45 94.5zM314 484q-85 0 -136.5 -55t-51.5 -156q0 -98 51.5 -154.5t135.5 -56.5t135.5 56.5t51.5 154.5t-51.5 154.5t-134.5 56.5zM313 557q123 0 200.5 -79t77.5 -205t-78 -204
t-200 -78q-123 0 -200.5 79t-77.5 203q0 126 76.5 205t201.5 79z" />
    <glyph glyph-name="Ohungarumlaut.sc" horiz-adv-x="626" 
d="M314 484q-85 0 -136.5 -55t-51.5 -156q0 -98 51.5 -154.5t135.5 -56.5t135.5 56.5t51.5 154.5t-51.5 154.5t-134.5 56.5zM313 557q123 0 200.5 -79t77.5 -205t-78 -204t-200 -78q-123 0 -200.5 79t-77.5 203q0 126 76.5 205t201.5 79zM250 594h-70l59 137h114zM423 594
h-74l62 137h113z" />
    <glyph glyph-name="Omacron.sc" horiz-adv-x="626" 
d="M466 611h-305v71h305v-71zM314 484q-85 0 -136.5 -55t-51.5 -156q0 -98 51.5 -154.5t135.5 -56.5t135.5 56.5t51.5 154.5t-51.5 154.5t-134.5 56.5zM313 557q123 0 200.5 -79t77.5 -205t-78 -204t-200 -78q-123 0 -200.5 79t-77.5 203q0 126 76.5 205t201.5 79z" />
    <glyph glyph-name="Oslashacute.sc" horiz-adv-x="626" 
d="M328 594h-73l65 137h115zM469 401l-280 -294q49 -45 123 -45q85 0 136.5 56t51.5 156q0 77 -31 127zM158 146l278 293q-50 45 -122 45q-85 0 -136.5 -55t-51.5 -156q0 -77 32 -127zM492 498l66 70l37 -34l-68 -71q64 -74 64 -190q0 -126 -77.5 -204t-201.5 -78
q-104 0 -177 58l-67 -70l-37 33l68 72q-64 77 -64 189q0 126 76.5 205t200.5 79q106 0 180 -59z" />
    <glyph glyph-name="Racute.sc" horiz-adv-x="566" 
d="M299 594h-73l65 137h115zM156 473v-161h137q133 0 133 83q0 34 -27 56t-88 22h-155zM156 0h-88v547h240q68 0 110 -12q43 -12 71 -50.5t28 -88.5q0 -121 -148 -149q45 -25 92 -93l105 -154h-110l-76 114q-40 59 -63.5 84t-43 32t-56.5 8h-61v-238z" />
    <glyph glyph-name="Rcaron.sc" horiz-adv-x="566" 
d="M228 731l55 -83l53 83h100l-110 -137h-94l-105 137h101zM156 473v-161h137q133 0 133 83q0 34 -27 56t-88 22h-155zM156 0h-88v547h240q68 0 110 -12q43 -12 71 -50.5t28 -88.5q0 -121 -148 -149q45 -25 92 -93l105 -154h-110l-76 114q-40 59 -63.5 84t-43 32t-56.5 8
h-61v-238z" />
    <glyph glyph-name="Rcommaaccent.sc" horiz-adv-x="566" 
d="M259 -223l-22 34q35 15 44 59h-38v71h84v-47q0 -90 -68 -117zM156 473v-161h137q133 0 133 83q0 34 -27 56t-88 22h-155zM156 0h-88v547h240q68 0 110 -12q43 -12 71 -50.5t28 -88.5q0 -121 -148 -149q45 -25 92 -93l105 -154h-110l-76 114q-40 59 -63.5 84t-43 32
t-56.5 8h-61v-238z" />
    <glyph glyph-name="Sacute.sc" horiz-adv-x="548" 
d="M296 594h-73l65 137h115zM38 183l85 6q4 -65 49 -94t110 -29q63 0 99 23t36 62q0 37 -29 54.5t-138 43.5q-98 23 -144 56t-46 98q0 67 57 110.5t150 43.5q100 0 158.5 -45.5t61.5 -126.5l-86 -6q-4 103 -130 103q-59 0 -92 -19.5t-33 -54.5q0 -33 25 -48
q15 -9 116.5 -35.5t119.5 -33.5q45 -18 71 -53.5t26 -80.5q0 -71 -60 -119t-156 -48q-119 0 -183 50t-67 143z" />
    <glyph glyph-name="Scedilla.sc" horiz-adv-x="548" 
d="M176 -200l5 57q13 -1 46 -1q79 0 79 36q0 33 -77 33l19 67q-100 7 -154 56.5t-56 134.5l85 6q4 -65 49 -94t110 -29q63 0 99 23t36 62q0 37 -29 54.5t-138 43.5q-98 23 -144 56t-46 98q0 67 57 110.5t150 43.5q100 0 158.5 -45.5t61.5 -126.5l-86 -6q-4 103 -130 103
q-59 0 -92 -19.5t-33 -54.5q0 -33 25 -48q15 -9 116.5 -35.5t119.5 -33.5q45 -18 71 -53.5t26 -80.5q0 -66 -52 -112.5t-138 -53.5l-10 -32q41 -5 62 -25t21 -48q0 -39 -38 -65t-98 -26q-51 0 -75 5z" />
    <glyph glyph-name="Scircumflex.sc" horiz-adv-x="548" 
d="M329 594l-54 83l-55 -83h-100l106 137h93l110 -137h-100zM38 183l85 6q4 -65 49 -94t110 -29q63 0 99 23t36 62q0 37 -29 54.5t-138 43.5q-98 23 -144 56t-46 98q0 67 57 110.5t150 43.5q100 0 158.5 -45.5t61.5 -126.5l-86 -6q-4 103 -130 103q-59 0 -92 -19.5
t-33 -54.5q0 -33 25 -48q15 -9 116.5 -35.5t119.5 -33.5q45 -18 71 -53.5t26 -80.5q0 -71 -60 -119t-156 -48q-119 0 -183 50t-67 143z" />
    <glyph glyph-name="Scommaaccent.sc" horiz-adv-x="548" 
d="M256 -223l-22 34q35 15 44 59h-38v71h84v-47q0 -90 -68 -117zM38 183l85 6q4 -65 49 -94t110 -29q63 0 99 23t36 62q0 37 -29 54.5t-138 43.5q-98 23 -144 56t-46 98q0 67 57 110.5t150 43.5q100 0 158.5 -45.5t61.5 -126.5l-86 -6q-4 103 -130 103q-59 0 -92 -19.5
t-33 -54.5q0 -33 25 -48q15 -9 116.5 -35.5t119.5 -33.5q45 -18 71 -53.5t26 -80.5q0 -71 -60 -119t-156 -48q-119 0 -183 50t-67 143z" />
    <glyph glyph-name="Tbar.sc" horiz-adv-x="518" 
d="M74 247v54h140v172h-185v74h459v-74h-185v-172h140v-54h-140v-247h-89v247h-140z" />
    <glyph glyph-name="Tcaron.sc" horiz-adv-x="518" 
d="M205 731l55 -83l53 83h100l-110 -137h-94l-105 137h101zM303 0h-89v473h-185v74h459v-74h-185v-473z" />
    <glyph glyph-name="Ubreve.sc" horiz-adv-x="595" 
d="M154 726h60q14 -66 84 -66t84 66h60q-7 -62 -45 -94.5t-98 -32.5q-62 0 -100 32.5t-45 94.5zM438 232v315h89v-315q0 -142 -64 -191q-65 -50 -163 -50q-108 0 -170 50t-62 191v315h88v-315q0 -110 41 -139q39 -27 97 -27q64 0 104 29q40 28 40 137z" />
    <glyph glyph-name="Uhungarumlaut.sc" horiz-adv-x="595" 
d="M438 232v315h89v-315q0 -142 -64 -191q-65 -50 -163 -50q-108 0 -170 50t-62 191v315h88v-315q0 -110 41 -139q39 -27 97 -27q64 0 104 29q40 28 40 137zM236 594h-70l59 137h114zM409 594h-74l62 137h113z" />
    <glyph glyph-name="Umacron.sc" horiz-adv-x="595" 
d="M450 611h-305v71h305v-71zM438 232v315h89v-315q0 -142 -64 -191q-65 -50 -163 -50q-108 0 -170 50t-62 191v315h88v-315q0 -110 41 -139q39 -27 97 -27q64 0 104 29q40 28 40 137z" />
    <glyph glyph-name="Uogonek.sc" horiz-adv-x="595" 
d="M466 -120v-58q-56 -29 -96 -29q-57 0 -87 28.5t-30 78.5q0 38 13 92q-99 9 -148.5 61.5t-49.5 178.5v315h88v-315q0 -110 41 -139q39 -27 97 -27q64 0 104 29q40 28 40 137v315h89v-315q0 -127 -52.5 -180t-149.5 -60q-11 -33 -11 -58q0 -35 20 -56t53 -21t79 23z" />
    <glyph glyph-name="Uring.sc" horiz-adv-x="595" 
d="M438 232v315h89v-315q0 -142 -64 -191q-65 -50 -163 -50q-108 0 -170 50t-62 191v315h88v-315q0 -110 41 -139q39 -27 97 -27q64 0 104 29q40 28 40 137zM298 728q-22 0 -37 -15.5t-15 -36.5q0 -23 15 -38.5t37 -15.5q21 0 36.5 15.5t15.5 37.5q0 21 -15.5 37t-36.5 16z
M297 764q37 0 62.5 -26.5t25.5 -63.5q0 -36 -26 -62.5t-62 -26.5q-35 0 -61.5 26t-26.5 65q0 36 26 62t62 26z" />
    <glyph glyph-name="Utilde.sc" horiz-adv-x="595" 
d="M199 612h-65q0 52 28 81.5t71 29.5q28 0 82 -26q29 -15 46 -15q31 0 36 42h64q-1 -54 -28 -82.5t-69 -28.5q-30 0 -80 27q-33 18 -48 18q-37 0 -37 -46zM438 232v315h89v-315q0 -142 -64 -191q-65 -50 -163 -50q-108 0 -170 50t-62 191v315h88v-315q0 -110 41 -139
q39 -27 97 -27q64 0 104 29q40 28 40 137z" />
    <glyph glyph-name="Wacute.sc" horiz-adv-x="744" 
d="M399 594h-73l65 137h115zM242 0h-89l-153 547h91l106 -439l127 439h99l121 -436l111 436h89l-158 -547h-85l-129 450z" />
    <glyph glyph-name="Wcircumflex.sc" horiz-adv-x="744" 
d="M426 594l-54 83l-55 -83h-100l106 137h93l110 -137h-100zM242 0h-89l-153 547h91l106 -439l127 439h99l121 -436l111 436h89l-158 -547h-85l-129 450z" />
    <glyph glyph-name="Wdieresis.sc" horiz-adv-x="744" 
d="M242 0h-89l-153 547h91l106 -439l127 439h99l121 -436l111 436h89l-158 -547h-85l-129 450zM509 631h-92v101h92v-101zM326 631h-91v101h91v-101z" />
    <glyph glyph-name="Wgrave.sc" horiz-adv-x="744" 
d="M242 0h-89l-153 547h91l106 -439l127 439h99l121 -436l111 436h89l-158 -547h-85l-129 450zM355 731l66 -137h-71l-113 137h118z" />
    <glyph glyph-name="uni0163.sc" horiz-adv-x="518" 
d="M233 -223l-22 34q35 15 44 59h-38v71h84v-47q0 -90 -68 -117zM303 0h-89v473h-185v74h459v-74h-185v-473z" />
    <glyph glyph-name="uni021B.sc" horiz-adv-x="518" 
d="M233 -223l-22 34q35 15 44 59h-38v71h84v-47q0 -90 -68 -117zM303 0h-89v473h-185v74h459v-74h-185v-473z" />
    <glyph glyph-name="Ycircumflex.sc" horiz-adv-x="541" 
d="M325 594l-54 83l-55 -83h-100l106 137h93l110 -137h-100zM311 0h-89v231l-222 316h107l164 -245l167 245h103l-230 -316v-231z" />
    <glyph glyph-name="Ygrave.sc" horiz-adv-x="541" 
d="M311 0h-89v231l-222 316h107l164 -245l167 245h103l-230 -316v-231zM248 731l66 -137h-71l-113 137h118z" />
    <glyph glyph-name="Zacute.sc" horiz-adv-x="504" 
d="M283 594h-73l65 137h115zM481 0h-458v74l338 399h-305v74h416v-70l-342 -403h351v-74z" />
    <glyph glyph-name="Zdotaccent.sc" horiz-adv-x="504" 
d="M323 594h-109v109h109v-109zM481 0h-458v74l338 399h-305v74h416v-70l-342 -403h351v-74z" />
    <glyph glyph-name="Idotaccent.sc" horiz-adv-x="236" 
d="M172 594h-109v109h109v-109zM162 0h-88v547h88v-547z" />
    <glyph glyph-name="dollar.sc" horiz-adv-x="493" 
d="M218 -80v69q-57 7 -94 29q-80 47 -85 148l87 15q8 -54 28.5 -81.5t63.5 -41.5v208q-166 37 -166 162q0 69 45.5 114.5t120.5 46.5v34h55v-34q137 -12 161 -147l-89 -13q-6 36 -21.5 59t-50.5 31v-187q174 -42 174 -167q0 -77 -49 -122t-125 -54v-69h-55zM218 520
q-33 -4 -55.5 -27.5t-22.5 -60.5t20.5 -55.5t57.5 -31.5v175zM273 58q37 7 61 35t24 68q0 22 -6.5 38t-21 26.5t-26 16t-31.5 12.5v-196z" />
    <glyph glyph-name="zero.sc" horiz-adv-x="493" 
d="M246 506q-56 0 -83.5 -52.5t-27.5 -171.5q0 -124 28.5 -173.5t83.5 -49.5t83 51.5t28 171.5q0 121 -28 172.5t-84 51.5zM247 574q200 0 200 -292q0 -291 -200 -291q-202 0 -202 291q0 292 202 292z" />
    <glyph glyph-name="one.sc" horiz-adv-x="493" 
d="M337 574v-574h-91v427q-56 -44 -140 -74v78q128 57 173 143h58z" />
    <glyph glyph-name="two.sc" horiz-adv-x="493" 
d="M160 77h285v-77h-404q0 55 35.5 104t118.5 113q95 74 129 115t34 83q0 39 -30 65t-74 26q-46 0 -78 -26t-32 -87l-90 8q6 85 59.5 129t140.5 44q88 0 140.5 -46t52.5 -115q0 -49 -29 -96t-148 -142q-95 -75 -110 -98z" />
    <glyph glyph-name="three.sc" horiz-adv-x="493" 
d="M43 159l87 11q20 -111 110 -111q48 0 81.5 32.5t33.5 78.5q0 45 -30.5 74t-78.5 29q-20 0 -58 -9l10 74q6 -1 16 -1q50 0 82.5 23t32.5 64q0 37 -26.5 59.5t-63.5 22.5q-85 0 -102 -102l-87 14q12 75 62.5 115.5t124.5 40.5q75 0 128 -44t53 -107q0 -71 -72 -112
q48 -14 74.5 -51.5t26.5 -88.5q0 -77 -61 -128.5t-145 -51.5t-138 46.5t-60 121.5z" />
    <glyph glyph-name="four.sc" horiz-adv-x="493" 
d="M113 200h171v235zM375 0h-91v132h-253v76l268 366h76v-374h75v-68h-75v-132z" />
    <glyph glyph-name="five.sc" horiz-adv-x="493" 
d="M44 158l92 8q18 -107 108 -107q51 0 84 37.5t33 92.5q0 57 -33 89.5t-87 32.5q-69 0 -105 -54l-80 9l60 298h306v-76h-235l-28 -133q52 28 102 28q77 0 134.5 -52t57.5 -135q0 -88 -59.5 -146.5t-150.5 -58.5q-81 0 -137 44t-62 123z" />
    <glyph glyph-name="six.sc" horiz-adv-x="493" 
d="M250 303q-50 0 -79.5 -33.5t-29.5 -87.5t30.5 -88.5t76.5 -34.5q48 0 80.5 37.5t32.5 91.5q0 50 -31.5 82.5t-79.5 32.5zM441 424l-85 -7q-14 89 -93 89q-117 0 -130 -193q56 62 135 62q77 0 130 -54t53 -136q0 -83 -55 -138.5t-140 -55.5q-68 0 -118 35t-71.5 92
t-21.5 151q0 154 58 229.5t163 75.5q72 0 119 -38.5t56 -111.5z" />
    <glyph glyph-name="seven.sc" horiz-adv-x="493" 
d="M343 488h-279v76h394v-61q-77 -74 -146 -213q-71 -144 -80 -290h-88q0 76 28 172t67 166.5t104 149.5z" />
    <glyph glyph-name="eight.sc" horiz-adv-x="493" 
d="M245 274q-49 0 -81 -31t-32 -76q0 -46 32.5 -77t82.5 -31q49 0 81 30t32 77t-33 77.5t-82 30.5zM246 506q-38 0 -64 -23.5t-26 -56.5q0 -38 25.5 -61t64.5 -23q38 0 63.5 22.5t25.5 57.5q0 36 -25 60t-64 24zM145 311q-79 33 -79 113q0 64 50.5 107t128.5 43t129 -43.5
t51 -108.5q0 -76 -78 -111q102 -41 102 -145q0 -75 -57.5 -125t-145.5 -50t-145.5 50.5t-57.5 126.5q0 50 27.5 89t74.5 54z" />
    <glyph glyph-name="nine.sc" horiz-adv-x="493" 
d="M243 262q50 0 79.5 33.5t29.5 87.5t-30 88.5t-77 34.5q-48 0 -81 -37.5t-33 -91.5q0 -50 32 -82.5t80 -32.5zM52 141l85 7q12 -89 92 -89q124 0 131 193q-56 -62 -135 -62q-77 0 -130 53t-53 137t54.5 139t139.5 55q66 0 118 -36q50 -35 71.5 -91.5t21.5 -150.5
q0 -157 -59 -231t-158 -74q-158 0 -178 150z" />
    <glyph glyph-name="cent.sc" 
d="M498 366l-85 -13q-13 54 -47 83l-108 -374q15 -4 32 -4q50 0 85 37.5t45 94.5l88 -10q-16 -92 -76.5 -142.5t-131.5 -50.5q-36 0 -62 6l-29 -90l-56 12l30 95q-61 30 -94.5 94t-33.5 153q0 131 64.5 202t180.5 71q4 0 34 -3l30 96l54 -12l-30 -100q90 -39 110 -145z
M206 86l108 373q-16 2 -24 2q-65 0 -105 -53.5t-40 -148.5q0 -127 61 -173z" />
    <glyph glyph-name="dotlessi.sc" horiz-adv-x="236" 
d="M162 0h-88v547h88v-547z" />
    <glyph glyph-name="i.dot" horiz-adv-x="222" 
d="M155 0h-88v518h88v-518zM165 583h-109v109h109v-109z" />
    <glyph glyph-name="uni021A.sc" horiz-adv-x="518" 
d="M233 -223l-22 34q35 15 44 59h-38v71h84v-47q0 -90 -68 -117zM303 0h-89v473h-185v74h459v-74h-185v-473z" />
    <glyph glyph-name="uni0162.sc" horiz-adv-x="518" 
d="M233 -223l-22 34q35 15 44 59h-38v71h84v-47q0 -90 -68 -117zM303 0h-89v473h-185v74h459v-74h-185v-473z" />
    <glyph glyph-name="Euro.sc" horiz-adv-x="493" 
d="M484 549l-19 -81q-52 41 -114 41q-45 0 -81.5 -14.5t-57 -37.5t-32.5 -45.5t-15 -42.5h276l-13 -61h-271v-41h262l-13 -62h-240q15 -62 59.5 -101.5t118.5 -39.5t123 42v-92q-56 -23 -116 -23q-224 0 -272 214h-65l14 62h42v41h-56l14 61h47q23 104 96 158.5t182 54.5
q75 0 131 -33z" />
    <glyph glyph-name="sterling.sc" horiz-adv-x="493" 
d="M111 254h-81v67h61q-18 56 -18 102q0 67 52.5 113t136.5 46q75 0 122 -39t60 -115l-81 -12q-6 47 -34 73.5t-71 26.5q-47 0 -73.5 -26t-26.5 -66q0 -41 21 -103h129v-67h-113q5 -12 5 -34q0 -68 -61 -134q25 6 52 6q29 0 81 -13q50 -13 76 -13q37 0 85 23l27 -73
q-65 -25 -108 -25q-28 0 -74 14q-62 20 -112 20q-52 0 -112 -37l-32 75q42 22 68.5 60.5t26.5 87.5q0 23 -6 43z" />
    <glyph glyph-name="yen.sc" horiz-adv-x="493" 
d="M288 0h-81v126h-167v61h167v46h-167v67h133l-164 273h91l146 -253q3 6 142 253h96l-164 -273h134v-67h-166v-46h166v-61h-166v-126z" />
    </font>
</defs>
</svg>
